<svg xmlns="http://www.w3.org/2000/svg" width="117" height="117" viewBox="0 0 117 117">
  <metadata><?xpacket begin="﻿" id="W5M0MpCehiHzreSzNTczkc9d"?>
<x:xmpmeta xmlns:x="adobe:ns:meta/" x:xmptk="Adobe XMP Core 5.6-c138 79.159824, 2016/09/14-01:09:01        ">
   <rdf:RDF xmlns:rdf="http://www.w3.org/1999/02/22-rdf-syntax-ns#">
      <rdf:Description rdf:about=""/>
   </rdf:RDF>
</x:xmpmeta>
                                                                                                    
                                                                                                    
                                                                                                    
                                                                                                    
                                                                                                    
                                                                                                    
                                                                                                    
                                                                                                    
                                                                                                    
                                                                                                    
                                                                                                    
                                                                                                    
                                                                                                    
                                                                                                    
                                                                                                    
                                                                                                    
                                                                                                    
                                                                                                    
                                                                                                    
                                                                                                    
                           
<?xpacket end="w"?></metadata>
<defs>
    <style>
      .cls-1 {
        fill: #49c998;
        fill-rule: evenodd;
      }
    </style>
  </defs>
  <path id="Forma_1" data-name="Forma 1" class="cls-1" d="M11780.6,4463.5h3.9v3.9h-3.9v-3.9Zm58.5,3.9h-2v-70.18a7.81,7.81,0,0,0-7.8-7.8h-18.1a29.3,29.3,0,0,0-57.4,0h-18.1a7.81,7.81,0,0,0-7.8,7.8v70.18h-2a1.963,1.963,0,0,0-1.9,1.95v5.85a7.8,7.8,0,0,0,7.8,7.8h101.4a7.8,7.8,0,0,0,7.8-7.8v-5.85A1.963,1.963,0,0,0,11839.1,4467.4Zm-74.9-89.67a25.32,25.32,0,0,1,43.6,17.49,24.9,24.9,0,0,1-7.8,18.3v-10.45a11.661,11.661,0,0,0-9.9-11.54,9.4,9.4,0,0,0,2.1-6,9.7,9.7,0,1,0-19.4,0,9.4,9.4,0,0,0,2.1,6,11.661,11.661,0,0,0-9.9,11.54v10.45A25.284,25.284,0,0,1,11764.2,4377.73Zm24.2,27.29v14.89a24.623,24.623,0,0,1-11.7,0v-14.89h-3.9v13.65a22.607,22.607,0,0,1-3.9-2.07v-13.53a7.747,7.747,0,0,1,7.8-7.8h11.7a7.725,7.725,0,0,1,7.7,7.8v13.52a21.975,21.975,0,0,1-3.9,2.08v-13.65h-3.8Zm-11.7-19.49a5.828,5.828,0,0,1,5.8-5.85,5.845,5.845,0,1,1,0,11.69A5.819,5.819,0,0,1,11776.7,4385.53Zm-11.7,33.08v0.06h0a29.13,29.13,0,0,0,35,0h0v-0.06a29.242,29.242,0,0,0,11.2-17.49h14.2v54.59h-85.8v-54.59h14.2A29.242,29.242,0,0,0,11765,4418.61Zm-33.2-21.39a3.873,3.873,0,0,1,3.9-3.9h17.6v3.9h-15.7a1.963,1.963,0,0,0-1.9,1.95v58.49a1.963,1.963,0,0,0,1.9,1.95h89.7a1.983,1.983,0,0,0,2-1.95v-58.49a1.983,1.983,0,0,0-2-1.95h-15.6v-3.9h17.6a3.873,3.873,0,0,1,3.9,3.9v70.18H11800a1.714,1.714,0,0,0-1.3.57l-3.4,3.33h-25.6l-3.4-3.33a1.714,1.714,0,0,0-1.3-.57h-33.2v-70.18Zm105.3,77.98a3.867,3.867,0,0,1-3.9,3.9h-101.4a3.867,3.867,0,0,1-3.9-3.9v-3.9h36.2l3.4,3.33a1.749,1.749,0,0,0,1.4.57h27.2a1.749,1.749,0,0,0,1.4-.57l3.4-3.33h36.2v3.9h0Zm-23.4-46.79h-62.4a1.983,1.983,0,0,0-2,1.95v15.6a1.976,1.976,0,0,0,2,1.95h62.4a1.892,1.892,0,0,0,1.9-1.95v-15.6A1.9,1.9,0,0,0,11813.7,4428.41Zm-2,15.6h-58.4v-11.7h58.4v11.7Zm-31.1-7.8h3.9v3.9h-3.9v-3.9Zm7.8,0h3.8v3.9h-3.8v-3.9Zm7.7,0h3.9v3.9h-3.9v-3.9Zm7.8,0h3.9v3.9h-3.9v-3.9Zm-46.7,0h3.9v3.9h-3.9v-3.9Zm7.8,0h3.9v3.9h-3.9v-3.9Zm7.8,0h3.9v3.9h-3.9v-3.9Z" transform="translate(-11724 -4366)"/>
</svg>
