<svg xmlns="http://www.w3.org/2000/svg" width="7" height="12" viewBox="0 0 7 12">
    <metadata><?xpacket begin="﻿" id="W5M0MpCehiHzreSzNTczkc9d"?>
        <x:xmpmeta xmlns:x="adobe:ns:meta/" x:xmptk="Adobe XMP Core 5.6-c138 79.159824, 2016/09/14-01:09:01        ">
            <rdf:RDF xmlns:rdf="http://www.w3.org/1999/02/22-rdf-syntax-ns#">
                <rdf:Description rdf:about=""/>
            </rdf:RDF>
        </x:xmpmeta>


        <?xpacket end="w"?>
    </metadata>
    <defs>
        <style>
            .cls-1 {
            fill: #fff;
            fill-rule: evenodd;
            }
        </style>
    </defs>
    <path class="cls-1"
          d="M12028.4,1966l4.4-4.49a0.772,0.772,0,0,0,.2-0.46,0.747,0.747,0,0,0-.2-0.46l-0.4-.4a0.619,0.619,0,0,0-.4-0.19,0.67,0.67,0,0,0-.5.19l-5.3,5.35a0.772,0.772,0,0,0-.2.46,0.8,0.8,0,0,0,.2.47l5.3,5.34a0.67,0.67,0,0,0,.5.19,0.619,0.619,0,0,0,.4-0.19l0.4-.39a0.593,0.593,0,0,0,0-.93Z"
          transform="translate(-12026 -1960)"/>
</svg>
