<svg xmlns="http://www.w3.org/2000/svg" xmlns:xlink="http://www.w3.org/1999/xlink" width="16" height="16" viewBox="0 0 16 16">
  <metadata><?xpacket begin="﻿" id="W5M0MpCehiHzreSzNTczkc9d"?>
<x:xmpmeta xmlns:x="adobe:ns:meta/" x:xmptk="Adobe XMP Core 5.6-c138 79.159824, 2016/09/14-01:09:01        ">
   <rdf:RDF xmlns:rdf="http://www.w3.org/1999/02/22-rdf-syntax-ns#">
      <rdf:Description rdf:about=""/>
   </rdf:RDF>
</x:xmpmeta>
                                                                                                    
                                                                                                    
                                                                                                    
                                                                                                    
                                                                                                    
                                                                                                    
                                                                                                    
                                                                                                    
                                                                                                    
                                                                                                    
                                                                                                    
                                                                                                    
                                                                                                    
                                                                                                    
                                                                                                    
                                                                                                    
                                                                                                    
                                                                                                    
                                                                                                    
                                                                                                    
                           
<?xpacket end="w"?></metadata>
<defs>
    <style>
      .cls-1 {
        fill: #fff;
        fill-rule: evenodd;
        filter: url(#filter);
      }
    </style>
    <filter id="filter" x="6615" y="5197" width="16" height="16" filterUnits="userSpaceOnUse">
      <feFlood result="flood" flood-color="#2a2b32"/>
      <feComposite result="composite" operator="in" in2="SourceGraphic"/>
      <feBlend result="blend" in2="SourceGraphic"/>
    </filter>
  </defs>
  <path id="Forma_1" data-name="Forma 1" class="cls-1" d="M6623,5197a8,8,0,1,0,8,8A8,8,0,0,0,6623,5197Zm2.18,11.09a2.543,2.543,0,0,1-1.7.78V5210h-0.95v-1.13a2.46,2.46,0,0,1-2.3-2.16l1.46-.38a1.279,1.279,0,0,0,1.35,1.24,1.035,1.035,0,0,0,.79-0.27,0.874,0.874,0,0,0,.25-0.64,0.69,0.69,0,0,0-.25-0.58,4.145,4.145,0,0,0-1.12-.51,6.3,6.3,0,0,1-1.22-.54,1.97,1.97,0,0,1-.72-0.74,2.226,2.226,0,0,1-.27-1.11,2.423,2.423,0,0,1,.49-1.49,2.162,2.162,0,0,1,1.54-.82V5200h0.95v0.87a2.3,2.3,0,0,1,2.05,1.8l-1.3.54a1.324,1.324,0,0,0-1.18-1.11,0.89,0.89,0,0,0-.65.25,0.83,0.83,0,0,0-.24.6,0.687,0.687,0,0,0,.23.55,4.428,4.428,0,0,0,1.01.47,8.748,8.748,0,0,1,1.32.58,2.156,2.156,0,0,1,.77.76,2.179,2.179,0,0,1,.28,1.13A2.4,2.4,0,0,1,6625.18,5208.09Z" transform="translate(-6615 -5197)"/>
</svg>
