<svg xmlns="http://www.w3.org/2000/svg" xmlns:xlink="http://www.w3.org/1999/xlink" width="16" height="17" viewBox="0 0 16 17">
  <metadata><?xpacket begin="﻿" id="W5M0MpCehiHzreSzNTczkc9d"?>
<x:xmpmeta xmlns:x="adobe:ns:meta/" x:xmptk="Adobe XMP Core 5.6-c138 79.159824, 2016/09/14-01:09:01        ">
   <rdf:RDF xmlns:rdf="http://www.w3.org/1999/02/22-rdf-syntax-ns#">
      <rdf:Description rdf:about=""/>
   </rdf:RDF>
</x:xmpmeta>
                                                                                                    
                                                                                                    
                                                                                                    
                                                                                                    
                                                                                                    
                                                                                                    
                                                                                                    
                                                                                                    
                                                                                                    
                                                                                                    
                                                                                                    
                                                                                                    
                                                                                                    
                                                                                                    
                                                                                                    
                                                                                                    
                                                                                                    
                                                                                                    
                                                                                                    
                                                                                                    
                           
<?xpacket end="w"?></metadata>
<defs>
    <style>
      .cls-1 {
        fill: #fff;
        fill-rule: evenodd;
        filter: url(#filter);
      }
    </style>
    <filter id="filter" x="6129" y="5196" width="16" height="17" filterUnits="userSpaceOnUse">
      <feFlood result="flood" flood-color="#2a2b32"/>
      <feComposite result="composite" operator="in" in2="SourceGraphic"/>
      <feBlend result="blend" in2="SourceGraphic"/>
    </filter>
  </defs>
  <path id="Forma_1" data-name="Forma 1" class="cls-1" d="M6134.78,5205.38a0.387,0.387,0,0,0-.37-0.39h-1.3a0.387,0.387,0,0,0-.37.39v1.35a0.378,0.378,0,0,0,.37.38h1.3a0.378,0.378,0,0,0,.37-0.38v-1.35h0Zm3.24,0a0.387,0.387,0,0,0-.37-0.39h-1.3a0.387,0.387,0,0,0-.37.39v1.35a0.378,0.378,0,0,0,.37.38h1.3a0.378,0.378,0,0,0,.37-0.38v-1.35Zm3.23,0a0.38,0.38,0,0,0-.37-0.39h-1.29a0.38,0.38,0,0,0-.37.39v1.35a0.371,0.371,0,0,0,.37.38h1.29a0.371,0.371,0,0,0,.37-0.38v-1.35Zm-6.47,3.36a0.378,0.378,0,0,0-.37-0.38h-1.3a0.378,0.378,0,0,0-.37.38v1.35a0.387,0.387,0,0,0,.37.39h1.3a0.387,0.387,0,0,0,.37-0.39v-1.35h0Zm3.24,0a0.378,0.378,0,0,0-.37-0.38h-1.3a0.378,0.378,0,0,0-.37.38v1.35a0.387,0.387,0,0,0,.37.39h1.3a0.387,0.387,0,0,0,.37-0.39v-1.35Zm3.23,0a0.371,0.371,0,0,0-.37-0.38h-1.29a0.371,0.371,0,0,0-.37.38v1.35a0.38,0.38,0,0,0,.37.39h1.29a0.38,0.38,0,0,0,.37-0.39v-1.35h0Zm2.32-10.85v2.06a1.652,1.652,0,0,1-1.62,1.68h-1.02a1.654,1.654,0,0,1-1.63-1.68v-2.06h-4.6v2.06a1.661,1.661,0,0,1-1.63,1.68h-1.02a1.646,1.646,0,0,1-1.62-1.68v-2.06a1.519,1.519,0,0,0-1.43,1.53v12.05a1.505,1.505,0,0,0,1.47,1.53h13.05a1.505,1.505,0,0,0,1.47-1.53v-12.05A1.51,1.51,0,0,0,6143.57,5197.89Zm-0.48,12.83a0.647,0.647,0,0,1-.63.66h-10.95a0.647,0.647,0,0,1-.63-0.66v-6.23a0.647,0.647,0,0,1,.63-0.66h10.95a0.647,0.647,0,0,1,.63.66v6.23h0Zm-11.05-10.2h1.01a0.561,0.561,0,0,0,.56-0.57v-3.37a0.57,0.57,0,0,0-.56-0.58h-1.01a0.568,0.568,0,0,0-.55.58v3.37A0.559,0.559,0,0,0,6132.04,5200.52Zm8.88,0h1.01a0.559,0.559,0,0,0,.55-0.57v-3.37a0.568,0.568,0,0,0-.55-0.58h-1.01a0.57,0.57,0,0,0-.56.58v3.37A0.561,0.561,0,0,0,6140.92,5200.52Z" transform="translate(-6129 -5196)"/>
</svg>
