<svg xmlns="http://www.w3.org/2000/svg" width="100" height="100" viewBox="0 0 100 100">
  <metadata><?xpacket begin="﻿" id="W5M0MpCehiHzreSzNTczkc9d"?>
<x:xmpmeta xmlns:x="adobe:ns:meta/" x:xmptk="Adobe XMP Core 5.6-c138 79.159824, 2016/09/14-01:09:01        ">
   <rdf:RDF xmlns:rdf="http://www.w3.org/1999/02/22-rdf-syntax-ns#">
      <rdf:Description rdf:about=""/>
   </rdf:RDF>
</x:xmpmeta>
                                                                                                    
                                                                                                    
                                                                                                    
                                                                                                    
                                                                                                    
                                                                                                    
                                                                                                    
                                                                                                    
                                                                                                    
                                                                                                    
                                                                                                    
                                                                                                    
                                                                                                    
                                                                                                    
                                                                                                    
                                                                                                    
                                                                                                    
                                                                                                    
                                                                                                    
                                                                                                    
                           
<?xpacket end="w"?></metadata>
<defs>
    <style>
      .cls-1 {
        fill: #3fc692;
        fill-rule: evenodd;
      }
    </style>
  </defs>
  <path id="Forma_1" data-name="Forma 1" class="cls-1" d="M10131.3,4321h-96.6a1.649,1.649,0,0,0-1.7,1.67v96.66a1.649,1.649,0,0,0,1.7,1.67h96.6a1.649,1.649,0,0,0,1.7-1.67v-96.66A1.649,1.649,0,0,0,10131.3,4321Zm-1.6,96.67h-93.4v-80h93.4v80Zm0-83.34h-93.4v-10h93.4v10Zm-90-6.66h3.3V4331h-3.3v-3.33Zm6.6,0h3.4V4331h-3.4v-3.33Zm6.7,0h3.3V4331h-3.3v-3.33Zm21.7,75h16.6a1.649,1.649,0,0,0,1.7-1.67v-13.33a1.649,1.649,0,0,0-1.7-1.67h-16.6a1.649,1.649,0,0,0-1.7,1.67V4401A1.649,1.649,0,0,0,10074.7,4402.67Zm1.6-13.34h13.4v10h-13.4v-10Zm-1.6-20h16.6a1.641,1.641,0,0,0,1.7-1.66v-13.34a1.641,1.641,0,0,0-1.7-1.66h-16.6a1.641,1.641,0,0,0-1.7,1.66v13.34A1.641,1.641,0,0,0,10074.7,4369.33Zm1.6-13.33h13.4v10h-13.4v-10Zm25,46.67h16.7a1.712,1.712,0,0,0,1.7-1.67v-13.33a1.712,1.712,0,0,0-1.7-1.67h-16.7a1.627,1.627,0,0,0-1.6,1.67V4401A1.627,1.627,0,0,0,10101.3,4402.67Zm1.7-13.34h13.3v10H10103v-10Zm-1.7-20h16.7a1.7,1.7,0,0,0,1.7-1.66v-13.34a1.7,1.7,0,0,0-1.7-1.66h-16.7a1.618,1.618,0,0,0-1.6,1.66v13.34A1.618,1.618,0,0,0,10101.3,4369.33Zm1.7-13.33h13.3v10H10103v-10Zm-55,46.67h16.7a1.627,1.627,0,0,0,1.6-1.67v-13.33a1.627,1.627,0,0,0-1.6-1.67H10048a1.712,1.712,0,0,0-1.7,1.67V4401A1.712,1.712,0,0,0,10048,4402.67Zm1.7-13.34h13.3v10h-13.3v-10Zm-1.7-20h16.7a1.618,1.618,0,0,0,1.6-1.66v-13.34a1.618,1.618,0,0,0-1.6-1.66H10048a1.7,1.7,0,0,0-1.7,1.66v13.34A1.7,1.7,0,0,0,10048,4369.33Zm1.7-13.33h13.3v10h-13.3v-10Z" transform="translate(-10033 -4321)"/>
</svg>
