<svg xmlns="http://www.w3.org/2000/svg" width="95" height="95" viewBox="0 0 95 95">
    <metadata><?xpacket begin="﻿" id="W5M0MpCehiHzreSzNTczkc9d"?>
        <x:xmpmeta xmlns:x="adobe:ns:meta/" x:xmptk="Adobe XMP Core 5.6-c138 79.159824, 2016/09/14-01:09:01        ">
            <rdf:RDF xmlns:rdf="http://www.w3.org/1999/02/22-rdf-syntax-ns#">
                <rdf:Description rdf:about=""/>
            </rdf:RDF>
        </x:xmpmeta>


        <?xpacket end="w"?>
    </metadata>
    <defs>
        <style>
            .cls-1 {
            fill: #3fc692;
            fill-rule: evenodd;
            }
        </style>
    </defs>
    <path id="Forma_1" data-name="Forma 1" class="cls-1"
          d="M10125.7,5021.16h-8.8v-2.59a5.6,5.6,0,0,0-11.2,0v2.59h-31.1v-2.59a5.6,5.6,0,0,0-11.2,0v2.66a1.569,1.569,0,0,0-.5-0.07h-7.3a9.259,9.259,0,0,0-9.3,9.28v31.6a1.825,1.825,0,0,0,1.8,1.86,1.847,1.847,0,0,0,1.9-1.86v-21.76h66.9a1.861,1.861,0,0,0,0-3.72H10050v-6.12a5.584,5.584,0,0,1,5.6-5.57h7.3a1.615,1.615,0,0,0,.5-0.06v2.38a5.6,5.6,0,0,0,11.2,0v-2.32h31.1v2.32a5.6,5.6,0,0,0,11.2,0v-2.32h8.8a5.584,5.584,0,0,1,5.6,5.57v70.51a3.35,3.35,0,0,1-6.7,0v-4.8a1.825,1.825,0,0,0-1.8-1.86h-21.6a1.86,1.86,0,1,0,0,3.72h19.7v2.94a7.413,7.413,0,0,0,.8,3.34h-74.6a3.359,3.359,0,0,1-3.4-3.34v-2.94h41.5a1.86,1.86,0,1,0,0-3.72h-18.5a15.2,15.2,0,1,0-25.1-11.52,14.977,14.977,0,0,0,5.3,11.52h-5a1.847,1.847,0,0,0-1.9,1.86v4.8a7.091,7.091,0,0,0,7.1,7.05h80.8a7.091,7.091,0,0,0,7.1-7.05v-70.51A9.323,9.323,0,0,0,10125.7,5021.16Zm-54.8,6.03a1.911,1.911,0,0,1-1.9,1.86,1.825,1.825,0,0,1-1.8-1.86v-8.62a1.825,1.825,0,0,1,1.8-1.86,1.911,1.911,0,0,1,1.9,1.86v8.62Zm42.3,0a1.911,1.911,0,0,1-1.9,1.86,1.825,1.825,0,0,1-1.8-1.86v-8.62a1.825,1.825,0,0,1,1.8-1.86,1.911,1.911,0,0,1,1.9,1.86v8.62Zm-67.9,55.58a11.5,11.5,0,1,1,11.5,11.5A11.478,11.478,0,0,1,10045.3,5082.77Zm81.6-45.66a1.905,1.905,0,0,0-1.3-.55,1.733,1.733,0,0,0-1.3.55,1.73,1.73,0,0,0,0,2.62,1.733,1.733,0,0,0,1.3.55,1.905,1.905,0,0,0,1.3-.55A1.966,1.966,0,0,0,10126.9,5037.11Zm-31.5,57.72a1.835,1.835,0,0,0-2.6,0,1.739,1.739,0,0,0-.6,1.32,1.9,1.9,0,0,0,3.8,0A1.739,1.739,0,0,0,10095.4,5094.83Zm-13.4-25.42a7.05,7.05,0,1,0,0,14.1A7.05,7.05,0,0,0,10082,5069.41Zm0,10.39a3.34,3.34,0,1,1,3.3-3.34A3.359,3.359,0,0,1,10082,5079.8Zm17.3-10.39a7.05,7.05,0,1,0,0,14.1A7.05,7.05,0,0,0,10099.3,5069.41Zm0,10.39a3.34,3.34,0,1,1,3.3-3.34A3.338,3.338,0,0,1,10099.3,5079.8Zm17.3-10.39a7.05,7.05,0,0,0,0,14.1A7.05,7.05,0,1,0,10116.6,5069.41Zm0,10.39a3.341,3.341,0,1,1,3.4-3.34A3.338,3.338,0,0,1,10116.6,5079.8Zm-51.9-29.69a7.05,7.05,0,1,0,7,7.05A7.091,7.091,0,0,0,10064.7,5050.11Zm0,10.39a3.34,3.34,0,1,1,3.3-3.34A3.359,3.359,0,0,1,10064.7,5060.5Zm34.6-10.39a7.05,7.05,0,1,0,0,14.1A7.05,7.05,0,0,0,10099.3,5050.11Zm0,10.39a3.34,3.34,0,1,1,3.3-3.34A3.338,3.338,0,0,1,10099.3,5060.5Zm17.3-10.39a7.05,7.05,0,0,0,0,14.1A7.05,7.05,0,1,0,10116.6,5050.11Zm0,10.39a3.341,3.341,0,1,1,3.4-3.34A3.338,3.338,0,0,1,10116.6,5060.5Zm-34.6-10.39a7.05,7.05,0,1,0,0,14.1A7.05,7.05,0,0,0,10082,5050.11Zm0,10.39a3.34,3.34,0,1,1,3.3-3.34A3.359,3.359,0,0,1,10082,5060.5Zm-18.6,17.74a1.835,1.835,0,0,0-2.6,0l-6.1,6.05-2-2.07a1.957,1.957,0,0,0-2.7,0,1.909,1.909,0,0,0,0,2.63l3.4,3.37a1.905,1.905,0,0,0,1.3.55,1.733,1.733,0,0,0,1.3-.55l7.4-7.35A1.909,1.909,0,0,0,10063.4,5078.24Z"
          transform="translate(-10040 -5013)"/>
</svg>
