<svg xmlns="http://www.w3.org/2000/svg" width="91" height="83" viewBox="0 0 91 83">
    <metadata><?xpacket begin="﻿" id="W5M0MpCehiHzreSzNTczkc9d"?>
        <x:xmpmeta xmlns:x="adobe:ns:meta/" x:xmptk="Adobe XMP Core 5.6-c138 79.159824, 2016/09/14-01:09:01        ">
            <rdf:RDF xmlns:rdf="http://www.w3.org/1999/02/22-rdf-syntax-ns#">
                <rdf:Description rdf:about=""/>
            </rdf:RDF>
        </x:xmpmeta>


        <?xpacket end="w"?>
    </metadata>
    <defs>
        <style>
            .cls-1 {
            fill: #3fc692;
            fill-rule: evenodd;
            }
        </style>
    </defs>
    <path id="Forma_1" data-name="Forma 1" class="cls-1"
          d="M10132.2,5303.23a6.685,6.685,0,0,0-9.1-2.48c-0.6.29-8,3.93-14.1,6.5a1.328,1.328,0,0,0,1,2.46c6.5-2.69,14.3-6.54,14.3-6.57,0.1-.02.1-0.03,0.1-0.04a4.035,4.035,0,0,1,5.5,1.47c1.3,2.21-.7,4.65-1.7,5.64-6.7,5.36-25.1,19.11-31.3,19.11-6.8,0-26.1-4.07-30.8-5.09v-21.87c9.4-1.37,14.3.35,24.7,3.96,3.1,1.1,6.7,2.34,11,3.73a2.8,2.8,0,0,1,1.8,3.57,3.222,3.222,0,0,1-3.7,2.34c-2.7-.49-18.2-2.59-18.9-2.69a1.355,1.355,0,0,0-1.5,1.15,1.336,1.336,0,0,0,1.2,1.51c0.1,0.02,16.1,2.18,18.7,2.66a5.831,5.831,0,0,0,1.1.11,6.006,6.006,0,0,0,5.7-4.31,5.532,5.532,0,0,0-3.4-6.82v-0.01h0v-0.03c-0.1,0-.1-0.01-0.1-0.02-4.3-1.38-7.9-2.62-11-3.72-10.4-3.6-15.8-5.49-25.6-4.13v-1.12a1.332,1.332,0,0,0-1.3-1.34h-4v-1.34a1.354,1.354,0,0,0-1.4-1.34h-16.1a1.332,1.332,0,0,0-1.3,1.34v29.45a1.332,1.332,0,0,0,1.3,1.34,1.354,1.354,0,0,0,1.4-1.34V5297.2h13.4v32.12h-2.7v-1.34a1.33,1.33,0,0,0-1.3-1.33,1.352,1.352,0,0,0-1.4,1.33v1.34h-9.4a1.341,1.341,0,0,0,0,2.68h16.1a1.354,1.354,0,0,0,1.4-1.34v-1.4h4a1.332,1.332,0,0,0,1.3-1.34v-0.95c5.6,1.21,23.9,5.03,30.8,5.03,3.7,0,10.2-3.26,19.9-9.97,7-4.83,13.1-9.73,13.1-9.78a1.865,1.865,0,0,0,.2-0.1C10133,5309.24,10133.8,5305.9,10132.2,5303.23Zm-68.8,22.06h0v1.29h-2.6v-26.7h2.6v25.41Zm53.1-62.46v-8.92a4.91,4.91,0,0,0-4.9-4.91H10083a4.91,4.91,0,0,0-4.9,4.91v8.92c0,0.18.1,0.34,0.1,0.49l1.7,10.02-1.8,8.86h0v0.28h0v7.13a4.91,4.91,0,0,0,4.9,4.91h28.6a4.91,4.91,0,0,0,4.9-4.91v-7.14h0v-0.28l-1.7-8.67,1.7-10.21v-0.48Zm-2.6,26.78a2.248,2.248,0,0,1-2.3,2.23H10083a2.226,2.226,0,0,1-2.2-2.23v-5.8h33.1v5.8h0Zm-1.8-15.97v0.16l1.5,7.33h-4.3a12.074,12.074,0,0,0-9.1-10.54l3.4-3.42a1.217,1.217,0,0,0,0-1.89l-1.7-1.79a1.477,1.477,0,0,0-1-.39h-7.1a1.477,1.477,0,0,0-1,.39l-1.8,1.79a1.378,1.378,0,0,0,0,1.89l3.4,3.42a12.2,12.2,0,0,0-9.1,10.54h-4.2l1.5-7.51v-0.47l-1.8-10.58a2.242,2.242,0,0,1,2.2-2.14h28.6a2.334,2.334,0,0,1,2.3,2.14l-1.8,10.76v0.31Zm-5.5,7.49H10088a9.463,9.463,0,0,1,9.3-8.21A9.313,9.313,0,0,1,10106.6,5281.13Zm-12.7-14.9,0.4-.45h6.1l0.4,0.45-3.5,3.46Zm20-7.95a5.315,5.315,0,0,0-2.3-.53H10083a4.889,4.889,0,0,0-2.2.53v-4.37a2.226,2.226,0,0,1,2.2-2.23h28.6a2.248,2.248,0,0,1,2.3,2.23v4.37h0Z"
          transform="translate(-10042 -5249)"/>
</svg>
