<svg xmlns="http://www.w3.org/2000/svg" width="93" height="93" viewBox="0 0 93 93">
    <metadata><?xpacket begin="﻿" id="W5M0MpCehiHzreSzNTczkc9d"?>
        <x:xmpmeta xmlns:x="adobe:ns:meta/" x:xmptk="Adobe XMP Core 5.6-c138 79.159824, 2016/09/14-01:09:01        ">
            <rdf:RDF xmlns:rdf="http://www.w3.org/1999/02/22-rdf-syntax-ns#">
                <rdf:Description rdf:about=""/>
            </rdf:RDF>
        </x:xmpmeta>


        <?xpacket end="w"?>
    </metadata>
    <defs>
        <style>
            .cls-1 {
            fill: #3fc692;
            fill-rule: evenodd;
            }
        </style>
    </defs>
    <path id="Forma_1" data-name="Forma 1" class="cls-1"
          d="M10079,5540.63a1.865,1.865,0,0,0-.4-0.07,11.533,11.533,0,0,0,3.2-8.02v-16.38a1.81,1.81,0,0,0-1.8-1.82h-12.2a9.329,9.329,0,0,0-9.3,9.31v8.89a11.533,11.533,0,0,0,3.2,8.02c-0.1.01-.2,0.03-0.4,0.07a16.846,16.846,0,0,0-15.3,16.79v7.76a1.8,1.8,0,0,0,1.8,1.82h44.7a1.8,1.8,0,0,0,1.8-1.82v-7.76A16.846,16.846,0,0,0,10079,5540.63Zm-16.8-14.68v-2.3a5.64,5.64,0,0,1,5.6-5.68h10.4v4.24a3.858,3.858,0,0,1-3.9,3.86h-12.1v-0.12Zm0,3.75h12.1a7.558,7.558,0,0,0,3.9-1.08v3.92a8,8,0,1,1-16,0v-2.84Zm11.9,14.49-3.9,3.96-4-3.96h7.9Zm16.6,19.18h-41.1v-3.64h7.6a1.815,1.815,0,0,0,0-3.63h-7.5a13.233,13.233,0,0,1,11.5-11.8l7.7,7.7a1.755,1.755,0,0,0,1.3.53,1.929,1.929,0,0,0,1.3-.53l7.7-7.7a13.205,13.205,0,0,1,11.5,13.12v5.95Zm33-63.08c-0.2-.04-0.3-0.06-0.4-0.07a11.533,11.533,0,0,0,3.2-8.02v-16.38a1.8,1.8,0,0,0-1.8-1.82h-12.2a9.327,9.327,0,0,0-9.3,9.3v8.9a11.533,11.533,0,0,0,3.2,8.02,1.865,1.865,0,0,0-.4.07,16.839,16.839,0,0,0-15.3,16.79v7.76a1.81,1.81,0,0,0,1.8,1.82h14.6a1.815,1.815,0,0,0,0-3.63h-12.8v-5.95a13.205,13.205,0,0,1,11.5-13.12l7.7,7.7a2.078,2.078,0,0,0,1.3.53,1.718,1.718,0,0,0,1.3-.53l7.7-7.7a13.292,13.292,0,0,1,11.6,13.12v5.95H10122a1.815,1.815,0,0,0,0,3.63h15.2a1.81,1.81,0,0,0,1.8-1.82v-7.76A16.839,16.839,0,0,0,10123.7,5500.29Zm-8.9,7.51-3.9-3.95h7.9Zm8-15.6a8,8,0,1,1-16,0v-2.84h12.2a7.113,7.113,0,0,0,3.8-1.08v3.92Zm0-10.34a3.831,3.831,0,0,1-3.8,3.86h-12.2v-2.42a5.724,5.724,0,0,1,5.7-5.67h10.3v4.23h0Zm-6.7,41.7a1.755,1.755,0,0,0-1.3-.53,2.136,2.136,0,0,0-1.3.53,1.947,1.947,0,0,0-.5,1.28,1.993,1.993,0,0,0,.5,1.29,2.2,2.2,0,0,0,1.3.53,1.794,1.794,0,0,0,1.3-.53,1.586,1.586,0,0,0,.5-1.29A1.554,1.554,0,0,0,10116.1,5523.56Zm-21.5-24.14-7.6-7.6v-8.74a9.11,9.11,0,0,0-9.1-9.08h-22.8a9.11,9.11,0,0,0-9.1,9.08v15.99a9.116,9.116,0,0,0,9.1,9.08h22.8a9.119,9.119,0,0,0,8.4-5.63h7a1.918,1.918,0,0,0,1.7-1.12A2.029,2.029,0,0,0,10094.6,5499.42Zm-9.6-.53a1.809,1.809,0,0,0-1.8,1.41,5.474,5.474,0,0,1-5.3,4.21h-22.8a5.5,5.5,0,0,1-5.5-5.44v-15.99a5.506,5.506,0,0,1,5.5-5.45h22.8a5.42,5.42,0,0,1,5.4,5.45v9.49a1.678,1.678,0,0,0,.6,1.29l5,5.03h-3.9Zm44.9,33.96h-22.8a9.119,9.119,0,0,0-8.4,5.63h-7a1.918,1.918,0,0,0-1.7,1.12,2.029,2.029,0,0,0,.4,1.98l7.6,7.6v8.74a9.11,9.11,0,0,0,9.1,9.08h22.8a9.11,9.11,0,0,0,9.1-9.08v-15.99A9.116,9.116,0,0,0,10129.9,5532.85Zm5.5,25.07a5.506,5.506,0,0,1-5.5,5.45h-22.8a5.42,5.42,0,0,1-5.4-5.45v-9.49a1.678,1.678,0,0,0-.6-1.29l-5-5.02h3.9a1.82,1.82,0,0,0,1.8-1.41,5.482,5.482,0,0,1,5.3-4.23h22.8a5.506,5.506,0,0,1,5.5,5.45v15.99Zm-8.7-12.83a1.853,1.853,0,0,0-2.6,0l-4.8,4.83-2.3-2.24a1.733,1.733,0,0,0-2.5,0,1.835,1.835,0,0,0,0,2.57l3.5,3.52a1.85,1.85,0,0,0,1.3.54,2.039,2.039,0,0,0,1.3-.54l6.1-6.11A1.835,1.835,0,0,0,10126.7,5545.09Zm-52-59.05a6.267,6.267,0,0,0-5.8-5.84,6.111,6.111,0,0,0-4.7,1.68,6.19,6.19,0,0,0-2,4.6,1.8,1.8,0,1,0,3.6,0,2.778,2.778,0,0,1,.8-1.95,2.866,2.866,0,0,1,2.1-.71,2.623,2.623,0,0,1,2.4,2.47,2.658,2.658,0,0,1-2.1,2.79,3.069,3.069,0,0,0-2.4,2.99v0.97a1.9,1.9,0,0,0,1.9,1.82,1.81,1.81,0,0,0,1.8-1.82v-0.53A6.124,6.124,0,0,0,10074.7,5486.04Zm-5,12.67a1.709,1.709,0,0,0-1.2-.54,1.763,1.763,0,0,0-1.3.54,1.644,1.644,0,0,0-.6,1.28,1.678,1.678,0,0,0,.6,1.29,1.794,1.794,0,0,0,1.3.53,1.739,1.739,0,0,0,1.2-.53,1.678,1.678,0,0,0,.6-1.29A1.644,1.644,0,0,0,10069.7,5498.71Zm-4,57.92a1.794,1.794,0,0,0-1.3-.53,1.739,1.739,0,0,0-1.2.53,1.678,1.678,0,0,0-.6,1.29,1.658,1.658,0,0,0,.6,1.28,1.7,1.7,0,0,0,1.2.53,1.755,1.755,0,0,0,1.3-.53,1.658,1.658,0,0,0,.6-1.28A1.678,1.678,0,0,0,10065.7,5556.63Z"
          transform="translate(-10046 -5474)"/>
</svg>
