<svg xmlns="http://www.w3.org/2000/svg" width="88" height="104.97" viewBox="0 0 88 104.97">
    <metadata><?xpacket begin="﻿" id="W5M0MpCehiHzreSzNTczkc9d"?>
        <x:xmpmeta xmlns:x="adobe:ns:meta/" x:xmptk="Adobe XMP Core 5.6-c138 79.159824, 2016/09/14-01:09:01        ">
            <rdf:RDF xmlns:rdf="http://www.w3.org/1999/02/22-rdf-syntax-ns#">
                <rdf:Description rdf:about=""/>
            </rdf:RDF>
        </x:xmpmeta>


        <?xpacket end="w"?>
    </metadata>
    <defs>
        <style>
            .cls-1 {
            fill: #3fc692;
            fill-rule: evenodd;
            }
        </style>
    </defs>
    <path id="Forma_1" data-name="Forma 1" class="cls-1"
          d="M10129.2,5709.24l-38.1-11.09-0.1-.03a4.227,4.227,0,0,0-2,0v0.01l-38.2,11.11a6.488,6.488,0,0,0-4.8,6.21v54.1a18.62,18.62,0,0,0,10.3,16.74l25,14.6,0.2,0.1a18.978,18.978,0,0,0,17,0l0.1-.05,25.1-14.65a18.62,18.62,0,0,0,10.3-16.74v-54.1A6.488,6.488,0,0,0,10129.2,5709.24Zm-1.4,60.31h0a12.6,12.6,0,0,1-7,11.29l-0.1.05-25,14.64a12.967,12.967,0,0,1-11.4,0l-25-14.59-0.1-.1a12.6,12.6,0,0,1-7-11.29v-54.1a0.32,0.32,0,0,1,.2-0.28l37.6-10.92,37.5,10.9,0.1,0.02a0.32,0.32,0,0,1,.2.28v54.1h0Zm-37.8-47.54a26.355,26.355,0,1,0,26.5,26.36A26.465,26.465,0,0,0,10090,5722.01Zm0,46.56a20.205,20.205,0,1,1,20.3-20.2A20.268,20.268,0,0,1,10090,5768.57Zm11.3-28.11a3.02,3.02,0,0,0-4.3-.16l-10.5,9.61-3.4-3.4a3.139,3.139,0,0,0-4.4,0,3.09,3.09,0,0,0,0,4.36l5.6,5.49v0.07c0.1,0.03.1,0.07,0.2,0.1,0,0.04,0,.07.1,0.1a0.812,0.812,0,0,0,.1.09c0.1,0.04.1,0.06,0.1,0.09a1.587,1.587,0,0,0,.2.07,0.7,0.7,0,0,0,.1.08c0.1,0.02.1,0.04,0.2,0.06,0,0.02.1,0.04,0.1,0.06,0.1,0.01.1,0.03,0.1,0.04a0.517,0.517,0,0,1,.2.05c0.1,0.01.1,0.02,0.1,0.03l0.3,0.03v0.01c0.1,0.01.2,0.01,0.3,0.01h0c0.1,0,.2,0,0.3-0.01a0.158,0.158,0,0,0,.1-0.01,0.8,0.8,0,0,0,.2-0.03,0.168,0.168,0,0,0,.1-0.02c0.1-.02.1-0.03,0.2-0.05,0-.01.1-0.02,0.1-0.03,0.1-.02.1-0.04,0.2-0.06a0.467,0.467,0,0,1,.1-0.05c0.1-.03.1-0.05,0.1-0.07a1.587,1.587,0,0,0,.2-0.07,24054390300.716,24054390300.716,0,0,0,.2-0.16c0.1-.03.1-0.06,0.2-0.09,0-.03,0-0.07.1-0.1v-0.06l12.7-11.63A3.078,3.078,0,0,0,10101.3,5740.46Z"
          transform="translate(-10046 -5698.03)"/>
</svg>
