<svg xmlns="http://www.w3.org/2000/svg" width="19" height="19" viewBox="0 0 19 19">
    <metadata><?xpacket begin="﻿" id="W5M0MpCehiHzreSzNTczkc9d"?>
        <x:xmpmeta xmlns:x="adobe:ns:meta/" x:xmptk="Adobe XMP Core 5.6-c138 79.159824, 2016/09/14-01:09:01        ">
            <rdf:RDF xmlns:rdf="http://www.w3.org/1999/02/22-rdf-syntax-ns#">
                <rdf:Description rdf:about=""/>
            </rdf:RDF>
        </x:xmpmeta>


        <?xpacket end="w"?>
    </metadata>
    <defs>
        <style>
            .cls-1 {
            fill: #bcbcbc;
            fill-rule: evenodd;
            }
        </style>
    </defs>
    <path id="Forma_1" data-name="Forma 1" class="cls-1"
          d="M10840.5,4262a9.5,9.5,0,1,0,9.5,9.5A9.528,9.528,0,0,0,10840.5,4262Zm2.6,13.17a3.224,3.224,0,0,1-2,.92v1.35h-1.2v-1.34a3.023,3.023,0,0,1-2.7-2.56l1.7-.46a1.538,1.538,0,0,0,1.6,1.47,1.287,1.287,0,0,0,1-.31,1.073,1.073,0,0,0,.3-0.76,0.839,0.839,0,0,0-.3-0.7,6.9,6.9,0,0,0-1.3-.6,5.853,5.853,0,0,1-1.5-.64,2.535,2.535,0,0,1-.8-0.88,2.03,2.03,0,0,1-.4-1.32,2.875,2.875,0,0,1,.6-1.78,2.656,2.656,0,0,1,1.8-.96v-1.04h1.2v1.04a2.762,2.762,0,0,1,2.4,2.13l-1.5.64a1.591,1.591,0,0,0-1.4-1.31,1.014,1.014,0,0,0-.8.29,0.976,0.976,0,0,0-.3.71,0.767,0.767,0,0,0,.3.65,5.646,5.646,0,0,0,1.2.57,8.359,8.359,0,0,1,1.5.69,3.042,3.042,0,0,1,1,.9,2.82,2.82,0,0,1,.3,1.34A2.7,2.7,0,0,1,10843.1,4275.17Z"
          transform="translate(-10831 -4262)"/>
</svg>
