<svg xmlns="http://www.w3.org/2000/svg" xmlns:xlink="http://www.w3.org/1999/xlink" width="20.94" height="21" viewBox="0 0 20.94 21">
  <metadata><?xpacket begin="﻿" id="W5M0MpCehiHzreSzNTczkc9d"?>
<x:xmpmeta xmlns:x="adobe:ns:meta/" x:xmptk="Adobe XMP Core 5.6-c138 79.159824, 2016/09/14-01:09:01        ">
   <rdf:RDF xmlns:rdf="http://www.w3.org/1999/02/22-rdf-syntax-ns#">
      <rdf:Description rdf:about=""/>
   </rdf:RDF>
</x:xmpmeta>
                                                                                                    
                                                                                                    
                                                                                                    
                                                                                                    
                                                                                                    
                                                                                                    
                                                                                                    
                                                                                                    
                                                                                                    
                                                                                                    
                                                                                                    
                                                                                                    
                                                                                                    
                                                                                                    
                                                                                                    
                                                                                                    
                                                                                                    
                                                                                                    
                                                                                                    
                                                                                                    
                           
<?xpacket end="w"?></metadata>
<defs>
    <style>
      .cls-1 {
        fill: #2a2b32;
        fill-rule: evenodd;
        filter: url(#filter);
      }
    </style>
    <filter id="filter" x="3874.06" y="20152" width="20.94" height="21" filterUnits="userSpaceOnUse">
      <feFlood result="flood" flood-color="#fff"/>
      <feComposite result="composite" operator="in" in2="SourceGraphic"/>
      <feBlend result="blend" in2="SourceGraphic"/>
    </filter>
  </defs>
  <path id="Forma_1_copy" data-name="Forma 1 copy" class="cls-1" d="M3887.8,20163.2h-6.54a0.586,0.586,0,0,0-.65.6,0.667,0.667,0,0,0,.65.7h6.54a0.675,0.675,0,0,0,.66-0.7A0.594,0.594,0,0,0,3887.8,20163.2Zm1.31-4h-9.15a0.675,0.675,0,0,0-.66.7,0.657,0.657,0,0,0,.66.6h9.15a0.657,0.657,0,0,0,.66-0.6A0.675,0.675,0,0,0,3889.11,20159.2Zm-4.58-7.2c-5.77,0-10.46,4.1-10.46,9.2a8.882,8.882,0,0,0,3.92,7.2v4.6l4.59-2.8a12.386,12.386,0,0,0,1.95.2c5.78,0,10.47-4.1,10.47-9.2S3890.31,20152,3884.53,20152Zm0,17.1a8.13,8.13,0,0,1-2.21-.3l-3.07,1.9,0.04-3.1a7.47,7.47,0,0,1-3.91-6.4c0-4.4,4.1-7.9,9.15-7.9s9.16,3.5,9.16,7.9C3893.69,20165.5,3889.59,20169.1,3884.53,20169.1Z" transform="translate(-3874.06 -20152)"/>
</svg>
