<svg xmlns="http://www.w3.org/2000/svg" width="20" height="20" viewBox="0 0 20 20">
  <metadata><?xpacket begin="﻿" id="W5M0MpCehiHzreSzNTczkc9d"?>
<x:xmpmeta xmlns:x="adobe:ns:meta/" x:xmptk="Adobe XMP Core 5.6-c138 79.159824, 2016/09/14-01:09:01        ">
   <rdf:RDF xmlns:rdf="http://www.w3.org/1999/02/22-rdf-syntax-ns#">
      <rdf:Description rdf:about=""/>
   </rdf:RDF>
</x:xmpmeta>
                                                                                                    
                                                                                                    
                                                                                                    
                                                                                                    
                                                                                                    
                                                                                                    
                                                                                                    
                                                                                                    
                                                                                                    
                                                                                                    
                                                                                                    
                                                                                                    
                                                                                                    
                                                                                                    
                                                                                                    
                                                                                                    
                                                                                                    
                                                                                                    
                                                                                                    
                                                                                                    
                           
<?xpacket end="w"?></metadata>
<defs>
    <style>
      .cls-1 {
        fill: #2a2b32;
        fill-rule: evenodd;
      }
    </style>
  </defs>
  <path id="Forma_1" data-name="Forma 1" class="cls-1" d="M11381.9,7811.89a0.567,0.567,0,0,0-.6-0.49,2.346,2.346,0,0,1-2.1-1.37,2.307,2.307,0,0,1,.6-2.48,0.543,0.543,0,0,0,0-.75,9.935,9.935,0,0,0-1.5-1.6,0.6,0.6,0,0,0-.8.06,2.318,2.318,0,0,1-2.5.56,2.062,2.062,0,0,1-1.3-2.17,0.567,0.567,0,0,0-.5-0.58,10.4,10.4,0,0,0-2.3-.01,0.557,0.557,0,0,0-.5.57,2.1,2.1,0,0,1-1.4,2.14,2.2,2.2,0,0,1-2.4-.57,0.624,0.624,0,0,0-.8-0.06,11,11,0,0,0-1.6,1.6,0.485,0.485,0,0,0,.1.76,2.124,2.124,0,0,1,.5,2.49,2.274,2.274,0,0,1-2.2,1.36,0.46,0.46,0,0,0-.5.49,8.626,8.626,0,0,0,0,2.27,0.567,0.567,0,0,0,.6.49,2.279,2.279,0,0,1,2.1,1.37,2.312,2.312,0,0,1-.6,2.48,0.543,0.543,0,0,0,0,.75,10.371,10.371,0,0,0,1.5,1.6,0.6,0.6,0,0,0,.8-0.06,2.318,2.318,0,0,1,2.5-.56,2.062,2.062,0,0,1,1.3,2.17,0.567,0.567,0,0,0,.5.58,9.658,9.658,0,0,0,1.2.07,10.136,10.136,0,0,0,1.1-.06,0.557,0.557,0,0,0,.5-0.57,2.153,2.153,0,0,1,1.3-2.14,2.317,2.317,0,0,1,2.5.57,0.614,0.614,0,0,0,.8.06,11,11,0,0,0,1.6-1.6,0.485,0.485,0,0,0-.1-0.76,2.242,2.242,0,0,1,1.5-3.85h0.1a0.532,0.532,0,0,0,.6-0.49A8.626,8.626,0,0,0,11381.9,7811.89Zm-9.9,4.47a3.336,3.336,0,1,1,3.4-3.34A3.338,3.338,0,0,1,11372,7816.36Z" transform="translate(-11362 -7803)"/>
</svg>
