<svg xmlns="http://www.w3.org/2000/svg" width="106" height="106" viewBox="0 0 106 106">
  <metadata><?xpacket begin="﻿" id="W5M0MpCehiHzreSzNTczkc9d"?>
<x:xmpmeta xmlns:x="adobe:ns:meta/" x:xmptk="Adobe XMP Core 5.6-c138 79.159824, 2016/09/14-01:09:01        ">
   <rdf:RDF xmlns:rdf="http://www.w3.org/1999/02/22-rdf-syntax-ns#">
      <rdf:Description rdf:about=""/>
   </rdf:RDF>
</x:xmpmeta>
                                                                                                    
                                                                                                    
                                                                                                    
                                                                                                    
                                                                                                    
                                                                                                    
                                                                                                    
                                                                                                    
                                                                                                    
                                                                                                    
                                                                                                    
                                                                                                    
                                                                                                    
                                                                                                    
                                                                                                    
                                                                                                    
                                                                                                    
                                                                                                    
                                                                                                    
                                                                                                    
                           
<?xpacket end="w"?></metadata>
<defs>
    <style>
      .cls-1 {
        fill: #3fc692;
        fill-rule: evenodd;
      }
    </style>
  </defs>
  <path id="Forma_1" data-name="Forma 1" class="cls-1" d="M10139,5548.52c0-.12-0.1-0.24-0.1-0.35s-0.1-.21-0.1-0.31a95359062672.768,95359062672.768,0,0,0-.4-0.54c0-.03,0-0.06-0.1-0.09l-17-13.19v-13.68a5.252,5.252,0,0,0-5.3-5.3h-19.1l-7.7-5.95a5.168,5.168,0,0,0-6.4,0l-7.7,5.95H10056a5.252,5.252,0,0,0-5.3,5.3v13.68l-17,13.19c-0.1.03-.1,0.06-0.1,0.09a120453549074.829,120453549074.829,0,0,0-.4.54c0,0.1-.1.2-0.1,0.31s-0.1.23-.1,0.35v60.18a5.723,5.723,0,0,0,1,3.12c0,0.01,0,.03.1,0.05v0.05a5.415,5.415,0,0,0,4.2,2.08h95.4a5.394,5.394,0,0,0,4.2-2.09v-0.04c0.1-.02.1-0.04,0.1-0.05a5.723,5.723,0,0,0,1-3.12v-60.18Zm-54.1-36.62a1.682,1.682,0,0,1,2.1,0l4.1,3.16h-10.2Zm-46.2,98.57,46.2-35.89a1.682,1.682,0,0,1,2.1,0l46.3,35.89h-94.6Zm96.8-2.76-46.3-35.92a5.2,5.2,0,0,0-6.4,0l-46.3,35.92v-56.39l29,22.48a1.788,1.788,0,0,0,2.5-.31,1.757,1.757,0,0,0-.4-2.48l-29.4-22.84,12.5-9.66v13.65a1.76,1.76,0,0,0,1.7,1.77,1.78,1.78,0,0,0,1.8-1.77v-31.8a1.78,1.78,0,0,1,1.8-1.77h60a1.78,1.78,0,0,1,1.8,1.77v31.8a1.78,1.78,0,0,0,1.8,1.77,1.76,1.76,0,0,0,1.7-1.77v-13.65l12.5,9.66-29.5,22.88a1.752,1.752,0,0,0-.7,1.64,1.8,1.8,0,0,0,1.1,1.41,1.848,1.848,0,0,0,1.8-.26l29-22.52v56.39h0Zm-28.3-57.31v-7.07a21.2,21.2,0,1,0-21.2,21.2,1.765,1.765,0,1,0,0-3.53,17.67,17.67,0,1,1,17.7-17.67v7.07a3.55,3.55,0,0,1-7.1,0v-7.07a1.78,1.78,0,0,0-1.8-1.77,1.76,1.76,0,0,0-1.7,1.77,7.1,7.1,0,1,1-7.1-7.07,1.765,1.765,0,1,0,0-3.53,10.594,10.594,0,1,0,7.1,18.41A7.069,7.069,0,0,0,10107.2,5550.4Z" transform="translate(-10033 -5508)"/>
</svg>
