<svg xmlns="http://www.w3.org/2000/svg" xmlns:xlink="http://www.w3.org/1999/xlink" width="22.5" height="22" viewBox="0 0 22.5 22">
  <metadata><?xpacket begin="﻿" id="W5M0MpCehiHzreSzNTczkc9d"?>
<x:xmpmeta xmlns:x="adobe:ns:meta/" x:xmptk="Adobe XMP Core 5.6-c138 79.159824, 2016/09/14-01:09:01        ">
   <rdf:RDF xmlns:rdf="http://www.w3.org/1999/02/22-rdf-syntax-ns#">
      <rdf:Description rdf:about=""/>
   </rdf:RDF>
</x:xmpmeta>
                                                                                                    
                                                                                                    
                                                                                                    
                                                                                                    
                                                                                                    
                                                                                                    
                                                                                                    
                                                                                                    
                                                                                                    
                                                                                                    
                                                                                                    
                                                                                                    
                                                                                                    
                                                                                                    
                                                                                                    
                                                                                                    
                                                                                                    
                                                                                                    
                                                                                                    
                                                                                                    
                           
<?xpacket end="w"?></metadata>
<defs>
    <style>
      .cls-1 {
        fill: #2a2b32;
        fill-rule: evenodd;
        filter: url(#filter);
      }
    </style>
    <filter id="filter" x="7117" y="5257" width="22.5" height="22" filterUnits="userSpaceOnUse">
      <feFlood result="flood" flood-color="#b2b2b2"/>
      <feComposite result="composite" operator="in" in2="SourceGraphic"/>
      <feBlend result="blend" in2="SourceGraphic"/>
    </filter>
  </defs>
  <path id="Forma_1" data-name="Forma 1" class="cls-1" d="M7126.52,5257h-8.65a0.86,0.86,0,0,0-.87.85v8.46a0.852,0.852,0,0,0,.87.84h8.65a0.852,0.852,0,0,0,.87-0.84v-8.46A0.86,0.86,0,0,0,7126.52,5257Zm12.12,0h-8.66a0.858,0.858,0,0,0-.86.85v8.46a0.849,0.849,0,0,0,.86.84h8.66a0.852,0.852,0,0,0,.87-0.84v-8.46A0.86,0.86,0,0,0,7138.64,5257Zm-12.12,11.85h-8.65a0.858,0.858,0,0,0-.87.84v8.46a0.86,0.86,0,0,0,.87.85h8.65a0.86,0.86,0,0,0,.87-0.85v-8.46A0.858,0.858,0,0,0,7126.52,5268.85Zm12.12,0h-8.66a0.856,0.856,0,0,0-.86.84v8.46a0.858,0.858,0,0,0,.86.85h8.66a0.86,0.86,0,0,0,.87-0.85v-8.46A0.858,0.858,0,0,0,7138.64,5268.85Z" transform="translate(-7117 -5257)"/>
</svg>
