<svg xmlns="http://www.w3.org/2000/svg" width="20.9" height="21" viewBox="0 0 20.9 21">
  <metadata><?xpacket begin="﻿" id="W5M0MpCehiHzreSzNTczkc9d"?>
<x:xmpmeta xmlns:x="adobe:ns:meta/" x:xmptk="Adobe XMP Core 5.6-c138 79.159824, 2016/09/14-01:09:01        ">
   <rdf:RDF xmlns:rdf="http://www.w3.org/1999/02/22-rdf-syntax-ns#">
      <rdf:Description rdf:about=""/>
   </rdf:RDF>
</x:xmpmeta>
                                                                                                    
                                                                                                    
                                                                                                    
                                                                                                    
                                                                                                    
                                                                                                    
                                                                                                    
                                                                                                    
                                                                                                    
                                                                                                    
                                                                                                    
                                                                                                    
                                                                                                    
                                                                                                    
                                                                                                    
                                                                                                    
                                                                                                    
                                                                                                    
                                                                                                    
                                                                                                    
                           
<?xpacket end="w"?></metadata>
<defs>
    <style>
      .cls-1 {
        fill: #2a2b32;
        fill-rule: evenodd;
      }
    </style>
  </defs>
  <path id="Forma_1_copy" data-name="Forma 1 copy" class="cls-1" d="M11060.8,7813.16h-6.5a0.667,0.667,0,0,0-.7.65,0.675,0.675,0,0,0,.7.66h6.5a0.675,0.675,0,0,0,.7-0.66A0.667,0.667,0,0,0,11060.8,7813.16Zm1.3-3.94h-9.1a0.656,0.656,0,1,0,0,1.31h9.1A0.656,0.656,0,1,0,11062.1,7809.22Zm-4.6-7.22c-5.7,0-10.4,4.12-10.4,9.19a8.738,8.738,0,0,0,3.9,7.16v4.64l4.6-2.78a12.18,12.18,0,0,0,1.9.16c5.8,0,10.5-4.11,10.5-9.18S11063.3,7802,11057.5,7802Zm0,17.06a10.976,10.976,0,0,1-2.2-.24l-3.1,1.86,0.1-3.05a7.514,7.514,0,0,1-3.9-6.44c0-4.35,4.1-7.87,9.1-7.87,5.1,0,9.2,3.52,9.2,7.87S11062.6,7819.06,11057.5,7819.06Z" transform="translate(-11047.1 -7802)"/>
</svg>
