<svg xmlns="http://www.w3.org/2000/svg" width="16" height="16" viewBox="0 0 16 16">
    <metadata><?xpacket begin="﻿" id="W5M0MpCehiHzreSzNTczkc9d"?>
        <x:xmpmeta xmlns:x="adobe:ns:meta/" x:xmptk="Adobe XMP Core 5.6-c138 79.159824, 2016/09/14-01:09:01        ">
            <rdf:RDF xmlns:rdf="http://www.w3.org/1999/02/22-rdf-syntax-ns#">
                <rdf:Description rdf:about=""/>
            </rdf:RDF>
        </x:xmpmeta>


        <?xpacket end="w"?>
    </metadata>
    <defs>
        <style>
            .cls-1 {
            fill-rule: evenodd;
            }
        </style>
    </defs>
    <path id="Forma_1_copy_11" data-name="Forma 1 copy 11" class="cls-1"
          d="M10615,5129a8,8,0,1,0,8,8A8.017,8.017,0,0,0,10615,5129Zm0,15.38a7.38,7.38,0,1,1,7.4-7.38A7.385,7.385,0,0,1,10615,5144.38Zm0-4a0.286,0.286,0,0,0-.3.31v0.62a0.3,0.3,0,1,0,.6,0v-0.62A0.286,0.286,0,0,0,10615,5140.38Zm0-8.61h0a2.193,2.193,0,0,0-1.7.71,2.4,2.4,0,0,0-.8,1.75,0.36,0.36,0,0,0,.3.31,0.379,0.379,0,0,0,.4-0.31,1.614,1.614,0,0,1,.5-1.31,1.8,1.8,0,0,1,1.3-.53,1.827,1.827,0,0,1,1.8,1.81,1.675,1.675,0,0,1-.8,1.58,2.977,2.977,0,0,0-1.3,2.5v0.87a0.3,0.3,0,1,0,.6,0v-0.87a2.424,2.424,0,0,1,1-1.98,2.362,2.362,0,0,0,1.2-2.1A2.549,2.549,0,0,0,10615,5131.77Z"
          transform="translate(-10607 -5129)"/>
</svg>
