<svg xmlns="http://www.w3.org/2000/svg" width="115" height="115" viewBox="0 0 115 115">
  <metadata><?xpacket begin="﻿" id="W5M0MpCehiHzreSzNTczkc9d"?>
<x:xmpmeta xmlns:x="adobe:ns:meta/" x:xmptk="Adobe XMP Core 5.6-c138 79.159824, 2016/09/14-01:09:01        ">
   <rdf:RDF xmlns:rdf="http://www.w3.org/1999/02/22-rdf-syntax-ns#">
      <rdf:Description rdf:about=""/>
   </rdf:RDF>
</x:xmpmeta>
                                                                                                    
                                                                                                    
                                                                                                    
                                                                                                    
                                                                                                    
                                                                                                    
                                                                                                    
                                                                                                    
                                                                                                    
                                                                                                    
                                                                                                    
                                                                                                    
                                                                                                    
                                                                                                    
                                                                                                    
                                                                                                    
                                                                                                    
                                                                                                    
                                                                                                    
                                                                                                    
                           
<?xpacket end="w"?></metadata>
<defs>
    <style>
      .cls-1 {
        fill: #3fc692;
        fill-rule: evenodd;
      }
    </style>
  </defs>
  <path id="Forma_1" data-name="Forma 1" class="cls-1" d="M10126.8,4436.8l-11,15.67-7.6-6.31a2.008,2.008,0,0,0-2.8.26,1.888,1.888,0,0,0,.3,2.75l9.3,7.66a2.044,2.044,0,0,0,1.2.44c0.1,0,.2-0.01.3-0.02a1.941,1.941,0,0,0,1.3-.81l12.2-17.41a1.947,1.947,0,0,0-.5-2.71A1.917,1.917,0,0,0,10126.8,4436.8Zm1.6-11.6v-57.45a1.976,1.976,0,0,0-2-1.95h-9.7v-5.85a1.976,1.976,0,0,0-2-1.95h-13.6a1.976,1.976,0,0,0-2,1.95v5.85h-42.9v-5.85a1.892,1.892,0,0,0-1.9-1.95h-13.7a1.956,1.956,0,0,0-1.9,1.95v5.85h-9.8a1.956,1.956,0,0,0-1.9,1.95v99.4a1.956,1.956,0,0,0,1.9,1.95h74.3A25.329,25.329,0,1,0,10128.4,4425.2Zm-25.4-63.3h9.8v11.69h-9.8V4361.9Zm-60.4,0h9.7v11.69h-9.7V4361.9Zm-11.7,7.8h7.8v5.84a1.956,1.956,0,0,0,1.9,1.95h13.7a1.892,1.892,0,0,0,1.9-1.95v-5.84h42.9v5.84a1.976,1.976,0,0,0,2,1.95h13.6a1.976,1.976,0,0,0,2-1.95v-5.84h7.8v15.59h-93.6V4369.7Zm0,95.5v-76.01h93.6v34.37c-0.4-.12-0.8-0.22-1.2-0.33s-0.7-.19-1.1-0.28c-0.3-.07-0.7-0.14-1-0.2-0.5-.08-0.9-0.16-1.4-0.22-0.3-.03-0.6-0.07-0.8-0.09-0.8-.07-1.6-0.12-2.3-0.12s-1.3.05-2,.1v-23.49h-74.1v56.53h52c0,0.17.1,0.34,0.1,0.5,0.2,0.48.4,0.95,0.6,1.42,0.1,0.25.2,0.5,0.3,0.76,0.2,0.49.5,0.98,0.7,1.46,0.1,0.21.3,0.41,0.4,0.62,0.3,0.5.6,1,.9,1.49a1.963,1.963,0,0,0,.4.52c0.3,0.48.7,0.97,1,1.43,0.2,0.17.3,0.33,0.5,0.5,0.3,0.35.6,0.71,0.9,1.05h-67.5v-0.01Zm74.7-40.29a4.875,4.875,0,0,1-.7.3c-0.3.2-.7,0.41-1,0.61s-0.7.37-1,.56-0.6.41-.9,0.62c-0.3.23-.6,0.48-0.9,0.74a4.435,4.435,0,0,0-.8.62,7.386,7.386,0,0,0-1,.9c-0.2.21-.5,0.42-0.7,0.64-0.3.35-.7,0.74-1,1.11-0.1.17-.3,0.32-0.4,0.48v-11.12h13.6v2.66a0.355,0.355,0,0,1-.1.02A24.8,24.8,0,0,0,10105.6,4424.91Zm-13.2,15.34c0,0.23-.1.46-0.1,0.68a10.544,10.544,0,0,0-.5,1.72c-0.1.45-.1,0.91-0.2,1.36,0,0.37-.1.73-0.1,1.11a21.555,21.555,0,0,0-.2,2.54c0,0.7.1,1.42,0.1,2.13a0.575,0.575,0,0,0,.1.39,3.014,3.014,0,0,0,.1.94h0v0.44h-12v-13.64h13.7v0.01c0,0.05-.1.09-0.1,0.14C10092.9,4438.78,10092.7,4439.51,10092.4,4440.25Zm-47.9-2.33h13.7v13.64h-13.7v-13.64Zm0-17.55h13.7v13.65h-13.7v-13.65Zm66.3-3.9h-13.6v-13.64h13.6v13.64Zm-17.5,0h-13.7v-13.64h13.7v13.64Zm0,17.55h-13.7v-13.65h13.7v13.65Zm-31.2-13.65h13.6v13.65h-13.6v-13.65Zm13.6-3.9h-13.6v-13.64h13.6v13.64Zm-17.5,0h-13.7v-13.64h13.7v13.64Zm3.9,21.45h13.6v13.64h-13.6v-13.64Zm54.6,31.18a21.238,21.238,0,0,1-11.9-3.62,17.458,17.458,0,0,1-1.9-1.43c-0.2-.18-0.4-0.38-0.6-0.56q-0.6-.525-1.2-1.08c-0.2-.24-0.4-0.48-0.6-0.73q-0.45-.555-0.9-1.14c-0.2-.25-0.4-0.49-0.6-0.74-0.4-.63-0.8-1.27-1.2-1.94-0.1-.15-0.1-0.32-0.2-0.47a12.011,12.011,0,0,1-.8-1.71c-0.1-.25-0.2-0.51-0.3-0.77-0.2-.51-0.3-1.03-0.5-1.55,0-.12-0.1-0.24-0.1-0.36a23.584,23.584,0,0,1-.5-2.56v-0.19a22.931,22.931,0,0,1-.2-2.59c0-.74.1-1.47,0.1-2.2,0-.06.1-0.12,0.1-0.18a6.8,6.8,0,0,1,.3-1.98v-0.18c0.2-.65.3-1.29,0.5-1.93,0-.07.1-0.15,0.1-0.22a12.4,12.4,0,0,1,.7-1.8,10.791,10.791,0,0,1,.8-1.64l0.2-.33a0.812,0.812,0,0,1,.2-0.42c0.4-.57.7-1.12,1.1-1.65,0.1-.14.2-0.27,0.3-0.4a10.416,10.416,0,0,1,1.1-1.34c0.1-.15.3-0.3,0.4-0.45,0.4-.4.8-0.79,1.2-1.16a1.509,1.509,0,0,0,.4-0.4q0.75-.615,1.5-1.17c0.1-.05.2-0.12,0.3-0.18a21.285,21.285,0,0,1,8.6-3.49h0a21.894,21.894,0,0,1,3.6-.32,20.272,20.272,0,0,1,2.2.12c0.1,0.01.3,0.04,0.4,0.06,0.6,0.07,1.2.17,1.9,0.31,0.1,0.02.1,0.04,0.2,0.06,0.7,0.15,1.3.33,2,.55,0,0.02.1,0.03,0.1,0.05a15.146,15.146,0,0,1,2,.79A21.42,21.42,0,0,1,10116.7,4469.1Z" transform="translate(-10027 -4358)"/>
</svg>
