<svg xmlns="http://www.w3.org/2000/svg" width="25.41" height="26" viewBox="0 0 25.41 26">
  <metadata><?xpacket begin="﻿" id="W5M0MpCehiHzreSzNTczkc9d"?>
<x:xmpmeta xmlns:x="adobe:ns:meta/" x:xmptk="Adobe XMP Core 5.6-c138 79.159824, 2016/09/14-01:09:01        ">
   <rdf:RDF xmlns:rdf="http://www.w3.org/1999/02/22-rdf-syntax-ns#">
      <rdf:Description rdf:about=""/>
   </rdf:RDF>
</x:xmpmeta>
                                                                                                    
                                                                                                    
                                                                                                    
                                                                                                    
                                                                                                    
                                                                                                    
                                                                                                    
                                                                                                    
                                                                                                    
                                                                                                    
                                                                                                    
                                                                                                    
                                                                                                    
                                                                                                    
                                                                                                    
                                                                                                    
                                                                                                    
                                                                                                    
                                                                                                    
                                                                                                    
                           
<?xpacket end="w"?></metadata>
<defs>
    <style>
      .cls-1 {
        fill: #fff;
        fill-rule: evenodd;
      }
    </style>
  </defs>
  <path id="Forma_1" data-name="Forma 1" class="cls-1" d="M8622.17,3940.34a0.591,0.591,0,0,0-.59-0.59h-2.05a0.591,0.591,0,0,0-.59.59v2.06a0.585,0.585,0,0,0,.59.59h2.05a0.585,0.585,0,0,0,.59-0.59v-2.06h0Zm5.14,0a0.591,0.591,0,0,0-.59-0.59h-2.05a0.591,0.591,0,0,0-.59.59v2.06a0.585,0.585,0,0,0,.59.59h2.05a0.585,0.585,0,0,0,.59-0.59v-2.06Zm5.14,0a0.589,0.589,0,0,0-.58-0.59h-2.06a0.591,0.591,0,0,0-.59.59v2.06a0.585,0.585,0,0,0,.59.59h2.06a0.583,0.583,0,0,0,.58-0.59v-2.06Zm-10.28,5.15a0.591,0.591,0,0,0-.59-0.59h-2.05a0.591,0.591,0,0,0-.59.59v2.06a0.585,0.585,0,0,0,.59.59h2.05a0.585,0.585,0,0,0,.59-0.59v-2.06h0Zm5.14,0a0.591,0.591,0,0,0-.59-0.59h-2.05a0.591,0.591,0,0,0-.59.59v2.06a0.585,0.585,0,0,0,.59.59h2.05a0.585,0.585,0,0,0,.59-0.59v-2.06Zm5.14,0a0.589,0.589,0,0,0-.58-0.59h-2.06a0.591,0.591,0,0,0-.59.59v2.06a0.585,0.585,0,0,0,.59.59h2.06a0.583,0.583,0,0,0,.58-0.59v-2.06h0Zm3.68-16.6v3.15a2.569,2.569,0,0,1-2.57,2.57h-1.62a2.586,2.586,0,0,1-2.59-2.57v-3.16h-7.31v3.16a2.586,2.586,0,0,1-2.59,2.57h-1.62a2.569,2.569,0,0,1-2.57-2.57v-3.15a2.345,2.345,0,0,0-2.26,2.33v18.44a2.341,2.341,0,0,0,2.33,2.34h20.73a2.341,2.341,0,0,0,2.33-2.34v-18.44A2.345,2.345,0,0,0,8636.13,3928.89Zm-0.75,19.62a1.014,1.014,0,0,1-1.01,1.01h-17.39a1.014,1.014,0,0,1-1.01-1.01v-9.52a1.007,1.007,0,0,1,1.01-1.01h17.39a1.007,1.007,0,0,1,1.01,1.01v9.52h0Zm-17.55-15.59h1.6a0.875,0.875,0,0,0,.88-0.88v-5.16a0.881,0.881,0,0,0-.88-0.88h-1.6a0.89,0.89,0,0,0-.89.88v5.16A0.883,0.883,0,0,0,8617.83,3932.92Zm14.09,0h1.6a0.875,0.875,0,0,0,.88-0.88v-5.16a0.881,0.881,0,0,0-.88-0.88h-1.6a0.881,0.881,0,0,0-.88.88v5.16A0.875,0.875,0,0,0,8631.92,3932.92Z" transform="translate(-8613 -3926)"/>
</svg>
