<svg xmlns="http://www.w3.org/2000/svg" width="34.4" height="34" viewBox="0 0 34.4 34">
    <metadata><?xpacket begin="﻿" id="W5M0MpCehiHzreSzNTczkc9d"?>
        <x:xmpmeta xmlns:x="adobe:ns:meta/" x:xmptk="Adobe XMP Core 5.6-c138 79.159824, 2016/09/14-01:09:01        ">
            <rdf:RDF xmlns:rdf="http://www.w3.org/1999/02/22-rdf-syntax-ns#">
                <rdf:Description rdf:about=""/>
            </rdf:RDF>
        </x:xmpmeta>


        <?xpacket end="w"?>
    </metadata>
    <defs>
        <style>
            .cls-1 {
            fill: #fff;
            fill-rule: evenodd;
            }
        </style>
    </defs>
    <path id="_-e-instagram" data-name="-e-instagram" class="cls-1"
          d="M9103.07,8349.4a3.432,3.432,0,0,0,3.44-3.4,3.309,3.309,0,0,0-.65-1.98,3.451,3.451,0,0,0-5.58,0,3.317,3.317,0,0,0-.66,1.98A3.434,3.434,0,0,0,9103.07,8349.4Zm7.52-7.56v-3.28h-0.44l-2.88.01,0.01,3.28Zm-7.52-12.84a17,17,0,1,0,17.2,17A17.119,17.119,0,0,0,9103.07,8329Zm9.78,15.02v7.91a3.769,3.769,0,0,1-3.78,3.74h-12a3.771,3.771,0,0,1-3.79-3.74v-11.86a3.771,3.771,0,0,1,3.79-3.74h12a3.769,3.769,0,0,1,3.78,3.74v3.95Zm-4.43,1.98a5.35,5.35,0,0,1-10.7,0,5.216,5.216,0,0,1,.39-1.98h-2.92v7.91a1.865,1.865,0,0,0,1.88,1.85h12a1.863,1.863,0,0,0,1.87-1.85v-7.91h-2.92A5.222,5.222,0,0,1,9108.42,8346Z"
          transform="translate(-9085.88 -8329)"/>
</svg>
