<svg xmlns="http://www.w3.org/2000/svg" width="34.41" height="34" viewBox="0 0 34.41 34">
  <metadata><?xpacket begin="﻿" id="W5M0MpCehiHzreSzNTczkc9d"?>
<x:xmpmeta xmlns:x="adobe:ns:meta/" x:xmptk="Adobe XMP Core 5.6-c138 79.159824, 2016/09/14-01:09:01        ">
   <rdf:RDF xmlns:rdf="http://www.w3.org/1999/02/22-rdf-syntax-ns#">
      <rdf:Description rdf:about=""/>
   </rdf:RDF>
</x:xmpmeta>
                                                                                                    
                                                                                                    
                                                                                                    
                                                                                                    
                                                                                                    
                                                                                                    
                                                                                                    
                                                                                                    
                                                                                                    
                                                                                                    
                                                                                                    
                                                                                                    
                                                                                                    
                                                                                                    
                                                                                                    
                                                                                                    
                                                                                                    
                                                                                                    
                                                                                                    
                                                                                                    
                           
<?xpacket end="w"?></metadata>
<defs>
    <style>
      .cls-1 {
        fill: #fff;
        fill-rule: evenodd;
      }
    </style>
  </defs>
  <path id="_-e-linkedin" data-name="-e-linkedin" class="cls-1" d="M9203.93,8343.58a2.767,2.767,0,0,0-2.5,1.36v-1.16h-2.77c0.03,0.77,0,8.24,0,8.24h2.77v-4.6a1.907,1.907,0,0,1,.09-0.67,1.52,1.52,0,0,1,1.42-1c1.01,0,1.41.75,1.41,1.86v4.41h2.77v-4.73C9207.12,8344.76,9205.75,8343.58,9203.93,8343.58Zm-2.5,1.39h-0.02l0.02-.02v0.02Zm-7.08-1.19h2.77v8.24h-2.77v-8.24Zm6.44-14.78a17,17,0,1,0,17.2,17A17.125,17.125,0,0,0,9200.79,8329Zm9.13,24.69a1.33,1.33,0,0,1-1.36,1.3h-15.65a1.322,1.322,0,0,1-1.35-1.3v-15.64a1.33,1.33,0,0,1,1.35-1.31h15.65a1.339,1.339,0,0,1,1.36,1.31v15.64Zm-14.17-13.88a1.426,1.426,0,1,0-.03,2.84h0.01A1.426,1.426,0,1,0,9195.75,8339.81Z" transform="translate(-9183.59 -8329)"/>
</svg>
