<svg xmlns="http://www.w3.org/2000/svg" width="34.41" height="34" viewBox="0 0 34.41 34">
    <metadata><?xpacket begin="﻿" id="W5M0MpCehiHzreSzNTczkc9d"?>
        <x:xmpmeta xmlns:x="adobe:ns:meta/" x:xmptk="Adobe XMP Core 5.6-c138 79.159824, 2016/09/14-01:09:01        ">
            <rdf:RDF xmlns:rdf="http://www.w3.org/1999/02/22-rdf-syntax-ns#">
                <rdf:Description rdf:about=""/>
            </rdf:RDF>
        </x:xmpmeta>


        <?xpacket end="w"?>
    </metadata>
    <defs>
        <style>
            .cls-1 {
            fill: #fff;
            fill-rule: evenodd;
            }
        </style>
    </defs>
    <path id="_-e-tiwtter" data-name="-e-tiwtter" class="cls-1"
          d="M9151.93,8329a17,17,0,1,0,17.2,17A17.125,17.125,0,0,0,9151.93,8329Zm7.67,13.11c0.01,0.17.02,0.34,0.02,0.51a11.123,11.123,0,0,1-11.27,11.13,11.319,11.319,0,0,1-6.07-1.76,7.461,7.461,0,0,0,.95.05,7.976,7.976,0,0,0,4.91-1.67,3.939,3.939,0,0,1-3.69-2.72,3.64,3.64,0,0,0,.74.07,4.421,4.421,0,0,0,1.04-.13,3.924,3.924,0,0,1-3.17-3.84v-0.05a3.984,3.984,0,0,0,1.79.49,3.9,3.9,0,0,1-1.76-3.25,3.783,3.783,0,0,1,.54-1.97,11.3,11.3,0,0,0,8.16,4.09,3.824,3.824,0,0,1-.11-0.9,3.933,3.933,0,0,1,3.96-3.91,3.976,3.976,0,0,1,2.89,1.24,8.155,8.155,0,0,0,2.52-.95,3.97,3.97,0,0,1-1.74,2.16,7.853,7.853,0,0,0,2.27-.61A7.918,7.918,0,0,1,9159.6,8342.11Z"
          transform="translate(-9134.72 -8329)"/>
</svg>
