<svg xmlns="http://www.w3.org/2000/svg" width="90" height="110" viewBox="0 0 90 110">
  <metadata><?xpacket begin="﻿" id="W5M0MpCehiHzreSzNTczkc9d"?>
<x:xmpmeta xmlns:x="adobe:ns:meta/" x:xmptk="Adobe XMP Core 5.6-c138 79.159824, 2016/09/14-01:09:01        ">
   <rdf:RDF xmlns:rdf="http://www.w3.org/1999/02/22-rdf-syntax-ns#">
      <rdf:Description rdf:about=""/>
   </rdf:RDF>
</x:xmpmeta>
                                                                                                    
                                                                                                    
                                                                                                    
                                                                                                    
                                                                                                    
                                                                                                    
                                                                                                    
                                                                                                    
                                                                                                    
                                                                                                    
                                                                                                    
                                                                                                    
                                                                                                    
                                                                                                    
                                                                                                    
                                                                                                    
                                                                                                    
                                                                                                    
                                                                                                    
                                                                                                    
                           
<?xpacket end="w"?></metadata>
<defs>
    <style>
      .cls-1 {
        fill: #49c998;
        fill-rule: evenodd;
      }
    </style>
  </defs>
  <path id="Forma_1" data-name="Forma 1" class="cls-1" d="M11737.6,4871.51a2.061,2.061,0,0,0-1.5-.63,2.24,2.24,0,0,0-1.5.63,2.225,2.225,0,0,0,0,3.04,2.228,2.228,0,0,0,1.5.62,2.052,2.052,0,0,0,1.5-.62A2.225,2.225,0,0,0,11737.6,4871.51Zm80-36.51h-42.9a2.151,2.151,0,0,0,0,4.3h42.9a2.181,2.181,0,0,1,2.2,2.14v97.11a2.183,2.183,0,0,1-2.2,2.15h-77.2a2.183,2.183,0,0,1-2.2-2.15v-57.5a2.1,2.1,0,0,0-2.1-2.15,2.163,2.163,0,0,0-2.1,2.15v57.5a6.449,6.449,0,0,0,6.4,6.45h77.2a6.449,6.449,0,0,0,6.4-6.45v-97.11A6.447,6.447,0,0,0,11817.6,4835Zm-38.6,8.59a29.648,29.648,0,0,0-4.3.33,2.123,2.123,0,0,0-1.8,2.45,2.147,2.147,0,0,0,2.4,1.8,24.042,24.042,0,0,1,27.7,24,23.963,23.963,0,0,1-5.7,15.62,20.342,20.342,0,0,0-6.2-6.86,20.808,20.808,0,0,0-4.8-2.53,10.66,10.66,0,0,0,3.1-7.52v-2.09a10.4,10.4,0,1,0-20.8,0v2.09a10.66,10.66,0,0,0,3.1,7.52,20.808,20.808,0,0,0-4.8,2.53,21.776,21.776,0,0,0-6.3,6.9,25.861,25.861,0,0,1-5.3-11.61,2.024,2.024,0,0,0-2.4-1.77,2.089,2.089,0,0,0-1.7,2.48,28.417,28.417,0,0,0,9.5,16.97,28,28,0,0,0,18.3,6.84A28.577,28.577,0,0,0,11779,4843.59Zm-6.2,25.19a6.2,6.2,0,1,1,12.4,0v2.1a6.2,6.2,0,1,1-12.4,0v-2.1Zm6.2,27.66a23.724,23.724,0,0,1-15.2-5.47,16.879,16.879,0,0,1,30.4-.04A23.5,23.5,0,0,1,11779,4896.44Zm19.6,24.07h-30.1a2.146,2.146,0,1,0,0,4.29h30.1A2.145,2.145,0,0,0,11798.6,4920.51Zm-37.7-11.4a2.1,2.1,0,0,0-3,0,2.13,2.13,0,0,0-.6,1.52,2.107,2.107,0,0,0,.6,1.51,2.1,2.1,0,0,0,3,0,2.107,2.107,0,0,0,.6-1.51A2.13,2.13,0,0,0,11760.9,4909.11Zm0,12.03a2.1,2.1,0,0,0-3,0,2.13,2.13,0,0,0-.6,1.52,2.107,2.107,0,0,0,.6,1.51,2.1,2.1,0,0,0,3,0,2.107,2.107,0,0,0,.6-1.51A2.13,2.13,0,0,0,11760.9,4921.14Zm37.7-12.66h-30.1a2.146,2.146,0,1,0,0,4.29h30.1A2.145,2.145,0,0,0,11798.6,4908.48Zm-39.6-61.1a2.1,2.1,0,0,0-3,0l-6.9,7-2.4-2.39a2.1,2.1,0,0,0-3,0,2.225,2.225,0,0,0,0,3.04l3.9,3.91a1.986,1.986,0,0,0,1.5.63,2.339,2.339,0,0,0,1.5-.63l8.4-8.52A2.225,2.225,0,0,0,11759,4847.38Zm-7.6-12.38a17.616,17.616,0,1,0,17.4,17.62A17.525,17.525,0,0,0,11751.4,4835Zm0,30.94a13.321,13.321,0,1,1,13.2-13.32A13.265,13.265,0,0,1,11751.4,4865.94Z" transform="translate(-11734 -4835)"/>
</svg>
