<svg xmlns="http://www.w3.org/2000/svg" width="104" height="111.97" viewBox="0 0 104 111.97">
  <metadata><?xpacket begin="﻿" id="W5M0MpCehiHzreSzNTczkc9d"?>
<x:xmpmeta xmlns:x="adobe:ns:meta/" x:xmptk="Adobe XMP Core 5.6-c138 79.159824, 2016/09/14-01:09:01        ">
   <rdf:RDF xmlns:rdf="http://www.w3.org/1999/02/22-rdf-syntax-ns#">
      <rdf:Description rdf:about=""/>
   </rdf:RDF>
</x:xmpmeta>
                                                                                                    
                                                                                                    
                                                                                                    
                                                                                                    
                                                                                                    
                                                                                                    
                                                                                                    
                                                                                                    
                                                                                                    
                                                                                                    
                                                                                                    
                                                                                                    
                                                                                                    
                                                                                                    
                                                                                                    
                                                                                                    
                                                                                                    
                                                                                                    
                                                                                                    
                                                                                                    
                           
<?xpacket end="w"?></metadata>
<defs>
    <style>
      .cls-1 {
        fill: #49c998;
        fill-rule: evenodd;
      }
    </style>
  </defs>
  <path id="Forma_1" data-name="Forma 1" class="cls-1" d="M11763.5,5588.56l-2.8,2.74a2.015,2.015,0,0,0-.6,1.47v1.17a2.03,2.03,0,0,0,2,2.05h16.6a2.116,2.116,0,0,0,2.1-2.05v-1.51a2.109,2.109,0,0,0-2.1-2.05h-9.2l0.3-.24c6-5.86,10.2-10.47,10.2-16.47,0-4.79-3-9.63-9.9-9.63a13.757,13.757,0,0,0-8.3,2.74,2.17,2.17,0,0,0-.7,2.49l0.6,1.14a1.871,1.871,0,0,0,1.3,1.14,2.069,2.069,0,0,0,1.7-.3,7.829,7.829,0,0,1,4.6-1.6c3,0,4.5,1.52,4.5,4.5C11773.8,5578.18,11770.5,5581.8,11763.5,5588.56Zm30.3-24.02a1.34,1.34,0,0,0-.2-0.01h-0.6a2.085,2.085,0,0,0-1.7.87l-12.4,17.99a2.482,2.482,0,0,0-.4,1.18v1.44a2.116,2.116,0,0,0,2.1,2.05h11.3v5.88a2.03,2.03,0,0,0,2,2.05h2a2.03,2.03,0,0,0,2-2.05v-5.88h2a2.03,2.03,0,0,0,2-2.05v-1.33a2.032,2.032,0,0,0-2-2.06h-2v-16.04a2.03,2.03,0,0,0-2-2.05h-2A0.34,0.34,0,0,0,11793.8,5564.54Zm-1.9,18.08h-6.1c1.5-2.28,4.2-6.2,6.1-9.1v9.1Zm-10.8,44.5c-23.9,0-43.3-19.65-43.3-43.8,0-22.87,17.4-41.7,39.5-43.63v6.98a1.392,1.392,0,0,0,.7,1.18,1.228,1.228,0,0,0,.6.16,1.3,1.3,0,0,0,.8-0.23l15.7-10.65a1.454,1.454,0,0,0,.5-1.11,1.476,1.476,0,0,0-.5-1.12l-15.7-10.65a1.4,1.4,0,0,0-1.4-.07,1.422,1.422,0,0,0-.7,1.19v5.41c-27,1.96-48.3,24.78-48.3,52.54,0,29.05,23.4,52.68,52.1,52.68a51.486,51.486,0,0,0,35.6-14.27l-6-6.47A42.789,42.789,0,0,1,11781.1,5627.12Zm44.4-71.25a55.769,55.769,0,0,0-6.2-8.33l-6.4,6.03a47.222,47.222,0,0,1,5.1,6.93Zm-1.5,21.5,8.7-1.19a58.537,58.537,0,0,0-2.4-10.17l-8.3,2.92A48.435,48.435,0,0,1,11824,5577.37Zm-13.1-37.2a49.271,49.271,0,0,0-9-5.13l-3.5,8.13a42.652,42.652,0,0,1,7.5,4.26Zm3.6,70.97,6.8,5.64a51.225,51.225,0,0,0,5.7-8.69l-7.7-4.18A37.215,37.215,0,0,1,11814.5,5611.14Zm9.7-24.43a41.06,41.06,0,0,1-1.5,8.55l8.5,2.42a59.412,59.412,0,0,0,1.8-10.29Z" transform="translate(-11729 -5524.03)"/>
</svg>
