<svg xmlns="http://www.w3.org/2000/svg" width="16" height="28" viewBox="0 0 16 28">
  <metadata><?xpacket begin="﻿" id="W5M0MpCehiHzreSzNTczkc9d"?>
<x:xmpmeta xmlns:x="adobe:ns:meta/" x:xmptk="Adobe XMP Core 5.6-c138 79.159824, 2016/09/14-01:09:01        ">
   <rdf:RDF xmlns:rdf="http://www.w3.org/1999/02/22-rdf-syntax-ns#">
      <rdf:Description rdf:about=""/>
   </rdf:RDF>
</x:xmpmeta>
                                                                                                    
                                                                                                    
                                                                                                    
                                                                                                    
                                                                                                    
                                                                                                    
                                                                                                    
                                                                                                    
                                                                                                    
                                                                                                    
                                                                                                    
                                                                                                    
                                                                                                    
                                                                                                    
                                                                                                    
                                                                                                    
                                                                                                    
                                                                                                    
                                                                                                    
                                                                                                    
                           
<?xpacket end="w"?></metadata>
<defs>
    <style>
      .cls-1 {
        fill: #959595;
        fill-rule: evenodd;
      }
    </style>
  </defs>
  <path class="cls-1" d="M10292.6,2930.77a0.622,0.622,0,0,1-.6-0.6v-14.75a0.622,0.622,0,0,1,.6-0.6,0.561,0.561,0,0,1,.6.6v14.75A0.561,0.561,0,0,1,10292.6,2930.77Zm4.9-2.1a0.624,0.624,0,0,1-.6-0.61v-12.64a0.622,0.622,0,0,1,.6-0.6,0.648,0.648,0,0,1,.7.6v12.64A0.649,0.649,0,0,1,10297.5,2928.67Zm5,0a0.649,0.649,0,0,1-.7-0.61v-12.64a0.648,0.648,0,0,1,.7-0.6,0.622,0.622,0,0,1,.6.6v12.64A0.624,0.624,0,0,1,10302.5,2928.67Zm4.9,2.1a0.561,0.561,0,0,1-.6-0.6v-14.75a0.561,0.561,0,0,1,.6-0.6,0.622,0.622,0,0,1,.6.6v14.75A0.622,0.622,0,0,1,10307.4,2930.77Zm-7.4.23a3.027,3.027,0,0,1-3.1-2.94,0.622,0.622,0,0,1,.6-0.6,0.648,0.648,0,0,1,.7.6,1.8,1.8,0,0,0,3.6,0,0.648,0.648,0,0,1,.7-0.6,0.622,0.622,0,0,1,.6.6A3.027,3.027,0,0,1,10300,2931Zm2.5-15.06a0.648,0.648,0,0,1-.7-0.6,4.2,4.2,0,0,0-4.3-4.13,4.267,4.267,0,0,0-4.3,4.13,0.561,0.561,0,0,1-.6.6,0.622,0.622,0,0,1-.6-0.6,5.554,5.554,0,0,1,11.1,0A0.622,0.622,0,0,1,10302.5,2915.94ZM10300,2938a7.876,7.876,0,0,1-8-7.71,0.622,0.622,0,0,1,.6-0.6,0.561,0.561,0,0,1,.6.6,6.806,6.806,0,0,0,13.6,0,0.561,0.561,0,0,1,.6-0.6,0.622,0.622,0,0,1,.6.6A7.876,7.876,0,0,1,10300,2938Z" transform="translate(-10292 -2910)"/>
</svg>
