<svg xmlns="http://www.w3.org/2000/svg" width="26" height="26" viewBox="0 0 26 26">
  <metadata><?xpacket begin="﻿" id="W5M0MpCehiHzreSzNTczkc9d"?>
<x:xmpmeta xmlns:x="adobe:ns:meta/" x:xmptk="Adobe XMP Core 5.6-c138 79.159824, 2016/09/14-01:09:01        ">
   <rdf:RDF xmlns:rdf="http://www.w3.org/1999/02/22-rdf-syntax-ns#">
      <rdf:Description rdf:about=""/>
   </rdf:RDF>
</x:xmpmeta>
                                                                                                    
                                                                                                    
                                                                                                    
                                                                                                    
                                                                                                    
                                                                                                    
                                                                                                    
                                                                                                    
                                                                                                    
                                                                                                    
                                                                                                    
                                                                                                    
                                                                                                    
                                                                                                    
                                                                                                    
                                                                                                    
                                                                                                    
                                                                                                    
                                                                                                    
                                                                                                    
                           
<?xpacket end="w"?></metadata>
<defs>
    <style>
      .cls-1 {
        fill: #959595;
        fill-rule: evenodd;
      }
    </style>
  </defs>
  <path id="Forma_1" data-name="Forma 1" class="cls-1" d="M10347.2,2934.19a13.007,13.007,0,1,0-18.4,0A12.965,12.965,0,0,0,10347.2,2934.19Zm-17-16.97a11.013,11.013,0,1,1,0,15.55A11.063,11.063,0,0,1,10330.2,2917.22Zm9.2,4.99a2.15,2.15,0,0,1,4.3,0,0.624,0.624,0,0,1-.6.61,0.564,0.564,0,0,1-.6-0.61,0.9,0.9,0,1,0-1.8,0,0.649,0.649,0,0,1-.7.61A0.624,0.624,0,0,1,10339.4,2922.21Zm-6.8,0a2.15,2.15,0,0,1,4.3,0,0.624,0.624,0,0,1-.6.61,0.564,0.564,0,0,1-.6-0.61,0.9,0.9,0,1,0-1.8,0,0.649,0.649,0,0,1-.7.61A0.624,0.624,0,0,1,10332.6,2922.21Zm-0.2,5.47a0.687,0.687,0,0,1,.4-0.96,0.372,0.372,0,0,1,.2-0.05,0.736,0.736,0,0,1,.7.45,4.774,4.774,0,0,0,8.6,0,0.714,0.714,0,1,1,1.3.58A6.156,6.156,0,0,1,10332.4,2927.68Z" transform="translate(-10325 -2912)"/>
</svg>
