<svg xmlns="http://www.w3.org/2000/svg" width="22" height="22" viewBox="0 0 22 22">
  <metadata><?xpacket begin="﻿" id="W5M0MpCehiHzreSzNTczkc9d"?>
<x:xmpmeta xmlns:x="adobe:ns:meta/" x:xmptk="Adobe XMP Core 5.6-c138 79.159824, 2016/09/14-01:09:01        ">
   <rdf:RDF xmlns:rdf="http://www.w3.org/1999/02/22-rdf-syntax-ns#">
      <rdf:Description rdf:about=""/>
   </rdf:RDF>
</x:xmpmeta>
                                                                                                    
                                                                                                    
                                                                                                    
                                                                                                    
                                                                                                    
                                                                                                    
                                                                                                    
                                                                                                    
                                                                                                    
                                                                                                    
                                                                                                    
                                                                                                    
                                                                                                    
                                                                                                    
                                                                                                    
                                                                                                    
                                                                                                    
                                                                                                    
                                                                                                    
                                                                                                    
                           
<?xpacket end="w"?></metadata>
<defs>
    <style>
      .cls-1 {
        fill: #36ffb1;
        fill-rule: evenodd;
      }
    </style>
  </defs>
  <path id="Forma_1" data-name="Forma 1" class="cls-1" d="M3084,28478a11,11,0,1,0,11,11A10.968,10.968,0,0,0,3084,28478Zm6.35,7.5h0l-8,8.4a0.422,0.422,0,0,1-.35.1,0.374,0.374,0,0,1-.35-0.1l-3.9-4.2-0.1-.2a0.3,0.3,0,0,1-.15-0.3,0.432,0.432,0,0,1,.15-0.3l0.7-.7a0.483,0.483,0,0,1,.7,0h0.05l2.75,2.9c0.1,0.2.25,0.2,0.35,0l6.7-6.9h0.05a0.483,0.483,0,0,1,.7,0l0.7,0.7A0.372,0.372,0,0,1,3090.35,28485.5Z" transform="translate(-3073 -28478)"/>
</svg>
