<svg xmlns="http://www.w3.org/2000/svg" width="16" height="19" viewBox="0 0 16 19">
    <metadata><?xpacket begin="﻿" id="W5M0MpCehiHzreSzNTczkc9d"?>
        <x:xmpmeta xmlns:x="adobe:ns:meta/" x:xmptk="Adobe XMP Core 5.6-c138 79.159824, 2016/09/14-01:09:01        ">
            <rdf:RDF xmlns:rdf="http://www.w3.org/1999/02/22-rdf-syntax-ns#">
                <rdf:Description rdf:about=""/>
            </rdf:RDF>
        </x:xmpmeta>


        <?xpacket end="w"?>
    </metadata>
    <defs>
        <style>
            .cls-1 {
            fill: #3fc692;
            fill-rule: evenodd;
            }
        </style>
    </defs>
    <path id="Forma_1_copy_14" data-name="Forma 1 copy 14" class="cls-1"
          d="M12024.2,1320a0.59,0.59,0,0,1-.5-0.25l-6.7-7.35-6.6,7.35a0.943,0.943,0,0,1-.9.21,0.724,0.724,0,0,1-.5-0.67v-17.58a0.726,0.726,0,0,1,.8-0.71h14.4a0.726,0.726,0,0,1,.8.71v17.58a0.724,0.724,0,0,1-.5.67A1.032,1.032,0,0,1,12024.2,1320Zm-7.2-9.41a0.977,0.977,0,0,1,.6.25l5.9,6.5v-14.92h-13v14.92l5.9-6.5A0.977,0.977,0,0,1,12017,1310.59Z"
          transform="translate(-12009 -1301)"/>
</svg>
