<svg xmlns="http://www.w3.org/2000/svg" width="129" height="82" viewBox="0 0 129 82">
  <metadata><?xpacket begin="﻿" id="W5M0MpCehiHzreSzNTczkc9d"?>
<x:xmpmeta xmlns:x="adobe:ns:meta/" x:xmptk="Adobe XMP Core 5.6-c138 79.159824, 2016/09/14-01:09:01        ">
   <rdf:RDF xmlns:rdf="http://www.w3.org/1999/02/22-rdf-syntax-ns#">
      <rdf:Description rdf:about=""/>
   </rdf:RDF>
</x:xmpmeta>
                                                                                                    
                                                                                                    
                                                                                                    
                                                                                                    
                                                                                                    
                                                                                                    
                                                                                                    
                                                                                                    
                                                                                                    
                                                                                                    
                                                                                                    
                                                                                                    
                                                                                                    
                                                                                                    
                                                                                                    
                                                                                                    
                                                                                                    
                                                                                                    
                                                                                                    
                                                                                                    
                           
<?xpacket end="w"?></metadata>
<defs>
    <style>
      .cls-1 {
        fill: #3fc692;
        fill-rule: evenodd;
      }
    </style>
  </defs>
  <path class="cls-1" d="M5195.86,24968.2c-2.54-5.3-11.59-12.8-20.34-20-4.88-4-9.49-7.8-12.44-10.8a2.475,2.475,0,0,0-2.81-.6,35.113,35.113,0,0,0-3.81,1.5,6.721,6.721,0,0,1-3.6,1,3.026,3.026,0,0,0-1.97,1.2c-3.8,5.8-7.74,5.3-10.36,4.4a1.161,1.161,0,0,1-1.07-1c-0.57-2.4,2.27-8,5.94-11.7,8.73-8.9,13.24-11.1,22.75-6.8,10.79,4.9,21.61,8.8,21.71,8.8a2.629,2.629,0,0,0,3.43-1.7,2.791,2.791,0,0,0-1.66-3.5c-0.11,0-10.71-3.8-21.28-8.6-12.33-5.6-19.09-1.9-28.75,7.9-3.68,3.8-8.67,11.3-7.38,16.9a6.593,6.593,0,0,0,4.62,4.9c6.09,2.1,11.65.1,15.78-5.5a10.617,10.617,0,0,0,4.04-1.3c0.51-.2,1.1-0.5,1.88-0.8,3.08,2.9,7.23,6.4,11.6,9.9,7.9,6.6,16.86,13.9,18.87,18.2a3.208,3.208,0,0,1-.8,4.1c-1.06.9-2.52,1.2-3.31,0.7a2.4,2.4,0,0,0-2.9-.1,2.623,2.623,0,0,0-1.3,2.6c0.19,1.7-1.38,2.7-2.05,3.1-1.72.9-3.52,0.7-4.19,0.1a2.858,2.858,0,0,0-2.79-.6,2.8,2.8,0,0,0-1.72,2.3,5.233,5.233,0,0,1-3.17,4.2,2.832,2.832,0,0,1-3.09-.5,2.734,2.734,0,0,0-2.45-.6,2.542,2.542,0,0,0-1.89,1.7c-0.1.3-.34,0.9-2.85,0.9a14.863,14.863,0,0,1-6.59-2.3c-1.88-1.2-13.71-10.2-23.93-18.9-1.44-1.2-3.92-3.9-6.11-6.2-1.95-2.1-3.73-3.9-4.64-4.7a2.6,2.6,0,0,0-3.79.3,2.825,2.825,0,0,0,.32,3.9c0.83,0.7,2.44,2.4,4.22,4.3,2.4,2.5,4.88,5.2,6.54,6.6,10.01,8.5,22.04,17.7,24.44,19.3,1.98,1.3,6.24,3.2,9.54,3.2a9.175,9.175,0,0,0,6.1-1.8,8.591,8.591,0,0,0,6.11-.1,10.9,10.9,0,0,0,5.6-5.2,10.788,10.788,0,0,0,6.74-1,13.909,13.909,0,0,1,10.66-7A8.9,8.9,0,0,0,5195.86,24968.2Zm-48.11-45.3h-24.19a2.772,2.772,0,0,0-2.68,2.8,2.685,2.685,0,0,0,2.68,2.7h24.19a2.693,2.693,0,0,0,2.69-2.7A2.78,2.78,0,0,0,5147.75,24922.9Zm55.98,39.5a2.647,2.647,0,0,0-3.73-.7l-7.86,5.3a2.789,2.789,0,0,0-.73,3.8,2.635,2.635,0,0,0,2.24,1.2,2.677,2.677,0,0,0,1.49-.4l7.86-5.4A2.754,2.754,0,0,0,5203.73,24962.4Zm-16.68,13.1c-1.93-1.6-10.53-10.6-15.85-16.2a2.687,2.687,0,0,0-3.8-.1,2.81,2.81,0,0,0-.09,3.9c1.39,1.5,13.57,14.4,16.4,16.6a2.628,2.628,0,0,0,1.66.6,2.6,2.6,0,0,0,2.12-1A2.716,2.716,0,0,0,5187.05,24975.5Zm-10.74,5.4c-3.22-2.6-11.31-11.3-13.14-13.3a2.605,2.605,0,0,0-3.8-.2,2.805,2.805,0,0,0-.16,3.9c0.1,0.1,9.75,10.7,13.74,13.9a2.655,2.655,0,0,0,1.67.6,2.921,2.921,0,0,0,2.11-1A2.856,2.856,0,0,0,5176.31,24980.9Zm-10.7,5.5c-3.83-3.2-11.67-11.7-13.2-13.4a2.613,2.613,0,0,0-3.81-.1,2.7,2.7,0,0,0-.13,3.8c2.21,2.4,9.71,10.5,13.67,13.9a2.408,2.408,0,0,0,1.73.7A2.789,2.789,0,0,0,5165.61,24986.4Zm-40.2-68.2c-4.6-4.4-23.03-5.9-28.56-6.2a2.875,2.875,0,0,0-2.01.7,3.069,3.069,0,0,0-.84,2v49.2a2.774,2.774,0,0,0,2.69,2.8h16.12a2.756,2.756,0,0,0,2.56-1.9c0.39-1.2,9.65-30.2,10.87-44.4A2.773,2.773,0,0,0,5125.41,24918.2Zm-14.56,43h-11.47v-43.5c8.63,0.7,17.95,2.2,21.34,3.8C5119.29,24933.5,5112.85,24954.8,5110.85,24961.2Zm109.46-43.7c-21.1,0-32.81,5.5-33.3,5.7a2.515,2.515,0,0,0-1.43,1.7,2.784,2.784,0,0,0,.29,2.2c3.33,5.4,13.73,35.7,15.73,43a2.67,2.67,0,0,0,2.59,2h16.12a2.687,2.687,0,0,0,2.69-2.7v-49.2A2.687,2.687,0,0,0,5220.31,24917.5Zm-2.69,49.2H5206.2c-2.55-8.5-10.08-30.5-14.27-39.6,4.1-1.4,12.91-3.8,25.69-4.1v43.7Z" transform="translate(-5094 -24912)"/>
</svg>
