<svg xmlns="http://www.w3.org/2000/svg" width="52" height="35" viewBox="0 0 52 35">
  <metadata><?xpacket begin="﻿" id="W5M0MpCehiHzreSzNTczkc9d"?>
<x:xmpmeta xmlns:x="adobe:ns:meta/" x:xmptk="Adobe XMP Core 5.6-c138 79.159824, 2016/09/14-01:09:01        ">
   <rdf:RDF xmlns:rdf="http://www.w3.org/1999/02/22-rdf-syntax-ns#">
      <rdf:Description rdf:about=""/>
   </rdf:RDF>
</x:xmpmeta>
                                                                                                    
                                                                                                    
                                                                                                    
                                                                                                    
                                                                                                    
                                                                                                    
                                                                                                    
                                                                                                    
                                                                                                    
                                                                                                    
                                                                                                    
                                                                                                    
                                                                                                    
                                                                                                    
                                                                                                    
                                                                                                    
                                                                                                    
                                                                                                    
                                                                                                    
                                                                                                    
                           
<?xpacket end="w"?></metadata>
<defs>
    <style>
      .cls-1 {
        fill-rule: evenodd;
      }
    </style>
  </defs>
  <path id="Forma_1" data-name="Forma 1" class="cls-1" d="M10130.7,3875.58h-0.8v-6.51a4.061,4.061,0,0,0-4.1-4.07h-27.6a4.061,4.061,0,0,0-4.1,4.07v6.51h-0.8a7.341,7.341,0,0,0-7.3,7.33v11.39h1.6v5.7h4.1v-5.7h40.6v5.7h4.1v-5.7h1.6v-11.39A7.341,7.341,0,0,0,10130.7,3875.58Zm-34.9-6.51a2.372,2.372,0,0,1,2.4-2.44h27.6a2.372,2.372,0,0,1,2.4,2.44v6.51h-2.4v-3.25a2.444,2.444,0,0,0-2.4-2.45h-7.3a2.465,2.465,0,0,0-2.5,2.45v3.25h-3.2v-3.25a2.465,2.465,0,0,0-2.5-2.45h-7.3a2.444,2.444,0,0,0-2.4,2.45v3.25h-2.4v-6.51Zm28.4,3.26v3.25h-9v-3.25a0.863,0.863,0,0,1,.9-0.82h7.3A0.841,0.841,0,0,1,10124.2,3872.33Zm-15.4,0v3.25h-9v-3.25a0.841,0.841,0,0,1,.8-0.82h7.3A0.863,0.863,0,0,1,10108.8,3872.33Zm-18.7,26.04h-0.9v-4.07h0.9v4.07Zm44.6,0h-0.8v-4.07h0.8v4.07Zm1.7-5.7h-48.8v-4.07h48.8v4.07Zm0-5.69h-48.8v-4.07a5.73,5.73,0,0,1,5.7-5.7h37.4a5.73,5.73,0,0,1,5.7,5.7v4.07Z" transform="translate(-10086 -3865)"/>
</svg>
