<svg xmlns="http://www.w3.org/2000/svg" width="18" height="19" viewBox="0 0 18 19">
    <metadata><?xpacket begin="﻿" id="W5M0MpCehiHzreSzNTczkc9d"?>
        <x:xmpmeta xmlns:x="adobe:ns:meta/" x:xmptk="Adobe XMP Core 5.6-c138 79.159824, 2016/09/14-01:09:01        ">
            <rdf:RDF xmlns:rdf="http://www.w3.org/1999/02/22-rdf-syntax-ns#">
                <rdf:Description rdf:about=""/>
            </rdf:RDF>
        </x:xmpmeta>


        <?xpacket end="w"?>
    </metadata>
    <defs>
        <style>
            .cls-1 {
            fill: #cbcbcb;
            fill-rule: evenodd;
            }
        </style>
    </defs>
    <path id="Forma_1_copy_9" data-name="Forma 1 copy 9" class="cls-1"
          d="M10838.5,4070.48a0.428,0.428,0,0,0-.4-0.43h-1.5a0.428,0.428,0,0,0-.4.43v1.51a0.428,0.428,0,0,0,.4.43h1.5a0.428,0.428,0,0,0,.4-0.43v-1.51h0Zm3.6,0a0.372,0.372,0,0,0-.4-0.43h-1.4a0.453,0.453,0,0,0-.5.43v1.51a0.453,0.453,0,0,0,.5.43h1.4a0.372,0.372,0,0,0,.4-0.43v-1.51Zm3.7,0a0.428,0.428,0,0,0-.4-0.43h-1.5a0.428,0.428,0,0,0-.4.43v1.51a0.428,0.428,0,0,0,.4.43h1.5a0.428,0.428,0,0,0,.4-0.43v-1.51Zm-7.3,3.76a0.436,0.436,0,0,0-.4-0.43h-1.5a0.436,0.436,0,0,0-.4.43v1.51a0.428,0.428,0,0,0,.4.43h1.5a0.428,0.428,0,0,0,.4-0.43v-1.51h0Zm3.6,0a0.376,0.376,0,0,0-.4-0.43h-1.4a0.459,0.459,0,0,0-.5.43v1.51a0.453,0.453,0,0,0,.5.43h1.4a0.372,0.372,0,0,0,.4-0.43v-1.51Zm3.7,0a0.436,0.436,0,0,0-.4-0.43h-1.5a0.436,0.436,0,0,0-.4.43v1.51a0.428,0.428,0,0,0,.4.43h1.5a0.428,0.428,0,0,0,.4-0.43v-1.51h0Zm2.6-12.12v2.29a1.836,1.836,0,0,1-1.8,1.88h-1.2a1.836,1.836,0,0,1-1.8-1.88v-2.3h-5.2v2.3a1.836,1.836,0,0,1-1.8,1.88h-1.2a1.836,1.836,0,0,1-1.8-1.88v-2.29a1.66,1.66,0,0,0-1.6,1.7v13.47a1.65,1.65,0,0,0,1.6,1.71h14.7a1.733,1.733,0,0,0,1.7-1.71v-13.47A1.66,1.66,0,0,0,10848.4,4062.12Zm-0.5,14.33a0.8,0.8,0,0,1-.8.73h-12.3a0.709,0.709,0,0,1-.7-0.73v-6.96a0.711,0.711,0,0,1,.7-0.74h12.3a0.8,0.8,0,0,1,.8.74v6.96h0Zm-12.5-11.39h1.2a0.647,0.647,0,0,0,.6-0.65v-3.77a0.645,0.645,0,0,0-.6-0.64h-1.2a0.645,0.645,0,0,0-.6.64v3.77A0.647,0.647,0,0,0,10835.4,4065.06Zm10,0h1.1a0.667,0.667,0,0,0,.7-0.65v-3.77a0.666,0.666,0,0,0-.7-0.64h-1.1a0.645,0.645,0,0,0-.6.64v3.77A0.647,0.647,0,0,0,10845.4,4065.06Z"
          transform="translate(-10832 -4060)"/>
</svg>
