<svg xmlns="http://www.w3.org/2000/svg" width="27.031" height="23" viewBox="0 0 27.031 23">
    <metadata><?xpacket begin="﻿" id="W5M0MpCehiHzreSzNTczkc9d"?>
        <x:xmpmeta xmlns:x="adobe:ns:meta/" x:xmptk="Adobe XMP Core 5.6-c138 79.159824, 2016/09/14-01:09:01        ">
            <rdf:RDF xmlns:rdf="http://www.w3.org/1999/02/22-rdf-syntax-ns#">
                <rdf:Description rdf:about=""/>
            </rdf:RDF>
        </x:xmpmeta>


        <?xpacket end="w"?>
    </metadata>
    <defs>
        <style>
            .cls-1 {
            fill-rule: evenodd;
            }
        </style>
    </defs>
    <path id="Forma_1" data-name="Forma 1" class="cls-1"
          d="M401.754,20961.9a1.685,1.685,0,0,0-1.615,1.7,1.616,1.616,0,0,0,3.232,0A1.687,1.687,0,0,0,401.754,20961.9Zm0,2.5a0.841,0.841,0,0,1-.824-0.8,0.827,0.827,0,1,1,1.648,0A0.841,0.841,0,0,1,401.754,20964.4Zm4.211-2.5a1.686,1.686,0,0,0-1.615,1.7,1.616,1.616,0,0,0,3.231,0A1.685,1.685,0,0,0,405.965,20961.9Zm0,2.5a0.84,0.84,0,0,1-.822-0.8,0.827,0.827,0,1,1,1.647,0A0.842,0.842,0,0,1,405.965,20964.4Zm4.214-2.5a1.684,1.684,0,0,0-1.615,1.7,1.615,1.615,0,0,0,3.23,0A1.685,1.685,0,0,0,410.179,20961.9Zm0,2.5a0.842,0.842,0,0,1-.825-0.8,0.827,0.827,0,1,1,1.647,0A0.84,0.84,0,0,1,410.179,20964.4Zm-8.425,1.5a1.685,1.685,0,0,0-1.615,1.7,1.616,1.616,0,0,0,3.232,0A1.687,1.687,0,0,0,401.754,20965.9Zm0,2.5a0.841,0.841,0,0,1-.824-0.8,0.827,0.827,0,1,1,1.648,0A0.841,0.841,0,0,1,401.754,20968.4Zm8.425-2.5a1.684,1.684,0,0,0-1.615,1.7,1.615,1.615,0,0,0,3.23,0A1.685,1.685,0,0,0,410.179,20965.9Zm0,2.5a0.842,0.842,0,0,1-.825-0.8,0.827,0.827,0,1,1,1.647,0A0.84,0.84,0,0,1,410.179,20968.4Zm-4.214-2.5a1.686,1.686,0,0,0-1.615,1.7,1.616,1.616,0,0,0,3.231,0A1.685,1.685,0,0,0,405.965,20965.9Zm0,2.5a0.84,0.84,0,0,1-.822-0.8,0.827,0.827,0,1,1,1.647,0A0.842,0.842,0,0,1,405.965,20968.4Zm0,1.5a1.686,1.686,0,0,0-1.615,1.7,1.616,1.616,0,0,0,3.231,0A1.685,1.685,0,0,0,405.965,20969.9Zm0,2.5a0.84,0.84,0,0,1-.822-0.8,0.827,0.827,0,1,1,1.647,0A0.842,0.842,0,0,1,405.965,20972.4Zm-4.211-2.5a1.685,1.685,0,0,0-1.615,1.7,1.616,1.616,0,0,0,3.232,0A1.687,1.687,0,0,0,401.754,20969.9Zm0,2.5a0.841,0.841,0,0,1-.824-0.8,0.827,0.827,0,1,1,1.648,0A0.841,0.841,0,0,1,401.754,20972.4Zm-3.651-8.8,0.581-.6a0.447,0.447,0,0,0,0-.6,0.56,0.56,0,0,0-.56,0l-0.583.6-0.582-.6a0.558,0.558,0,0,0-.559,0,0.445,0.445,0,0,0,0,.6l0.581,0.6-0.581.6a0.327,0.327,0,0,0,0,.5,0.441,0.441,0,0,0,.559,0l0.582-.6,0.583,0.6a0.442,0.442,0,0,0,.56,0,0.328,0.328,0,0,0,0-.5Zm0,4,0.581-.6a0.447,0.447,0,0,0,0-.6,0.336,0.336,0,0,0-.56,0l-0.583.6-0.582-.6a0.335,0.335,0,0,0-.559,0,0.445,0.445,0,0,0,0,.6l0.581,0.6-0.581.6a0.327,0.327,0,0,0,0,.5,0.441,0.441,0,0,0,.559,0l0.582-.6,0.583,0.6a0.442,0.442,0,0,0,.56,0,0.328,0.328,0,0,0,0-.5Zm0.581,4.5-0.581-.5,0.581-.6a0.447,0.447,0,0,0,0-.6,0.336,0.336,0,0,0-.56,0l-0.583.6-0.582-.6a0.335,0.335,0,0,0-.559,0,0.445,0.445,0,0,0,0,.6l0.581,0.6-0.581.5a0.441,0.441,0,0,0,0,.6,0.441,0.441,0,0,0,.559,0l0.582-.6,0.583,0.6a0.442,0.442,0,0,0,.56,0A0.443,0.443,0,0,0,398.684,20972.1Zm20.332,1.2-1.081-5.7a0.356,0.356,0,0,0-.461-0.3,0.326,0.326,0,0,0-.315.4l1.08,5.8a0.542,0.542,0,0,1-.574.6H411.8l3.8-3.8a0.528,0.528,0,0,0,.118-0.3v-9.9l1.086,5.8a0.434,0.434,0,0,0,.463.3,0.482,0.482,0,0,0,.315-0.5l-1.867-9.9a1.134,1.134,0,0,0-1.1-1.1h-3.47v-1.3a0.4,0.4,0,1,0-.793,0v1.3H407.7v-1.3a0.4,0.4,0,1,0-.792,0v1.3h-2.652v-1.3a0.4,0.4,0,1,0-.792,0v1.3h-2.654v-1.3a0.4,0.4,0,1,0-.792,0v1.3h-2.652v-1.3a0.4,0.4,0,1,0-.794,0v1.3H393.1a1.107,1.107,0,0,0-1.1,1.1v19.1a1.107,1.107,0,0,0,1.1,1.1h9.832a0.4,0.4,0,0,0,0-.8H393.1a0.286,0.286,0,0,1-.311-0.3v-15h22.135v9.7h-4.445a1.106,1.106,0,0,0-1.1,1.1v4.5h-4.6a0.4,0.4,0,0,0,0,.8h4.992a0.3,0.3,0,0,0,.279-0.1l0.956-1h6.654A1.332,1.332,0,0,0,419.016,20973.3Zm-26.223-14.2v-3.3a0.286,0.286,0,0,1,.311-0.3h3.469v1.8a0.4,0.4,0,1,0,.794,0v-1.8h2.652v1.8a0.4,0.4,0,1,0,.792,0v-1.8h2.654v1.8a0.4,0.4,0,1,0,.792,0v-1.8h2.652v1.8a0.4,0.4,0,1,0,.792,0v-1.8h2.653v1.8a0.4,0.4,0,1,0,.793,0v-1.8h3.47a0.286,0.286,0,0,1,.311.3v3.3H392.793Zm17.378,15.5v-3.9a0.286,0.286,0,0,1,.312-0.3h3.884C413.972,20970.8,410.569,20974.2,410.171,20974.6Z"
          transform="translate(-392 -20953)"/>
</svg>
