<svg xmlns="http://www.w3.org/2000/svg" width="32" height="22" viewBox="0 0 32 22">
  <metadata><?xpacket begin="﻿" id="W5M0MpCehiHzreSzNTczkc9d"?>
<x:xmpmeta xmlns:x="adobe:ns:meta/" x:xmptk="Adobe XMP Core 5.6-c138 79.159824, 2016/09/14-01:09:01        ">
   <rdf:RDF xmlns:rdf="http://www.w3.org/1999/02/22-rdf-syntax-ns#">
      <rdf:Description rdf:about=""/>
   </rdf:RDF>
</x:xmpmeta>
                                                                                                    
                                                                                                    
                                                                                                    
                                                                                                    
                                                                                                    
                                                                                                    
                                                                                                    
                                                                                                    
                                                                                                    
                                                                                                    
                                                                                                    
                                                                                                    
                                                                                                    
                                                                                                    
                                                                                                    
                                                                                                    
                                                                                                    
                                                                                                    
                                                                                                    
                                                                                                    
                           
<?xpacket end="w"?></metadata>
<defs>
    <style>
      .cls-1 {
        fill-rule: evenodd;
      }
    </style>
  </defs>
  <path id="Forma_1" data-name="Forma 1" class="cls-1" d="M419.5,20901.7H419v-4.1a2.513,2.513,0,0,0-2.5-2.6h-17a2.513,2.513,0,0,0-2.5,2.6v4.1h-0.5a4.516,4.516,0,0,0-4.5,4.6v7.1h1v3.6h2.5v-3.6h25v3.6H423v-3.6h1v-7.1A4.516,4.516,0,0,0,419.5,20901.7Zm-21.5-4.1a1.542,1.542,0,0,1,1.5-1.6h17a1.541,1.541,0,0,1,1.5,1.6v4.1h-1.5v-2.1a1.519,1.519,0,0,0-1.5-1.5h-4.5a1.519,1.519,0,0,0-1.5,1.5v2.1h-2v-2.1a1.519,1.519,0,0,0-1.5-1.5H401a1.519,1.519,0,0,0-1.5,1.5v2.1H398v-4.1Zm17.5,2v2.1H410v-2.1a0.485,0.485,0,0,1,.5-0.5H415A0.486,0.486,0,0,1,415.5,20899.6Zm-9.5,0v2.1h-5.5v-2.1a0.485,0.485,0,0,1,.5-0.5h4.5A0.485,0.485,0,0,1,406,20899.6Zm-11.5,16.4H394v-2.6h0.5v2.6Zm27.5,0h-0.5v-2.6H422v2.6Zm1-3.6H393v-2.6h30v2.6Zm0-3.6H393v-2.5a3.544,3.544,0,0,1,3.5-3.6h23a3.546,3.546,0,0,1,3.5,3.6v2.5Z" transform="translate(-392 -20895)"/>
</svg>
