<svg xmlns="http://www.w3.org/2000/svg" width="64" height="64" viewBox="0 0 64 64">
    <metadata><?xpacket begin="﻿" id="W5M0MpCehiHzreSzNTczkc9d"?>
        <x:xmpmeta xmlns:x="adobe:ns:meta/" x:xmptk="Adobe XMP Core 5.6-c138 79.159824, 2016/09/14-01:09:01        ">
            <rdf:RDF xmlns:rdf="http://www.w3.org/1999/02/22-rdf-syntax-ns#">
                <rdf:Description rdf:about=""/>
            </rdf:RDF>
        </x:xmpmeta>


        <?xpacket end="w"?>
    </metadata>
    <defs>
        <style>
            .cls-1 {
            fill: #aaa;
            fill-rule: evenodd;
            }
        </style>
    </defs>
    <path id="Shape_192_copy_5" data-name="Shape 192 copy 5" class="cls-1"
          d="M420,21713a32.048,32.048,0,1,0,22.627,9.4A31.582,31.582,0,0,0,420,21713Zm21.211,53.2A29.96,29.96,0,1,1,450,21745,29.672,29.672,0,0,1,441.211,21766.2Zm-17.981-30.8-8.953,8.9,8.953,9a0.995,0.995,0,0,1-1.413,1.4l-9.524-9.5a1.074,1.074,0,0,1-.268-0.9,0.876,0.876,0,0,1,.268-0.8l9.524-9.5A0.995,0.995,0,0,1,423.23,21735.4Z"
          transform="translate(-388 -21713)"/>
</svg>
