<?xml version="1.0" encoding="UTF-8"?>
<svg xmlns="http://www.w3.org/2000/svg" xmlns:xlink="http://www.w3.org/1999/xlink" width="20pt" height="20pt" viewBox="0 0 25 25" version="1.1">
<g id="surface1">
<path style=" stroke:none;fill-rule:nonzero;fill:rgb(0%,0%,0%);fill-opacity:1;" d="M 16.355469 0 C 11.695312 0 7.90625 3.789062 7.90625 8.449219 C 7.90625 9.484375 8.089844 10.492188 8.453125 11.449219 L 0.375 19.527344 C 0.257812 19.644531 0.195312 19.800781 0.195312 19.964844 L 0.195312 24.382812 C 0.195312 24.722656 0.46875 25 0.808594 25 L 4.453125 25 C 4.617188 25 4.773438 24.933594 4.886719 24.820312 L 6.117188 23.59375 C 6.230469 23.480469 6.296875 23.320312 6.296875 23.160156 L 6.296875 21.652344 L 7.800781 21.652344 C 8.144531 21.652344 8.417969 21.375 8.417969 21.035156 L 8.417969 20.429688 L 9.023438 20.429688 C 9.363281 20.429688 9.636719 20.15625 9.636719 19.816406 L 9.636719 18.492188 L 10.960938 18.492188 C 11.125 18.492188 11.28125 18.425781 11.398438 18.308594 L 13.355469 16.351562 C 14.3125 16.714844 15.320312 16.898438 16.355469 16.898438 C 21.015625 16.898438 24.804688 13.109375 24.804688 8.449219 C 24.804688 3.789062 21.015625 0 16.355469 0 Z M 16.355469 15.667969 C 15.347656 15.667969 14.375 15.464844 13.457031 15.0625 C 13.222656 14.957031 12.957031 15.015625 12.78125 15.1875 C 12.78125 15.1875 12.777344 15.1875 12.777344 15.191406 L 10.707031 17.257812 L 9.023438 17.257812 C 8.683594 17.257812 8.40625 17.535156 8.40625 17.875 L 8.40625 19.199219 L 7.804688 19.199219 C 7.460938 19.199219 7.1875 19.476562 7.1875 19.816406 L 7.1875 20.417969 L 5.679688 20.417969 C 5.339844 20.417969 5.066406 20.695312 5.066406 21.035156 L 5.066406 22.902344 L 4.199219 23.769531 L 1.425781 23.769531 L 1.425781 22.898438 L 8.953125 15.371094 C 9.167969 15.15625 9.167969 14.804688 8.953125 14.589844 C 8.734375 14.371094 8.386719 14.371094 8.167969 14.589844 L 1.425781 21.332031 L 1.425781 20.21875 L 9.613281 12.03125 C 9.617188 12.027344 9.617188 12.027344 9.617188 12.023438 C 9.789062 11.851562 9.847656 11.582031 9.742188 11.347656 C 9.339844 10.433594 9.136719 9.457031 9.136719 8.449219 C 9.136719 4.46875 12.375 1.230469 16.355469 1.230469 C 20.335938 1.230469 23.574219 4.46875 23.574219 8.449219 C 23.574219 12.429688 20.335938 15.667969 16.355469 15.667969 Z M 16.355469 15.667969 "/>
<path style=" stroke:none;fill-rule:nonzero;fill:rgb(0%,0%,0%);fill-opacity:1;" d="M 18.925781 3.570312 C 17.65625 3.570312 16.621094 4.605469 16.621094 5.878906 C 16.621094 7.148438 17.65625 8.183594 18.925781 8.183594 C 20.199219 8.183594 21.234375 7.148438 21.234375 5.878906 C 21.234375 4.605469 20.199219 3.570312 18.925781 3.570312 Z M 18.925781 6.953125 C 18.335938 6.953125 17.851562 6.472656 17.851562 5.878906 C 17.851562 5.285156 18.335938 4.804688 18.925781 4.804688 C 19.519531 4.804688 20.003906 5.285156 20.003906 5.878906 C 20.003906 6.472656 19.519531 6.953125 18.925781 6.953125 Z M 18.925781 6.953125 "/>
</g>
</svg>
