<svg xmlns="http://www.w3.org/2000/svg" width="24.969" height="25" viewBox="0 0 24.969 25">
  <metadata><?xpacket begin="﻿" id="W5M0MpCehiHzreSzNTczkc9d"?>
<x:xmpmeta xmlns:x="adobe:ns:meta/" x:xmptk="Adobe XMP Core 5.6-c138 79.159824, 2016/09/14-01:09:01        ">
   <rdf:RDF xmlns:rdf="http://www.w3.org/1999/02/22-rdf-syntax-ns#">
      <rdf:Description rdf:about=""/>
   </rdf:RDF>
</x:xmpmeta>
                                                                                                    
                                                                                                    
                                                                                                    
                                                                                                    
                                                                                                    
                                                                                                    
                                                                                                    
                                                                                                    
                                                                                                    
                                                                                                    
                                                                                                    
                                                                                                    
                                                                                                    
                                                                                                    
                                                                                                    
                                                                                                    
                                                                                                    
                                                                                                    
                                                                                                    
                                                                                                    
                           
<?xpacket end="w"?></metadata>
<defs>
    <style>
      .cls-1 {
        fill-rule: evenodd;
      }
    </style>
  </defs>
  <path id="Forma_1" data-name="Forma 1" class="cls-1" d="M911.858,20961.4l-3.741-3.4v-5.7h-4.308v1.7l-4.31-4-12.357,11.4a0.419,0.419,0,0,0-.022.6,0.383,0.383,0,0,0,.608,0l1.43-1.3v14.3h20.684v-14.3l1.428,1.3a0.46,0.46,0,0,0,.3.2,0.486,0.486,0,0,0,.316-0.2A0.423,0.423,0,0,0,911.858,20961.4Zm-7.188-8.2h2.585v4l-2.585-2.4v-1.6Zm-7.755,20.9v-9a0.415,0.415,0,0,1,.4-0.4h4.365a0.415,0.415,0,0,1,.4.4v9h-5.17Zm12.064,0h-6.033v-9a1.21,1.21,0,0,0-1.264-1.2h-4.365a1.21,1.21,0,0,0-1.264,1.2v9H890.02v-14.2l9.479-8.7,6.153,5.6,2.465,2.3h0l0.862,0.8v14.2Z" transform="translate(-887.031 -20950)"/>
</svg>
