<svg xmlns="http://www.w3.org/2000/svg" width="29" height="29" viewBox="0 0 29 29">
    <metadata><?xpacket begin="﻿" id="W5M0MpCehiHzreSzNTczkc9d"?>
        <x:xmpmeta xmlns:x="adobe:ns:meta/" x:xmptk="Adobe XMP Core 5.6-c138 79.159824, 2016/09/14-01:09:01        ">
            <rdf:RDF xmlns:rdf="http://www.w3.org/1999/02/22-rdf-syntax-ns#">
                <rdf:Description rdf:about=""/>
            </rdf:RDF>
        </x:xmpmeta>


        <?xpacket end="w"?>
    </metadata>
    <defs>
        <style>
            .cls-1 {
            fill: #2a2b32;
            fill-rule: evenodd;
            }
        </style>
    </defs>
    <path class="cls-1"
          d="M1181.5,22793a14.5,14.5,0,1,0,14.5,14.5A14.5,14.5,0,0,0,1181.5,22793Zm-3.77,7.9,3.06-3.1a1.038,1.038,0,0,1,.73-0.3h0.01a1.021,1.021,0,0,1,.73.3l3.06,3.1a0.95,0.95,0,0,1,0,1.4,1,1,0,0,1-.72.3,1.038,1.038,0,0,1-.73-0.3l-1.35-1.3v5.5a1.025,1.025,0,0,1-2.05,0v-5.5l-1.29,1.3a1.026,1.026,0,0,1-1.45,0A0.967,0.967,0,0,1,1177.73,22800.9Zm11.65,12.3h0c0,1.4-1.35,2.5-3.09,2.5h-9.58c-1.73,0-3.09-1.1-3.09-2.5v-6.6c0-1.4,1.35-2.5,3.09-2.5h2.25v2h-2.25a1,1,0,0,0-1.09.5v6.6a1,1,0,0,0,1.09.5h9.58a1,1,0,0,0,1.09-.5v-6.6a1,1,0,0,0-1.09-.5h-2.27v-2h2.27c1.74,0,3.09,1.1,3.09,2.5v6.6h0Z"
          transform="translate(-1167 -22793)"/>
</svg>
