<svg xmlns="http://www.w3.org/2000/svg" width="108" height="108" viewBox="0 0 108 108">
  <metadata><?xpacket begin="﻿" id="W5M0MpCehiHzreSzNTczkc9d"?>
<x:xmpmeta xmlns:x="adobe:ns:meta/" x:xmptk="Adobe XMP Core 5.6-c138 79.159824, 2016/09/14-01:09:01        ">
   <rdf:RDF xmlns:rdf="http://www.w3.org/1999/02/22-rdf-syntax-ns#">
      <rdf:Description rdf:about=""/>
   </rdf:RDF>
</x:xmpmeta>
                                                                                                    
                                                                                                    
                                                                                                    
                                                                                                    
                                                                                                    
                                                                                                    
                                                                                                    
                                                                                                    
                                                                                                    
                                                                                                    
                                                                                                    
                                                                                                    
                                                                                                    
                                                                                                    
                                                                                                    
                                                                                                    
                                                                                                    
                                                                                                    
                                                                                                    
                                                                                                    
                           
<?xpacket end="w"?></metadata>
<defs>
    <style>
      .cls-1 {
        fill: #49c998;
        fill-rule: evenodd;
      }
    </style>
  </defs>
  <path id="Forma_1" data-name="Forma 1" class="cls-1" d="M11836,5798.39v-0.1c0-.13-0.1-0.25-0.1-0.37,0-.1-0.1-0.21-0.1-0.31a0.422,0.422,0,0,0-.2-0.27,0.439,0.439,0,0,0-.2-0.28c-0.1-.03-0.1-0.06-0.1-0.09l-17.3-13.44v-13.94a5.39,5.39,0,0,0-5.4-5.4h-19.5l-7.8-6.06a5.374,5.374,0,0,0-6.6,0l-7.8,6.06h-19.5a5.39,5.39,0,0,0-5.4,5.4v13.94l-17.3,13.44c0,0.03,0,.06-0.1.09a0.439,0.439,0,0,0-.2.28,0.422,0.422,0,0,0-.2.27c0,0.1-.1.21-0.1,0.31,0,0.12-.1.24-0.1,0.36v61.32a4.951,4.951,0,0,0,.3,1.7,1.884,1.884,0,0,0,0,2.04,1.933,1.933,0,0,0,2,.66,5.328,5.328,0,0,0,3.1,1h97.2a5.338,5.338,0,0,0,3.1-1.01,2.152,2.152,0,0,0,.5.07,1.763,1.763,0,0,0,1.5-2.76,4.951,4.951,0,0,0,.3-1.7v-61.21h0Zm-55.1-37.42a1.8,1.8,0,0,1,2.2,0l4.1,3.22h-10.4Zm-47.1,100.43,47.1-36.57a1.828,1.828,0,0,1,2.2,0l47.1,36.57h-96.4Zm98.6-2.81-47.1-36.6a5.4,5.4,0,0,0-6.6,0l-47.1,36.6v-57.45l29.5,22.9a1.763,1.763,0,0,0,2.5-.32,1.787,1.787,0,0,0-.3-2.52l-30-23.27,12.7-9.84V5802a1.8,1.8,0,0,0,3.6,0v-32.41a1.8,1.8,0,0,1,1.8-1.8h61.2a1.8,1.8,0,0,1,1.8,1.8V5802a1.8,1.8,0,1,0,3.6,0v-13.91l12.7,9.84-30.1,23.31a1.827,1.827,0,0,0,2.3,2.84l29.5-22.94v57.45Zm-68.4-78.2h36a1.8,1.8,0,0,0,0-3.6h-36A1.8,1.8,0,1,0,11764,5780.39Zm37.8,9a1.8,1.8,0,0,0-1.8-1.8h-36a1.805,1.805,0,0,0,0,3.61h36A1.8,1.8,0,0,0,11801.8,5789.39Zm0,10.81a1.8,1.8,0,0,0-1.8-1.81h-16.2a1.805,1.805,0,0,0,0,3.61h16.2A1.8,1.8,0,0,0,11801.8,5800.2Z" transform="translate(-11728 -5757)"/>
</svg>
