<svg xmlns="http://www.w3.org/2000/svg" width="98" height="98" viewBox="0 0 98 98">
  <metadata><?xpacket begin="﻿" id="W5M0MpCehiHzreSzNTczkc9d"?>
<x:xmpmeta xmlns:x="adobe:ns:meta/" x:xmptk="Adobe XMP Core 5.6-c138 79.159824, 2016/09/14-01:09:01        ">
   <rdf:RDF xmlns:rdf="http://www.w3.org/1999/02/22-rdf-syntax-ns#">
      <rdf:Description rdf:about=""/>
   </rdf:RDF>
</x:xmpmeta>
                                                                                                    
                                                                                                    
                                                                                                    
                                                                                                    
                                                                                                    
                                                                                                    
                                                                                                    
                                                                                                    
                                                                                                    
                                                                                                    
                                                                                                    
                                                                                                    
                                                                                                    
                                                                                                    
                                                                                                    
                                                                                                    
                                                                                                    
                                                                                                    
                                                                                                    
                                                                                                    
                           
<?xpacket end="w"?></metadata>
<defs>
    <style>
      .cls-1 {
        fill: #3fc692;
        fill-rule: evenodd;
      }
    </style>
  </defs>
  <path class="cls-1" d="M10068,4682.44a8.1,8.1,0,0,0-8-6.77,8.364,8.364,0,0,0-7.4,4.57,3.786,3.786,0,0,0-.8-0.5V4652.8a1.6,1.6,0,0,0-1.6-1.63,1.692,1.692,0,0,0-1.7,1.63v26.13a6.535,6.535,0,0,0,0,13.07h18A4.9,4.9,0,0,0,10068,4682.44Zm-1.5,6.29h-18a3.266,3.266,0,0,1,0-6.53,3.529,3.529,0,0,1,3.4,2.21,1.606,1.606,0,0,0,1.8,1.03,1.666,1.666,0,0,0,1.4-1.61,4.9,4.9,0,0,1,9.8,0,1.614,1.614,0,0,0,1.6,1.64A1.63,1.63,0,0,1,10066.5,4688.73Zm71.9-81.66h-31.1a1.63,1.63,0,0,0,0,3.26h29.4v35.26l-44.5-44.58a1.74,1.74,0,0,0-2.4,0l-44.5,44.58v-35.26h17.9a1.692,1.692,0,0,0,1.7-1.63v-6.53a1.7,1.7,0,0,0-1.7-1.64h-1.6v-3.26h9.8v3.26h-1.6a1.7,1.7,0,0,0-1.7,1.64v6.53a1.692,1.692,0,0,0,1.7,1.63h4.9a1.63,1.63,0,0,0,0-3.26h-3.3v-3.27h1.6a1.692,1.692,0,0,0,1.7-1.63v-6.54a1.692,1.692,0,0,0-1.7-1.63h-13a1.692,1.692,0,0,0-1.7,1.63v6.54a1.692,1.692,0,0,0,1.7,1.63h1.6v3.27h-18a1.542,1.542,0,0,0-1.1.48,1.664,1.664,0,0,0-.5,1.15v40.83a1.641,1.641,0,0,0,1,1.51,1.444,1.444,0,0,0,.6.13,1.6,1.6,0,0,0,1.2-.48l46.2-46.22,46.2,46.22a1.6,1.6,0,0,0,1.2.48,1.444,1.444,0,0,0,.6-0.13,1.641,1.641,0,0,0,1-1.51V4608.7A1.6,1.6,0,0,0,10138.4,4607.07Zm-4.9,71.86V4652.8a1.692,1.692,0,0,0-1.7-1.63,1.6,1.6,0,0,0-1.6,1.63v26.94a3.786,3.786,0,0,0-.8.5,8.364,8.364,0,0,0-7.4-4.57,8.1,8.1,0,0,0-8,6.77,4.878,4.878,0,0,0-3.4,4.66,4.412,4.412,0,0,0,.3,1.63h-28.1a1.635,1.635,0,0,0,0,3.27h50.7A6.535,6.535,0,0,0,10133.5,4678.93Zm0,9.8h-18a1.63,1.63,0,0,1,0-3.26,1.614,1.614,0,0,0,1.6-1.64,4.9,4.9,0,0,1,9.8,0,1.666,1.666,0,0,0,1.4,1.61,1.606,1.606,0,0,0,1.8-1.03,3.529,3.529,0,0,1,3.4-2.21A3.266,3.266,0,0,1,10133.5,4688.73Zm-36-62.06a6.5,6.5,0,1,0-6.5,6.53A6.515,6.515,0,0,0,10097.5,4626.67Zm-9.8,0a3.3,3.3,0,1,1,3.3,3.26A3.3,3.3,0,0,1,10087.7,4626.67Zm34.3,22.86h-13a1.693,1.693,0,0,0-1.7,1.64v17.96h-1.6a1.635,1.635,0,0,0,0,3.27h19.6a1.635,1.635,0,0,0,0-3.27h-1.6v-17.96A1.693,1.693,0,0,0,10122,4649.53Zm-1.6,19.6h-9.8v-6.53h9.8v6.53Zm0-9.8h-9.8v-6.53h9.8v6.53Zm-13.1,24.5a1.6,1.6,0,0,0-1.6-1.63h-4.9v-31.03a1.614,1.614,0,0,0-1.6-1.64h-16.4a1.614,1.614,0,0,0-1.6,1.64v31.03h-4.9a1.6,1.6,0,0,0-1.6,1.63v6.54a1.6,1.6,0,1,0,3.2,0v-4.9h27.8A1.614,1.614,0,0,0,10107.3,4683.83Zm-9.8-17.96h-1.6a1.63,1.63,0,0,0,0,3.26h1.6v13.07h-13v-29.4h13v13.07Zm-24.5-16.34h-13a1.693,1.693,0,0,0-1.7,1.64v17.96h-1.6a1.635,1.635,0,0,0,0,3.27h19.6a1.635,1.635,0,0,0,0-3.27h-1.6v-17.96A1.693,1.693,0,0,0,10073,4649.53Zm-1.6,19.6h-9.8v-6.53h9.8v6.53Zm0-9.8h-9.8v-6.53h9.8v6.53Z" transform="translate(-10042 -4594)"/>
</svg>
