<svg xmlns="http://www.w3.org/2000/svg" width="83" height="119" viewBox="0 0 83 119">
  <metadata><?xpacket begin="﻿" id="W5M0MpCehiHzreSzNTczkc9d"?>
<x:xmpmeta xmlns:x="adobe:ns:meta/" x:xmptk="Adobe XMP Core 5.6-c138 79.159824, 2016/09/14-01:09:01        ">
   <rdf:RDF xmlns:rdf="http://www.w3.org/1999/02/22-rdf-syntax-ns#">
      <rdf:Description rdf:about=""/>
   </rdf:RDF>
</x:xmpmeta>
                                                                                                    
                                                                                                    
                                                                                                    
                                                                                                    
                                                                                                    
                                                                                                    
                                                                                                    
                                                                                                    
                                                                                                    
                                                                                                    
                                                                                                    
                                                                                                    
                                                                                                    
                                                                                                    
                                                                                                    
                                                                                                    
                                                                                                    
                                                                                                    
                                                                                                    
                                                                                                    
                           
<?xpacket end="w"?></metadata>
<defs>
    <style>
      .cls-1 {
        fill: #3fc692;
        fill-rule: evenodd;
      }
    </style>
  </defs>
  <path id="Forma_1" data-name="Forma 1" class="cls-1" d="M10102.4,5039h-39.5a9.9,9.9,0,0,0-9.9,9.92v71.4a9.886,9.886,0,0,0,9.9,9.91h35.6v-3.96h-35.6a5.9,5.9,0,0,1-5.9-5.95v-71.4a5.9,5.9,0,0,1,5.9-5.95h39.5a5.9,5.9,0,0,1,5.9,5.95v57.51h4v-57.51A9.9,9.9,0,0,0,10102.4,5039Zm28.8,52.83-19.3-24.32-3.1,2.48,19.3,24.32a17.44,17.44,0,0,1,3.9,11.15v48.57h-28.9a18.559,18.559,0,0,1-18.5-18.58v-7.2h-3.9v7.2a22.472,22.472,0,0,0,22.4,22.55h30.9a2,2,0,0,0,2-1.98v-50.56A21.84,21.84,0,0,0,10131.2,5091.83Zm-44.6-6.06a4.98,4.98,0,0,1,3.6,1.63l26.6,28.32,2.9-2.71-26.6-28.33a9.226,9.226,0,0,0-6.4-2.87,8.761,8.761,0,0,0-6.5,2.48c0,0.02-.2.17-0.2,0.2a9.135,9.135,0,0,0-.5,12.42l17,20.17v6.13a26.449,26.449,0,0,0,17.1,24.75l1.4-3.72a22.594,22.594,0,0,1-14.6-21.03v-6.86a1.938,1.938,0,0,0-.4-1.28l-17.5-20.72A5.212,5.212,0,0,1,10086.6,5085.77Zm9.9-42.8h3.9v49.58h-3.9v-49.58Zm-9.9,61.48h3.9v23.8h-3.9v-23.8Zm0-63.47h3.9v43.64h-3.9v-43.64Zm-23.7,7.94h3.9v25.78h-3.9v-25.78Zm9.9,0h3.9v15.86h-3.9v-15.86Zm3.9,55.53h-11.8a2,2,0,0,0-2,1.98v11.9a2,2,0,0,0,2,1.99h11.8a2,2,0,0,0,2-1.99v-11.9A2,2,0,0,0,10076.7,5104.45Zm-2,11.9h-7.9v-7.93h7.9v7.93Z" transform="translate(-10053 -5039)"/>
</svg>
