<svg xmlns="http://www.w3.org/2000/svg" width="109" height="99" viewBox="0 0 109 99">
  <metadata><?xpacket begin="﻿" id="W5M0MpCehiHzreSzNTczkc9d"?>
<x:xmpmeta xmlns:x="adobe:ns:meta/" x:xmptk="Adobe XMP Core 5.6-c138 79.159824, 2016/09/14-01:09:01        ">
   <rdf:RDF xmlns:rdf="http://www.w3.org/1999/02/22-rdf-syntax-ns#">
      <rdf:Description rdf:about=""/>
   </rdf:RDF>
</x:xmpmeta>
                                                                                                    
                                                                                                    
                                                                                                    
                                                                                                    
                                                                                                    
                                                                                                    
                                                                                                    
                                                                                                    
                                                                                                    
                                                                                                    
                                                                                                    
                                                                                                    
                                                                                                    
                                                                                                    
                                                                                                    
                                                                                                    
                                                                                                    
                                                                                                    
                                                                                                    
                                                                                                    
                           
<?xpacket end="w"?></metadata>
<defs>
    <style>
      .cls-1 {
        fill: #3fc692;
        fill-rule: evenodd;
      }
    </style>
  </defs>
  <path id="Forma_1" data-name="Forma 1" class="cls-1" d="M10141.1,5345.68a8.054,8.054,0,0,0-10.9-2.95c-0.7.34-9.6,4.68-16.9,7.75a1.578,1.578,0,0,0-.9,2.09,1.6,1.6,0,0,0,2.1.85c7.7-3.21,17-7.8,17.1-7.85,0.1-.01.1-0.03,0.1-0.05a4.854,4.854,0,0,1,6.6,1.76c1.5,2.64-.9,5.54-2,6.73-8,6.4-30.1,22.79-37.5,22.79-8.2,0-31.3-4.85-36.9-6.07v-26.08c11.2-1.63,17.1.42,29.5,4.72,3.8,1.31,8.1,2.79,13.3,4.44a3.46,3.46,0,0,1,2.1,4.26,3.87,3.87,0,0,1-4.5,2.8c-3.1-.59-21.7-3.1-22.5-3.21a1.586,1.586,0,0,0-1.8,1.37,1.544,1.544,0,0,0,1.3,1.8c0.2,0.02,19.3,2.6,22.4,3.18a8.187,8.187,0,0,0,1.4.13,7.279,7.279,0,0,0,6.8-5.15,6.622,6.622,0,0,0-4-8.13v-0.02c-0.1-.01-0.1-0.01-0.1-0.02s-0.1-.02-0.1-0.03c-5.2-1.64-9.5-3.13-13.2-4.44-12.4-4.29-18.9-6.55-30.6-4.92v-1.34a1.584,1.584,0,0,0-1.6-1.59h-4.8v-1.6a1.592,1.592,0,0,0-1.6-1.6h-19.3a1.592,1.592,0,0,0-1.6,1.6v35.12a1.6,1.6,0,0,0,3.2,0V5338.5h16.1v38.3h-3.2v-1.59a1.68,1.68,0,0,0-1.7-1.6,1.659,1.659,0,0,0-1.6,1.6v1.59h-11.2a1.6,1.6,0,1,0,0,3.2h19.3a1.592,1.592,0,0,0,1.6-1.6v-1.67h4.8a1.592,1.592,0,0,0,1.6-1.6V5374c6.7,1.45,28.6,6,36.9,6,4.4,0,12.2-3.89,23.8-11.89,8.4-5.77,15.7-11.61,15.7-11.67a1.983,1.983,0,0,0,.2-0.11C10142,5352.85,10142.9,5348.87,10141.1,5345.68Zm-82.4,26.31h0v1.54h-3.2v-31.84h3.2v30.3Zm63.6-74.49v-10.64a5.858,5.858,0,0,0-5.9-5.86h-34.2a5.858,5.858,0,0,0-5.9,5.86v10.64a1.133,1.133,0,0,0,.1.58l2,11.96-2.1,10.55v8.85a5.849,5.849,0,0,0,5.9,5.85h34.2a5.849,5.849,0,0,0,5.9-5.85v-8.52h0v-0.33l-2.1-10.34,2-12.18A1.114,1.114,0,0,0,10122.3,5297.5Zm-3.2,31.94a2.68,2.68,0,0,1-2.7,2.66h-34.2a2.68,2.68,0,0,1-2.7-2.66v-6.93h39.6v6.93h0Zm-2.2-19.05c0,0.02,0,.04.1,0.07v0.12l1.7,8.74h-5a14.456,14.456,0,0,0-11-12.56l4.1-4.09a1.468,1.468,0,0,0,0-2.25l-2.1-2.13a1.572,1.572,0,0,0-1.1-.47h-8.6a1.572,1.572,0,0,0-1.1.47l-2.2,2.13a1.631,1.631,0,0,0,0,2.25l4.1,4.09a14.48,14.48,0,0,0-10.9,12.56h-5.1l1.8-8.95v-0.57l-2.1-12.61a2.623,2.623,0,0,1,2.7-2.56h34.2a2.758,2.758,0,0,1,2.7,2.56l-2.1,12.83v0.03c0,0.03-.1.07-0.1,0.1v0.24Zm-6.5,8.93h-22.3A11.244,11.244,0,0,1,10110.4,5319.32Zm-15.3-17.77,0.6-.54h7.2l0.5,0.54-4.1,4.13Zm24-9.48a5.973,5.973,0,0,0-2.7-.64h-34.2a5.973,5.973,0,0,0-2.7.64v-5.21a2.682,2.682,0,0,1,2.7-2.67h34.2a2.682,2.682,0,0,1,2.7,2.67v5.21h0Z" transform="translate(-10033 -5281)"/>
</svg>
