<svg xmlns="http://www.w3.org/2000/svg" width="95" height="96" viewBox="0 0 95 96">
  <metadata><?xpacket begin="﻿" id="W5M0MpCehiHzreSzNTczkc9d"?>
<x:xmpmeta xmlns:x="adobe:ns:meta/" x:xmptk="Adobe XMP Core 5.6-c138 79.159824, 2016/09/14-01:09:01        ">
   <rdf:RDF xmlns:rdf="http://www.w3.org/1999/02/22-rdf-syntax-ns#">
      <rdf:Description rdf:about=""/>
   </rdf:RDF>
</x:xmpmeta>
                                                                                                    
                                                                                                    
                                                                                                    
                                                                                                    
                                                                                                    
                                                                                                    
                                                                                                    
                                                                                                    
                                                                                                    
                                                                                                    
                                                                                                    
                                                                                                    
                                                                                                    
                                                                                                    
                                                                                                    
                                                                                                    
                                                                                                    
                                                                                                    
                                                                                                    
                                                                                                    
                           
<?xpacket end="w"?></metadata>
<defs>
    <style>
      .cls-1 {
        fill: #3fc692;
        fill-rule: evenodd;
      }
    </style>
  </defs>
  <path id="Forma_1_copy_25" data-name="Forma 1 copy 25" class="cls-1" d="M10064.3,4553l-3.6,3.61a2.179,2.179,0,0,0-.9-0.25H10040a1.993,1.993,0,0,0-2,1.97v19.72a1.993,1.993,0,0,0,2,1.97h19.8a1.909,1.909,0,0,0,1.9-1.97v-16.93l5.4-5.33Zm-6.5,23.07H10042v-15.76h15l-7.1,7.06-2.6-2.55-2.8,2.79,4,3.94a1.985,1.985,0,0,0,2.8,0l6.5-6.49v11.01Zm6.5,12.41-3.6,3.61a2.037,2.037,0,0,0-.9-0.25H10040a1.987,1.987,0,0,0-2,1.97v19.71a1.987,1.987,0,0,0,2,1.97h19.8a1.9,1.9,0,0,0,1.9-1.97V4596.6l5.4-5.33Zm-6.5,23.07H10042v-15.77h15l-7.1,7.07-2.6-2.55-2.8,2.79,4,3.94a1.985,1.985,0,0,0,2.8,0l6.5-6.49v11.01Zm6.5,10.43-3.6,3.62a1.913,1.913,0,0,0-.9-0.25H10040a1.987,1.987,0,0,0-2,1.97v19.71a1.987,1.987,0,0,0,2,1.97h19.8a1.9,1.9,0,0,0,1.9-1.97v-16.92l5.4-5.34Zm-6.5,23.08H10042v-15.77h15l-7.1,7.07-2.6-2.55-2.8,2.79,4,3.94a1.985,1.985,0,0,0,2.8,0l6.5-6.49v11.01Zm17.8-72.93h57.4v3.94h-57.4v-3.94Zm0-11.82h57.4v3.94h-57.4v-3.94Zm0,47.3h57.4v3.94h-57.4v-3.94Zm0-11.83h57.4v3.95h-57.4v-3.95Zm0,45.34h57.4v3.94h-57.4v-3.94Zm0-11.83h57.4v3.94h-57.4v-3.94Z" transform="translate(-10038 -4553)"/>
</svg>
