<svg xmlns="http://www.w3.org/2000/svg" width="91" height="91" viewBox="0 0 91 91">
  <metadata><?xpacket begin="﻿" id="W5M0MpCehiHzreSzNTczkc9d"?>
<x:xmpmeta xmlns:x="adobe:ns:meta/" x:xmptk="Adobe XMP Core 5.6-c138 79.159824, 2016/09/14-01:09:01        ">
   <rdf:RDF xmlns:rdf="http://www.w3.org/1999/02/22-rdf-syntax-ns#">
      <rdf:Description rdf:about=""/>
   </rdf:RDF>
</x:xmpmeta>
                                                                                                    
                                                                                                    
                                                                                                    
                                                                                                    
                                                                                                    
                                                                                                    
                                                                                                    
                                                                                                    
                                                                                                    
                                                                                                    
                                                                                                    
                                                                                                    
                                                                                                    
                                                                                                    
                                                                                                    
                                                                                                    
                                                                                                    
                                                                                                    
                                                                                                    
                                                                                                    
                           
<?xpacket end="w"?></metadata>
<defs>
    <style>
      .cls-1 {
        fill: #3fc692;
        fill-rule: evenodd;
      }
    </style>
  </defs>
  <path id="Forma_1" data-name="Forma 1" class="cls-1" d="M10081.8,5945.66a1.782,1.782,0,0,0,0,3.56A1.78,1.78,0,1,0,10081.8,5945.66Zm10.7,14.22a1.775,1.775,0,1,1,0-3.55,2.8,2.8,0,0,1,1.9.93,1.789,1.789,0,0,0,2.5-2.56,6.915,6.915,0,0,0-2.6-1.63V5951a1.8,1.8,0,0,0-3.6,0v2.08a5.344,5.344,0,0,0,1.8,10.36,1.775,1.775,0,1,1,0,3.55,3.069,3.069,0,0,1-2.3-1.34,1.777,1.777,0,0,0-2.5-.22,1.686,1.686,0,0,0-.2,2.51,6.972,6.972,0,0,0,3.2,2.31v2.07a1.8,1.8,0,0,0,3.6,0v-2.08A5.344,5.344,0,0,0,10092.5,5959.88Zm38.4,1.07a7.123,7.123,0,0,0-7.1,7.11v12.67a7.061,7.061,0,0,0-6.8,1.85l-11.9,11.92a8.744,8.744,0,0,0-2.6,6.29v10.46h-1.8a1.782,1.782,0,0,0-1.8,1.78v11.19a1.788,1.788,0,0,0,1.8,1.78h24.9a1.769,1.769,0,0,0,1.7-1.78v-11.19a1.762,1.762,0,0,0-1.7-1.78h-1.8v-0.84a1.915,1.915,0,0,1,.5-1.26l11.1-11.09a8.744,8.744,0,0,0,2.6-6.29v-23.71A7.123,7.123,0,0,0,10130.9,5960.95Zm-7.1,61.5h-21.3v-7.65h21.3v7.65Zm10.6-30.68a5.247,5.247,0,0,1-1.5,3.77l-11.1,11.1a5.376,5.376,0,0,0-1.6,3.77v0.84H10106v-10.46a5.34,5.34,0,0,1,1.6-3.77l11.9-11.92a3.566,3.566,0,0,1,4.9-.14v0.03a1.1,1.1,0,0,1,.1.11,3.414,3.414,0,0,1,0,5.02l-8.8,8.83a1.775,1.775,0,0,0,2.5,2.52l8.8-8.83a7.056,7.056,0,0,0,.3-9.73v-14.85a3.577,3.577,0,0,1,3.6-3.56,3.492,3.492,0,0,1,3.5,3.56v23.71Zm-50.1,19.48h-1.8v-10.46a8.744,8.744,0,0,0-2.6-6.29l-11.9-11.92a7.061,7.061,0,0,0-6.8-1.85v-12.67a7.1,7.1,0,1,0-14.2,0v23.71a8.744,8.744,0,0,0,2.6,6.29l11.1,11.09a1.915,1.915,0,0,1,.5,1.26v0.84h-1.8a1.762,1.762,0,0,0-1.7,1.78v11.19a1.769,1.769,0,0,0,1.7,1.78h24.9a1.788,1.788,0,0,0,1.8-1.78v-11.19A1.782,1.782,0,0,0,10084.3,6011.25Zm-32.2-15.71a5.247,5.247,0,0,1-1.5-3.77v-23.71a3.55,3.55,0,1,1,7.1,0v14.85a7.056,7.056,0,0,0,.3,9.73l8.9,8.88a1.771,1.771,0,0,0,2.5-2.51l-8.9-8.89a3.414,3.414,0,0,1,0-5.02,1.1,1.1,0,0,1,.1-0.11v-0.03a3.566,3.566,0,0,1,4.9.14l11.9,11.92a5.34,5.34,0,0,1,1.6,3.77v10.46h-14.2v-0.84a5.376,5.376,0,0,0-1.6-3.77Zm30.4,26.91h-21.3v-7.65h21.3v7.65Zm10-87.45a26.66,26.66,0,1,0,26.7,26.66A26.725,26.725,0,0,0,10092.5,5935Zm0,49.77a23.105,23.105,0,1,1,23.1-23.11A23.157,23.157,0,0,1,10092.5,5984.77Zm12.3-38.33a19.8,19.8,0,0,0-16.6-3.87,1.775,1.775,0,1,0,.7,3.48,16.011,16.011,0,1,1-12.4,15.61,16.471,16.471,0,0,1,1.9-7.55,1.8,1.8,0,0,0-.7-2.41,1.744,1.744,0,0,0-2.4.73,18.693,18.693,0,0,0-2.4,9.23A19.6,19.6,0,1,0,10104.8,5946.44Z" transform="translate(-10047 -5935)"/>
</svg>
