<svg xmlns="http://www.w3.org/2000/svg" xmlns:xlink="http://www.w3.org/1999/xlink" width="20.03" height="20" viewBox="0 0 20.03 20">
  <metadata><?xpacket begin="﻿" id="W5M0MpCehiHzreSzNTczkc9d"?>
<x:xmpmeta xmlns:x="adobe:ns:meta/" x:xmptk="Adobe XMP Core 5.6-c138 79.159824, 2016/09/14-01:09:01        ">
   <rdf:RDF xmlns:rdf="http://www.w3.org/1999/02/22-rdf-syntax-ns#">
      <rdf:Description rdf:about=""/>
   </rdf:RDF>
</x:xmpmeta>
                                                                                                    
                                                                                                    
                                                                                                    
                                                                                                    
                                                                                                    
                                                                                                    
                                                                                                    
                                                                                                    
                                                                                                    
                                                                                                    
                                                                                                    
                                                                                                    
                                                                                                    
                                                                                                    
                                                                                                    
                                                                                                    
                                                                                                    
                                                                                                    
                                                                                                    
                                                                                                    
                           
<?xpacket end="w"?></metadata>
<defs>
    <style>
      .cls-1 {
        fill: #2a2b32;
        fill-rule: evenodd;
        filter: url(#filter);
      }
    </style>
    <filter id="filter" x="4189" y="20153" width="20.03" height="20" filterUnits="userSpaceOnUse">
      <feFlood result="flood" flood-color="#fff"/>
      <feComposite result="composite" operator="in" in2="SourceGraphic"/>
      <feBlend result="blend" in2="SourceGraphic"/>
    </filter>
  </defs>
  <path id="Forma_1" data-name="Forma 1" class="cls-1" d="M4208.94,20161.9a0.648,0.648,0,0,0-.65-0.5,2.189,2.189,0,0,1-1.51-3.8,0.612,0.612,0,0,0,.06-0.8,11.375,11.375,0,0,0-1.58-1.6,0.485,0.485,0,0,0-.76.1,2.292,2.292,0,0,1-2.49.5,2.106,2.106,0,0,1-1.36-2.1,0.539,0.539,0,0,0-.49-0.6,8.475,8.475,0,0,0-2.25,0,0.47,0.47,0,0,0-.49.5,2.2,2.2,0,0,1-3.85,1.6,0.687,0.687,0,0,0-.75-0.1,11.144,11.144,0,0,0-1.62,1.6,0.6,0.6,0,0,0,.06.8,2.195,2.195,0,0,1,.56,2.5,2.3,2.3,0,0,1-2.18,1.3,0.544,0.544,0,0,0-.57.5,10.42,10.42,0,0,0-.01,2.3,0.659,0.659,0,0,0,.66.5,2.2,2.2,0,0,1,2.06,1.4,2.144,2.144,0,0,1-.56,2.4,0.612,0.612,0,0,0-.06.8,10.858,10.858,0,0,0,1.58,1.6,0.485,0.485,0,0,0,.76-0.1,2.292,2.292,0,0,1,2.49-.5,2.119,2.119,0,0,1,1.36,2.1,0.539,0.539,0,0,0,.49.6,4.439,4.439,0,0,0,1.15.1,4.139,4.139,0,0,0,1.1-.1,0.465,0.465,0,0,0,.49-0.5,2.2,2.2,0,0,1,3.85-1.6,0.687,0.687,0,0,0,.75.1,11.144,11.144,0,0,0,1.62-1.6,0.6,0.6,0,0,0-.06-0.8,2.195,2.195,0,0,1-.56-2.5,2.3,2.3,0,0,1,2.04-1.4l0.13,0.1a0.574,0.574,0,0,0,.58-0.5A10.42,10.42,0,0,0,4208.94,20161.9Zm-9.93,4.5a3.35,3.35,0,1,1,3.34-3.4A3.357,3.357,0,0,1,4199.01,20166.4Z" transform="translate(-4189 -20153)"/>
</svg>
