<svg xmlns="http://www.w3.org/2000/svg" width="23" height="21" viewBox="0 0 23 21">
  <metadata><?xpacket begin="﻿" id="W5M0MpCehiHzreSzNTczkc9d"?>
<x:xmpmeta xmlns:x="adobe:ns:meta/" x:xmptk="Adobe XMP Core 5.6-c138 79.159824, 2016/09/14-01:09:01        ">
   <rdf:RDF xmlns:rdf="http://www.w3.org/1999/02/22-rdf-syntax-ns#">
      <rdf:Description rdf:about=""/>
   </rdf:RDF>
</x:xmpmeta>
                                                                                                    
                                                                                                    
                                                                                                    
                                                                                                    
                                                                                                    
                                                                                                    
                                                                                                    
                                                                                                    
                                                                                                    
                                                                                                    
                                                                                                    
                                                                                                    
                                                                                                    
                                                                                                    
                                                                                                    
                                                                                                    
                                                                                                    
                                                                                                    
                                                                                                    
                                                                                                    
                           
<?xpacket end="w"?></metadata>
<defs>
    <style>
      .cls-1 {
        fill-rule: evenodd;
      }
    </style>
  </defs>
  <path class="cls-1" d="M436.5,16619.8a1.155,1.155,0,0,0-1.183,1.1,1.174,1.174,0,0,0,1.183,1.2A1.15,1.15,0,1,0,436.5,16619.8Zm10.94,4.1a3.886,3.886,0,0,0,.01-4l-7.4-12.8a4.044,4.044,0,0,0-3.543-2.1,4.16,4.16,0,0,0-3.539,2l-7.414,12.9a4.056,4.056,0,0,0,.013,4.1,4.169,4.169,0,0,0,3.533,2h14.788A4.09,4.09,0,0,0,447.44,16623.9Zm-1.607-.9a2.226,2.226,0,0,1-1.953,1.1H429.09a2.184,2.184,0,0,1-1.927-1.1,2.137,2.137,0,0,1-.006-2.2l7.413-12.8a2.249,2.249,0,0,1,3.867,0l7.409,12.8A2.157,2.157,0,0,1,445.833,16623Zm-9.627-11.5a1.191,1.191,0,0,0-.913,1.3c0.029,0.3.053,0.7,0.081,1.1q0.12,2.1.242,4.2a0.889,0.889,0,0,0,1.769,0c0-.3,0-0.6.027-0.9,0.052-.9.109-1.8,0.161-2.7,0.028-.6.08-1.2,0.109-1.8a1.589,1.589,0,0,0-.109-0.6A1.109,1.109,0,0,0,436.206,16611.5Z" transform="translate(-425 -16605)"/>
</svg>
