<svg xmlns="http://www.w3.org/2000/svg" width="27.94" height="28" viewBox="0 0 27.94 28">
  <metadata><?xpacket begin="﻿" id="W5M0MpCehiHzreSzNTczkc9d"?>
<x:xmpmeta xmlns:x="adobe:ns:meta/" x:xmptk="Adobe XMP Core 5.6-c138 79.159824, 2016/09/14-01:09:01        ">
   <rdf:RDF xmlns:rdf="http://www.w3.org/1999/02/22-rdf-syntax-ns#">
      <rdf:Description rdf:about=""/>
   </rdf:RDF>
</x:xmpmeta>





















<?xpacket end="w"?></metadata>
<defs>
    <style>
      .cls-1 {
        fill: #D80027;
        fill-rule: evenodd;
      }
    </style>
  </defs>
  <path id="Forma_1" data-name="Forma 1" class="cls-1" d="M3192.5,29750a14,14,0,1,0,13.98,14A14.011,14.011,0,0,0,3192.5,29750Zm6.01,17.8-2.23,2.2a51.951,51.951,0,0,0-3.78-3.8,52.156,52.156,0,0,0-3.79,3.8l-2.22-2.2a3.8,3.8,0,0,0,0-7.6l2.22-2.2s3.56,3.8,3.79,3.8,3.78-3.8,3.78-3.8l2.23,2.2A3.8,3.8,0,0,0,3198.51,29767.8Z" transform="translate(-3178.53 -29750)"/>
</svg>
