<?xml version="1.0" encoding="UTF-8"?>
<svg xmlns="http://www.w3.org/2000/svg" xmlns:xlink="http://www.w3.org/1999/xlink" width="21pt" height="21pt" viewBox="0 0 21 21" version="1.1">
<g id="surface1">
<path style=" stroke:none;fill-rule:nonzero;fill:rgb(0%,0%,0%);fill-opacity:1;" d="M 15.050781 12.601562 L 5.949219 12.601562 C 5.757812 12.601562 5.601562 12.757812 5.601562 12.949219 L 5.601562 20.648438 C 5.601562 20.84375 5.757812 21 5.949219 21 L 15.050781 21 C 15.242188 21 15.398438 20.84375 15.398438 20.648438 L 15.398438 12.949219 C 15.398438 12.757812 15.242188 12.601562 15.050781 12.601562 Z M 14.699219 20.300781 L 6.300781 20.300781 L 6.300781 13.300781 L 14.699219 13.300781 Z M 14.699219 20.300781 "/>
<path style=" stroke:none;fill-rule:nonzero;fill:rgb(0%,0%,0%);fill-opacity:1;" d="M 15.050781 12.601562 L 5.949219 12.601562 C 5.757812 12.601562 5.601562 12.757812 5.601562 12.949219 L 5.601562 20.648438 C 5.601562 20.84375 5.757812 21 5.949219 21 L 15.050781 21 C 15.242188 21 15.398438 20.84375 15.398438 20.648438 L 15.398438 12.949219 C 15.398438 12.757812 15.242188 12.601562 15.050781 12.601562 Z M 14.699219 20.300781 L 6.300781 20.300781 L 6.300781 13.300781 L 14.699219 13.300781 Z M 14.699219 20.300781 "/>
<path style=" stroke:none;fill-rule:nonzero;fill:rgb(0%,0%,0%);fill-opacity:1;" d="M 5.949219 12.601562 L 0.351562 12.601562 C 0.15625 12.601562 0 12.757812 0 12.949219 L 0 20.648438 C 0 20.84375 0.15625 21 0.351562 21 L 5.949219 21 C 6.144531 21 6.300781 20.84375 6.300781 20.648438 L 6.300781 12.949219 C 6.300781 12.757812 6.144531 12.601562 5.949219 12.601562 Z M 5.601562 20.300781 L 0.699219 20.300781 L 0.699219 13.300781 L 5.601562 13.300781 Z M 5.601562 20.300781 "/>
<path style=" stroke:none;fill-rule:nonzero;fill:rgb(0%,0%,0%);fill-opacity:1;" d="M 20.648438 12.601562 L 15.050781 12.601562 C 14.855469 12.601562 14.699219 12.757812 14.699219 12.949219 L 14.699219 20.648438 C 14.699219 20.84375 14.855469 21 15.050781 21 L 20.648438 21 C 20.84375 21 21 20.84375 21 20.648438 L 21 12.949219 C 21 12.757812 20.84375 12.601562 20.648438 12.601562 Z M 20.300781 20.300781 L 15.398438 20.300781 L 15.398438 13.300781 L 20.300781 13.300781 Z M 20.300781 20.300781 "/>
<path style=" stroke:none;fill-rule:nonzero;fill:rgb(0%,0%,0%);fill-opacity:1;" d="M 13.648438 15.398438 L 7.351562 15.398438 C 7.15625 15.398438 7 15.554688 7 15.75 L 7 19.25 C 7 19.445312 7.15625 19.601562 7.351562 19.601562 L 13.648438 19.601562 C 13.84375 19.601562 14 19.445312 14 19.25 L 14 15.75 C 14 15.554688 13.84375 15.398438 13.648438 15.398438 Z M 13.300781 18.898438 L 7.699219 18.898438 L 7.699219 16.101562 L 13.300781 16.101562 Z M 13.300781 18.898438 "/>
<path style=" stroke:none;fill-rule:nonzero;fill:rgb(0%,0%,0%);fill-opacity:1;" d="M 10.851562 14 L 11.550781 14 L 11.550781 14.699219 L 10.851562 14.699219 Z M 10.851562 14 "/>
<path style=" stroke:none;fill-rule:nonzero;fill:rgb(0%,0%,0%);fill-opacity:1;" d="M 9.449219 14 L 10.148438 14 L 10.148438 14.699219 L 9.449219 14.699219 Z M 9.449219 14 "/>
<path style=" stroke:none;fill-rule:nonzero;fill:rgb(0%,0%,0%);fill-opacity:1;" d="M 8.050781 14 L 8.75 14 L 8.75 14.699219 L 8.050781 14.699219 Z M 8.050781 14 "/>
<path style=" stroke:none;fill-rule:nonzero;fill:rgb(0%,0%,0%);fill-opacity:1;" d="M 12.25 14 L 12.949219 14 L 12.949219 14.699219 L 12.25 14.699219 Z M 12.25 14 "/>
<path style=" stroke:none;fill-rule:nonzero;fill:rgb(0%,0%,0%);fill-opacity:1;" d="M 0.351562 15.398438 L 5.949219 15.398438 L 5.949219 16.101562 L 0.351562 16.101562 Z M 0.351562 15.398438 "/>
<path style=" stroke:none;fill-rule:nonzero;fill:rgb(0%,0%,0%);fill-opacity:1;" d="M 2.449219 14 L 3.851562 14 L 3.851562 14.699219 L 2.449219 14.699219 Z M 2.449219 14 "/>
<path style=" stroke:none;fill-rule:nonzero;fill:rgb(0%,0%,0%);fill-opacity:1;" d="M 2.449219 16.800781 L 3.851562 16.800781 L 3.851562 17.5 L 2.449219 17.5 Z M 2.449219 16.800781 "/>
<path style=" stroke:none;fill-rule:nonzero;fill:rgb(0%,0%,0%);fill-opacity:1;" d="M 15.050781 15.398438 L 20.648438 15.398438 L 20.648438 16.101562 L 15.050781 16.101562 Z M 15.050781 15.398438 "/>
<path style=" stroke:none;fill-rule:nonzero;fill:rgb(0%,0%,0%);fill-opacity:1;" d="M 17.5 15.75 L 18.199219 15.75 L 18.199219 20.648438 L 17.5 20.648438 Z M 17.5 15.75 "/>
<path style=" stroke:none;fill-rule:nonzero;fill:rgb(0%,0%,0%);fill-opacity:1;" d="M 17.148438 14 L 18.550781 14 L 18.550781 14.699219 L 17.148438 14.699219 Z M 17.148438 14 "/>
<path style=" stroke:none;fill-rule:nonzero;fill:rgb(0%,0%,0%);fill-opacity:1;" d="M 16.101562 17.5 L 16.800781 17.5 L 16.800781 18.550781 L 16.101562 18.550781 Z M 16.101562 17.5 "/>
<path style=" stroke:none;fill-rule:nonzero;fill:rgb(0%,0%,0%);fill-opacity:1;" d="M 18.898438 17.5 L 19.601562 17.5 L 19.601562 18.550781 L 18.898438 18.550781 Z M 18.898438 17.5 "/>
<path style=" stroke:none;fill-rule:nonzero;fill:rgb(0%,0%,0%);fill-opacity:1;" d="M 14.949219 5.703125 L 13.648438 4.40625 L 13.648438 0.351562 C 13.648438 0.15625 13.492188 0 13.300781 0 L 7.699219 0 C 7.507812 0 7.351562 0.15625 7.351562 0.351562 L 7.351562 4.40625 L 6.050781 5.703125 C 5.953125 5.800781 5.921875 5.953125 5.976562 6.085938 C 6.03125 6.214844 6.160156 6.300781 6.300781 6.300781 L 14.699219 6.300781 C 14.839844 6.300781 14.96875 6.214844 15.023438 6.085938 C 15.078125 5.953125 15.046875 5.800781 14.949219 5.703125 Z M 7.144531 5.601562 L 7.949219 4.796875 C 8.011719 4.730469 8.050781 4.644531 8.050781 4.550781 L 8.050781 0.699219 L 12.949219 0.699219 L 12.949219 4.550781 C 12.949219 4.644531 12.988281 4.730469 13.050781 4.796875 L 13.855469 5.601562 Z M 7.144531 5.601562 "/>
<path style=" stroke:none;fill-rule:nonzero;fill:rgb(0%,0%,0%);fill-opacity:1;" d="M 18.898438 7.699219 C 18.128906 7.699219 17.5 8.328125 17.5 9.101562 L 17.5 9.449219 L 18.199219 9.449219 L 18.199219 9.101562 C 18.199219 8.714844 18.515625 8.398438 18.898438 8.398438 C 19.285156 8.398438 19.601562 8.714844 19.601562 9.101562 L 19.601562 12.949219 L 20.300781 12.949219 L 20.300781 9.101562 C 20.300781 8.328125 19.671875 7.699219 18.898438 7.699219 Z M 18.898438 7.699219 "/>
<path style=" stroke:none;fill-rule:nonzero;fill:rgb(0%,0%,0%);fill-opacity:1;" d="M 18.898438 11.199219 L 19.949219 11.199219 L 19.949219 11.898438 L 18.898438 11.898438 Z M 18.898438 11.199219 "/>
<path style=" stroke:none;fill-rule:nonzero;fill:rgb(0%,0%,0%);fill-opacity:1;" d="M 10.148438 10.5 L 6.648438 10.5 C 6.457031 10.5 6.300781 10.65625 6.300781 10.851562 L 6.300781 12.949219 C 6.300781 13.144531 6.457031 13.300781 6.648438 13.300781 L 10.148438 13.300781 C 10.34375 13.300781 10.5 13.144531 10.5 12.949219 L 10.5 10.851562 C 10.5 10.65625 10.34375 10.5 10.148438 10.5 Z M 9.800781 12.601562 L 7 12.601562 L 7 11.199219 L 9.800781 11.199219 Z M 9.800781 12.601562 "/>
<path style=" stroke:none;fill-rule:nonzero;fill:rgb(0%,0%,0%);fill-opacity:1;" d="M 5.601562 11.199219 L 6.648438 11.199219 L 6.648438 11.898438 L 5.601562 11.898438 Z M 5.601562 11.199219 "/>
<path style=" stroke:none;fill-rule:nonzero;fill:rgb(0%,0%,0%);fill-opacity:1;" d="M 10.148438 11.199219 L 11.199219 11.199219 L 11.199219 11.898438 L 10.148438 11.898438 Z M 10.148438 11.199219 "/>
<path style=" stroke:none;fill-rule:nonzero;fill:rgb(0%,0%,0%);fill-opacity:1;" d="M 5.949219 0 L 0.351562 0 C 0.15625 0 0 0.15625 0 0.351562 L 0 4.550781 C 0 4.742188 0.15625 4.898438 0.351562 4.898438 L 5.949219 4.898438 C 6.144531 4.898438 6.300781 4.742188 6.300781 4.550781 L 6.300781 0.351562 C 6.300781 0.15625 6.144531 0 5.949219 0 Z M 5.601562 4.199219 L 0.699219 4.199219 L 0.699219 0.699219 L 5.601562 0.699219 Z M 5.601562 4.199219 "/>
<path style=" stroke:none;fill-rule:nonzero;fill:rgb(0%,0%,0%);fill-opacity:1;" d="M 4.199219 2.101562 L 4.898438 2.101562 L 4.898438 3.5 L 4.199219 3.5 Z M 4.199219 2.101562 "/>
<path style=" stroke:none;fill-rule:nonzero;fill:rgb(0%,0%,0%);fill-opacity:1;" d="M 20.648438 0 L 15.050781 0 C 14.855469 0 14.699219 0.15625 14.699219 0.351562 L 14.699219 4.550781 C 14.699219 4.742188 14.855469 4.898438 15.050781 4.898438 L 20.648438 4.898438 C 20.84375 4.898438 21 4.742188 21 4.550781 L 21 0.351562 C 21 0.15625 20.84375 0 20.648438 0 Z M 20.300781 4.199219 L 15.398438 4.199219 L 15.398438 0.699219 L 20.300781 0.699219 Z M 20.300781 4.199219 "/>
<path style=" stroke:none;fill-rule:nonzero;fill:rgb(0%,0%,0%);fill-opacity:1;" d="M 16.101562 2.101562 L 16.800781 2.101562 L 16.800781 3.5 L 16.101562 3.5 Z M 16.101562 2.101562 "/>
<path style=" stroke:none;fill-rule:nonzero;fill:rgb(0%,0%,0%);fill-opacity:1;" d="M 0 7 L 6.300781 7 L 6.300781 7.699219 L 0 7.699219 Z M 0 7 "/>
<path style=" stroke:none;fill-rule:nonzero;fill:rgb(0%,0%,0%);fill-opacity:1;" d="M 0.699219 6.300781 L 1.398438 6.300781 L 1.398438 9.449219 L 0.699219 9.449219 Z M 0.699219 6.300781 "/>
<path style=" stroke:none;fill-rule:nonzero;fill:rgb(0%,0%,0%);fill-opacity:1;" d="M 1.050781 9.101562 C 0.472656 9.101562 0 9.570312 0 10.148438 C 0 10.730469 0.472656 11.199219 1.050781 11.199219 C 1.628906 11.199219 2.101562 10.730469 2.101562 10.148438 C 2.101562 9.570312 1.628906 9.101562 1.050781 9.101562 Z M 1.050781 10.5 C 0.855469 10.5 0.699219 10.34375 0.699219 10.148438 C 0.699219 9.957031 0.855469 9.800781 1.050781 9.800781 C 1.242188 9.800781 1.398438 9.957031 1.398438 10.148438 C 1.398438 10.34375 1.242188 10.5 1.050781 10.5 Z M 1.050781 10.5 "/>
<path style=" stroke:none;fill-rule:nonzero;fill:rgb(0%,0%,0%);fill-opacity:1;" d="M 2.101562 6.300781 L 2.800781 6.300781 L 2.800781 9.449219 L 2.101562 9.449219 Z M 2.101562 6.300781 "/>
<path style=" stroke:none;fill-rule:nonzero;fill:rgb(0%,0%,0%);fill-opacity:1;" d="M 2.449219 9.101562 C 1.871094 9.101562 1.398438 9.570312 1.398438 10.148438 C 1.398438 10.730469 1.871094 11.199219 2.449219 11.199219 C 3.027344 11.199219 3.5 10.730469 3.5 10.148438 C 3.5 9.570312 3.027344 9.101562 2.449219 9.101562 Z M 2.449219 10.5 C 2.257812 10.5 2.101562 10.34375 2.101562 10.148438 C 2.101562 9.957031 2.257812 9.800781 2.449219 9.800781 C 2.644531 9.800781 2.800781 9.957031 2.800781 10.148438 C 2.800781 10.34375 2.644531 10.5 2.449219 10.5 Z M 2.449219 10.5 "/>
<path style=" stroke:none;fill-rule:nonzero;fill:rgb(0%,0%,0%);fill-opacity:1;" d="M 3.5 6.300781 L 4.199219 6.300781 L 4.199219 9.449219 L 3.5 9.449219 Z M 3.5 6.300781 "/>
<path style=" stroke:none;fill-rule:nonzero;fill:rgb(0%,0%,0%);fill-opacity:1;" d="M 3.851562 9.101562 C 3.269531 9.101562 2.800781 9.570312 2.800781 10.148438 C 2.800781 10.730469 3.269531 11.199219 3.851562 11.199219 C 4.429688 11.199219 4.898438 10.730469 4.898438 10.148438 C 4.898438 9.570312 4.429688 9.101562 3.851562 9.101562 Z M 3.851562 10.5 C 3.65625 10.5 3.5 10.34375 3.5 10.148438 C 3.5 9.957031 3.65625 9.800781 3.851562 9.800781 C 4.042969 9.800781 4.199219 9.957031 4.199219 10.148438 C 4.199219 10.34375 4.042969 10.5 3.851562 10.5 Z M 3.851562 10.5 "/>
</g>
</svg>
