<?xml version="1.0" encoding="UTF-8"?>
<svg xmlns="http://www.w3.org/2000/svg" xmlns:xlink="http://www.w3.org/1999/xlink" width="25pt" height="25pt" viewBox="0 0 25 25" version="1.1">
<g id="surface1">
<path style=" stroke:none;fill-rule:nonzero;fill:rgb(0%,0%,0%);fill-opacity:1;" d="M 17.730469 10.832031 C 17.648438 10.832031 17.566406 10.839844 17.484375 10.863281 L 16.550781 11.121094 L 15.582031 8.761719 C 15.308594 8.09375 14.496094 7.546875 13.773438 7.546875 L 4.703125 7.546875 C 3.980469 7.546875 3.171875 8.09375 2.894531 8.761719 L 1.929688 11.117188 L 1.007812 10.863281 C 0.925781 10.839844 0.839844 10.832031 0.761719 10.832031 C 0.320312 10.832031 0 11.167969 0 11.632812 L 0 12.179688 C 0 12.722656 0.441406 13.164062 0.984375 13.164062 L 1.089844 13.164062 L 0.933594 13.542969 C 0.675781 14.164062 0.46875 15.21875 0.46875 15.890625 L 0.46875 20.578125 C 0.46875 21.121094 0.910156 21.5625 1.453125 21.5625 L 2.734375 21.5625 C 3.277344 21.5625 3.71875 21.121094 3.71875 20.578125 L 3.71875 19.40625 L 14.757812 19.40625 L 14.757812 20.578125 C 14.757812 21.121094 15.199219 21.5625 15.742188 21.5625 L 17.023438 21.5625 C 17.566406 21.5625 18.007812 21.121094 18.007812 20.578125 L 18.007812 15.890625 C 18.007812 15.21875 17.800781 14.167969 17.542969 13.542969 L 17.386719 13.164062 L 17.507812 13.164062 C 18.050781 13.164062 18.488281 12.722656 18.488281 12.179688 L 18.488281 11.632812 C 18.488281 11.167969 18.167969 10.832031 17.730469 10.832031 Z M 2.632812 12.628906 L 4.097656 9.058594 C 4.261719 8.660156 4.75 8.332031 5.183594 8.332031 L 13.292969 8.332031 C 13.726562 8.332031 14.214844 8.660156 14.378906 9.058594 L 15.84375 12.628906 C 16.007812 13.03125 15.789062 13.359375 15.355469 13.359375 L 3.121094 13.359375 C 2.6875 13.355469 2.46875 13.03125 2.632812 12.628906 Z M 5.90625 17.144531 C 5.90625 17.363281 5.726562 17.539062 5.511719 17.539062 L 2.726562 17.539062 C 2.511719 17.539062 2.335938 17.363281 2.335938 17.144531 L 2.335938 15.808594 C 2.335938 15.59375 2.511719 15.417969 2.726562 15.417969 L 5.511719 15.417969 C 5.726562 15.417969 5.90625 15.59375 5.90625 15.808594 Z M 16.117188 17.144531 C 16.117188 17.363281 15.941406 17.539062 15.722656 17.539062 L 12.9375 17.539062 C 12.722656 17.539062 12.546875 17.363281 12.546875 17.144531 L 12.546875 15.808594 C 12.546875 15.59375 12.722656 15.417969 12.9375 15.417969 L 15.722656 15.417969 C 15.941406 15.417969 16.117188 15.59375 16.117188 15.808594 Z M 16.117188 17.144531 "/>
<path style=" stroke:none;fill-rule:nonzero;fill:rgb(0%,0%,0%);fill-opacity:1;" d="M 23.769531 3.4375 L 19.117188 3.4375 C 18.4375 3.4375 17.886719 3.988281 17.886719 4.667969 L 17.886719 9.320312 C 17.886719 10 18.4375 10.550781 19.117188 10.550781 L 20.984375 10.550781 L 20.984375 20.996094 C 20.984375 21.25 21.191406 21.457031 21.445312 21.457031 C 21.695312 21.457031 21.902344 21.25 21.902344 20.996094 L 21.902344 10.550781 L 23.769531 10.550781 C 24.449219 10.550781 25 10 25 9.320312 L 25 4.667969 C 25 3.988281 24.449219 3.4375 23.769531 3.4375 Z M 22.71875 7.296875 C 22.449219 7.539062 22.054688 7.660156 21.546875 7.660156 L 20.871094 7.660156 C 20.789062 7.660156 20.722656 7.726562 20.722656 7.808594 L 20.722656 8.945312 C 20.722656 9.066406 20.625 9.167969 20.5 9.167969 L 19.988281 9.167969 C 19.867188 9.167969 19.765625 9.066406 19.765625 8.945312 L 19.765625 5.046875 C 19.765625 4.921875 19.867188 4.820312 19.988281 4.820312 L 21.277344 4.820312 C 22.128906 4.820312 22.445312 4.949219 22.707031 5.171875 C 22.980469 5.40625 23.121094 5.765625 23.121094 6.238281 C 23.121094 6.699219 22.984375 7.054688 22.71875 7.296875 Z M 22.71875 7.296875 "/>
<path style=" stroke:none;fill-rule:nonzero;fill:rgb(0%,0%,0%);fill-opacity:1;" d="M 21.988281 5.761719 C 21.863281 5.667969 21.644531 5.621094 21.332031 5.621094 L 20.871094 5.621094 C 20.789062 5.621094 20.722656 5.6875 20.722656 5.769531 L 20.722656 6.703125 C 20.722656 6.78125 20.789062 6.847656 20.871094 6.847656 L 21.148438 6.847656 C 21.25 6.847656 21.414062 6.839844 21.515625 6.832031 C 21.613281 6.824219 21.886719 6.785156 21.988281 6.707031 C 22.109375 6.617188 22.167969 6.457031 22.167969 6.238281 C 22.167969 6.015625 22.109375 5.855469 21.988281 5.761719 Z M 21.988281 5.761719 "/>
</g>
</svg>
