<?xml version="1.0" encoding="UTF-8"?>
<svg xmlns="http://www.w3.org/2000/svg" xmlns:xlink="http://www.w3.org/1999/xlink" width="25pt" height="25pt" viewBox="0 0 25 25" version="1.1">
<g id="surface1">
<path style=" stroke:none;fill-rule:nonzero;fill:rgb(0%,0%,0%);fill-opacity:1;" d="M 24.457031 2.175781 L 4.347656 2.175781 L 4.347656 0.542969 C 4.347656 0.242188 4.105469 0 3.804688 0 L 0.542969 0 C 0.242188 0 0 0.242188 0 0.542969 L 0 24.457031 C 0 24.757812 0.242188 25 0.542969 25 L 24.457031 25 C 24.757812 25 25 24.757812 25 24.457031 C 25 24.15625 24.757812 23.914062 24.457031 23.914062 L 4.347656 23.914062 L 4.347656 6.523438 L 8.695312 6.523438 L 8.695312 8.695312 L 7.066406 8.695312 C 6.765625 8.695312 6.523438 8.9375 6.523438 9.238281 L 6.523438 17.933594 C 6.523438 18.234375 6.765625 18.476562 7.066406 18.476562 L 22.28125 18.476562 C 22.582031 18.476562 22.824219 18.234375 22.824219 17.933594 L 22.824219 9.238281 C 22.824219 8.9375 22.582031 8.695312 22.28125 8.695312 L 20.652344 8.695312 L 20.652344 6.523438 L 24.457031 6.523438 C 24.757812 6.523438 25 6.277344 25 5.976562 L 25 2.71875 C 25 2.417969 24.757812 2.175781 24.457031 2.175781 Z M 21.738281 17.390625 L 7.609375 17.390625 L 7.609375 9.78125 L 21.738281 9.78125 Z M 19.566406 8.695312 L 9.78125 8.695312 L 9.78125 6.523438 L 19.566406 6.523438 Z M 23.914062 5.433594 L 3.804688 5.433594 C 3.503906 5.433594 3.261719 5.679688 3.261719 5.976562 L 3.261719 23.914062 L 1.085938 23.914062 L 1.085938 1.085938 L 3.261719 1.085938 L 3.261719 2.71875 C 3.261719 3.015625 3.503906 3.261719 3.804688 3.261719 L 23.914062 3.261719 Z M 23.914062 5.433594 "/>
</g>
</svg>
