<svg xmlns="http://www.w3.org/2000/svg" width="38" height="38" viewBox="0 0 38 38">
    <metadata><?xpacket begin="﻿" id="W5M0MpCehiHzreSzNTczkc9d"?>
        <x:xmpmeta xmlns:x="adobe:ns:meta/" x:xmptk="Adobe XMP Core 5.6-c138 79.159824, 2016/09/14-01:09:01        ">
            <rdf:RDF xmlns:rdf="http://www.w3.org/1999/02/22-rdf-syntax-ns#">
                <rdf:Description rdf:about=""/>
            </rdf:RDF>
        </x:xmpmeta>


        <?xpacket end="w"?>
    </metadata>
    <defs>
        <style>
            .cls-1 {
            fill: #3fc692;
            fill-rule: evenodd;
            }
        </style>
    </defs>
    <path id="Forma_1" data-name="Forma 1" class="cls-1"
          d="M14003,575.236a1.857,1.857,0,1,1-1.9,1.856A1.911,1.911,0,0,1,14003,575.236Zm0-26.237a19,19,0,1,0,19,19A18.991,18.991,0,0,0,14003,549Zm0,35.032A16.032,16.032,0,1,1,14019,568,15.97,15.97,0,0,1,14003,584.031Zm0-25.5a5.9,5.9,0,0,0-5.9,5.938,1.428,1.428,0,0,0,1.4,1.486,1.45,1.45,0,0,0,1.5-1.486,3,3,0,1,1,3,2.969,1.51,1.51,0,0,0-1.5,1.484v3.711a1.5,1.5,0,0,0,3,0v-2.415a5.965,5.965,0,0,0,4.4-5.749A5.9,5.9,0,0,0,14003,558.536Z"
          transform="translate(-13984 -549)"/>
</svg>
