<svg xmlns="http://www.w3.org/2000/svg" width="46" height="35" viewBox="0 0 46 35">
  <metadata><?xpacket begin="﻿" id="W5M0MpCehiHzreSzNTczkc9d"?>
<x:xmpmeta xmlns:x="adobe:ns:meta/" x:xmptk="Adobe XMP Core 5.6-c138 79.159824, 2016/09/14-01:09:01        ">
   <rdf:RDF xmlns:rdf="http://www.w3.org/1999/02/22-rdf-syntax-ns#">
      <rdf:Description rdf:about=""/>
   </rdf:RDF>
</x:xmpmeta>
                                                                                                    
                                                                                                    
                                                                                                    
                                                                                                    
                                                                                                    
                                                                                                    
                                                                                                    
                                                                                                    
                                                                                                    
                                                                                                    
                                                                                                    
                                                                                                    
                                                                                                    
                                                                                                    
                                                                                                    
                                                                                                    
                                                                                                    
                                                                                                    
                                                                                                    
                                                                                                    
                           
<?xpacket end="w"?></metadata>
<defs>
    <style>
      .cls-1 {
        fill-rule: evenodd;
      }
    </style>
  </defs>
  <path id="Forma_1" data-name="Forma 1" class="cls-1" d="M10466.8,3878.02c-0.4,1.1-.8,2.2-1.2,3.29a0.468,0.468,0,0,0,.9.26l1.2-3.3C10467.9,3877.69,10467,3877.44,10466.8,3878.02Zm-2.5,12.82a3.32,3.32,0,0,0,3.4-3v-0.23a0.378,0.378,0,0,0-.1-0.32,3.183,3.183,0,0,0-3.2-2.92A3.237,3.237,0,0,0,10464.3,3890.84Zm1.8-3.23c-0.1,2.12-3.3,2.13-3.3,0S10466,3885.49,10466.1,3887.61Zm15.3,3.23a3.32,3.32,0,0,0,3.4-3v-0.55a3.259,3.259,0,0,0-6.5.32A3.271,3.271,0,0,0,10481.4,3890.84Zm1.8-3.23c-0.1,2.12-3.3,2.13-3.3,0S10483.1,3885.49,10483.2,3887.61Zm12.4-12.61q-9.45-5.745-18.9-11.47a10.57,10.57,0,0,0-2.6-1.4,4.837,4.837,0,0,0-4,.94q-5.25,3.165-10.5,6.34c-3.1,1.86-6.2,3.72-9.2,5.59a0.793,0.793,0,0,0,.8,1.37c6.1-3.72,12.3-7.44,18.4-11.16a17.08,17.08,0,0,1,2.2-1.32c1.5-.72,2.6.08,3.8,0.83l10.5,6.39q4.35,2.625,8.7,5.26A0.793,0.793,0,0,0,10495.6,3875Zm-3.8,20.41h-5.8a0.493,0.493,0,0,0,.2-0.31,4.018,4.018,0,0,0,.3-2.17,2.75,2.75,0,0,0,1.8-2.52v-5.61a2.7,2.7,0,0,0-1.9-2.55l-2.9-7.47a3.724,3.724,0,0,0-3.3-2.3h-14.4a3.724,3.724,0,0,0-3.3,2.3l-2.9,7.47a2.7,2.7,0,0,0-1.9,2.55v5.61a2.7,2.7,0,0,0,1.9,2.55,5.117,5.117,0,0,0,.2,2.14,0.621,0.621,0,0,1,.2.31h-5.3a0.8,0.8,0,0,0,0,1.59h37.1A0.8,0.8,0,0,0,10491.8,3895.41Zm-8.1-2.3h1.2c0,0.6.2,1.55-.6,1.55S10483.6,3893.71,10483.7,3893.11Zm-19.7-17.77a2.075,2.075,0,0,1,1.8-1.27h14.4a2.075,2.075,0,0,1,1.8,1.27l2.6,6.76h-1.4l-1.7-4.93a3.611,3.611,0,0,0-3.3-2.33h-10.4a3.611,3.611,0,0,0-3.3,2.33l-1.7,4.93h-1.4Zm17.5,6.76h-17.1l1.6-4.41a1.976,1.976,0,0,1,1.8-1.27h10.4a1.976,1.976,0,0,1,1.8,1.27Zm-22.2,2.7a1.137,1.137,0,0,1,1.2-1.11h25a1.137,1.137,0,0,1,1.2,1.11v5.61a1.137,1.137,0,0,1-1.2,1.11h-25a1.137,1.137,0,0,1-1.2-1.11v-5.61Zm2.5,9.86c-0.8,0-.7-0.95-0.6-1.55h1.2C10462.4,3893.71,10462.6,3894.66,10461.8,3894.66Zm1.9,0.44a4.432,4.432,0,0,0,.3-1.99h18.1a4.406,4.406,0,0,0,.2,1.99c0.1,0.11.2,0.22,0.3,0.31h-19.1A0.493,0.493,0,0,0,10463.7,3895.1Z" transform="translate(-10450 -3862)"/>
</svg>
