<svg xmlns="http://www.w3.org/2000/svg" width="71" height="69" viewBox="0 0 71 69">
  <metadata><?xpacket begin="﻿" id="W5M0MpCehiHzreSzNTczkc9d"?>
<x:xmpmeta xmlns:x="adobe:ns:meta/" x:xmptk="Adobe XMP Core 5.6-c138 79.159824, 2016/09/14-01:09:01        ">
   <rdf:RDF xmlns:rdf="http://www.w3.org/1999/02/22-rdf-syntax-ns#">
      <rdf:Description rdf:about=""/>
   </rdf:RDF>
</x:xmpmeta>
                                                                                                    
                                                                                                    
                                                                                                    
                                                                                                    
                                                                                                    
                                                                                                    
                                                                                                    
                                                                                                    
                                                                                                    
                                                                                                    
                                                                                                    
                                                                                                    
                                                                                                    
                                                                                                    
                                                                                                    
                                                                                                    
                                                                                                    
                                                                                                    
                                                                                                    
                                                                                                    
                           
<?xpacket end="w"?></metadata>
<defs>
    <style>
      .cls-1 {
        fill: #36ffb1;
        fill-rule: evenodd;
      }
    </style>
  </defs>
  <path id="Forma_1" data-name="Forma 1" class="cls-1" d="M8201.57,7166.81h16.56v-11.83h-16.56v11.83Zm2.36-2.37v-3.54h11.84v3.54h-11.84Zm11.84-7.09v1.18h-11.84v-1.18h11.84Zm-14.2,14.19v14.19h16.56v-14.19h-16.56Zm7.1,2.36v3.55h-4.74v-3.55h4.74Zm-4.74,5.91h4.74v3.55h-4.74v-3.55Zm7.1,3.55v-3.55h4.74v3.55h-4.74Zm4.74-5.91h-4.74v-3.55h4.74v3.55Zm7.1-10.64h16.56v-11.83h-16.56v11.83Zm2.36-2.37v-1.18h11.84v1.18h-11.84Zm11.84-7.09v3.55h-11.84v-3.55h11.84Zm17.75,23.65a1.184,1.184,0,0,0-1.19,1.18v1.18h-1.18v-1.18a1.185,1.185,0,0,0-2.37,0v1.18h-1.18v-23.89a4.647,4.647,0,0,0,5.39-1.09,4.725,4.725,0,0,0-.55-6.94l-30.02-23.46-3.22-2.99-3.14,2.92-30.1,23.53a4.725,4.725,0,0,0-.55,6.94,4.7,4.7,0,0,0,5.39,1.09v23.89h-1.18v-1.18a1.185,1.185,0,0,0-2.37,0v1.18h-1.18v-1.18a1.185,1.185,0,0,0-2.37,0v10.64a1.185,1.185,0,1,0,2.37,0v-1.18h1.18v1.18a1.185,1.185,0,1,0,2.37,0v-1.18h1.18v2.37h56.8v-2.37h1.18v1.18a1.185,1.185,0,1,0,2.37,0v-1.18h1.18v1.18a1.185,1.185,0,1,0,2.37,0v-10.64A1.182,1.182,0,0,0,8254.82,7181Zm-66.37-24.23a2.334,2.334,0,0,1-.63-1.79,2.374,2.374,0,0,1,.9-1.68l30.17-23.59,1.61-1.49,1.69,1.56,30.09,23.52a2.339,2.339,0,0,1,.9,1.68,2.365,2.365,0,0,1-3.8,2.06l-0.48-.37h0l-28.4-21.88-27.94,21.52v0.01l-0.94.72A2.348,2.348,0,0,1,8188.45,7156.77Zm-1.08,32.5v-3.54h1.18v3.54h-1.18Zm3.55,0v-3.54h1.18v3.54h-1.18Zm34.31,2.37V7173.9h11.84v17.74h-11.84Zm21.3,0h-7.1v-20.1h-16.56v20.1h-28.4v-33.81l26.03-20.05,26.03,20.05v33.81Zm2.37-2.37v-3.54h1.18v3.54h-1.18Zm3.55,0v-3.54h1.18v3.54h-1.18Z" transform="translate(-8185 -7125)"/>
</svg>
