<svg xmlns="http://www.w3.org/2000/svg" width="90" height="58" viewBox="0 0 90 58">
    <metadata><?xpacket begin="﻿" id="W5M0MpCehiHzreSzNTczkc9d"?>
        <x:xmpmeta xmlns:x="adobe:ns:meta/" x:xmptk="Adobe XMP Core 5.6-c138 79.159824, 2016/09/14-01:09:01        ">
            <rdf:RDF xmlns:rdf="http://www.w3.org/1999/02/22-rdf-syntax-ns#">
                <rdf:Description rdf:about=""/>
            </rdf:RDF>
        </x:xmpmeta>


        <?xpacket end="w"?>
    </metadata>
    <defs>
        <style>
            .cls-1 {
            fill: #36ffb1;
            fill-rule: evenodd;
            }
        </style>
    </defs>
    <path id="Forma_1" data-name="Forma 1" class="cls-1"
          d="M8524.51,7163.67l-7.67-3.42a1.528,1.528,0,0,1-.89-1.38v-2.12a11.271,11.271,0,0,0,4.23-8.81v-2.98a2.771,2.771,0,0,0,1.41-2.41v-0.29a11.229,11.229,0,0,0-11.18-11.26h-2.82a11.235,11.235,0,0,0-11.18,11.26v2.63a2.78,2.78,0,0,0,1.05,2.23,2.74,2.74,0,0,0,.36.23v0.59a11.271,11.271,0,0,0,4.23,8.81v2.12a1.528,1.528,0,0,1-.89,1.38l-7.67,3.42a7.023,7.023,0,0,0-4.13,6.4v17.6a1.32,1.32,0,1,0,2.64,0v-17.59a3.44,3.44,0,0,1,.03-0.46l3.53,3.55a2.929,2.929,0,0,1,.85,2.07v12.43a1.32,1.32,0,1,0,2.64,0v-12.43a5.577,5.577,0,0,0-1.63-3.95l-4.21-4.23a4.247,4.247,0,0,1,1.36-.96l7.53-3.37,5.58,5.62v19.32a1.32,1.32,0,1,0,2.64,0v-19.32l5.58-5.62,7.54,3.37a4.317,4.317,0,0,1,1.35.96l-4.21,4.23a5.577,5.577,0,0,0-1.63,3.95v12.43a1.32,1.32,0,1,0,2.64,0v-12.43a2.929,2.929,0,0,1,.85-2.07l3.53-3.55a3.44,3.44,0,0,1,.03.46v17.59a1.32,1.32,0,1,0,2.64,0v-17.59A7.043,7.043,0,0,0,8524.51,7163.67Zm-15.51,2.26-4.9-4.94a4.189,4.189,0,0,0,.58-2.12v-0.55a11.044,11.044,0,0,0,8.64,0v0.55a4.189,4.189,0,0,0,.58,2.12Zm0-9.39a8.581,8.581,0,0,1-8.54-8.6v-0.6a7.908,7.908,0,0,0,2.39-1.56,1.338,1.338,0,0,0,.07-1.88,1.314,1.314,0,0,0-1.86-.08,4.69,4.69,0,0,1-1.96,1.18,0.037,0.037,0,0,1-.03.01,0.287,0.287,0,0,1-.02-0.12v-2.63a8.589,8.589,0,0,1,8.54-8.61h2.82a8.589,8.589,0,0,1,8.54,8.61v0.29a0.087,0.087,0,0,1-.06.09c-7.89,1.57-11.85-1.39-13.18-2.73a1.316,1.316,0,0,0-1.87,0,1.334,1.334,0,0,0,0,1.87c4.09,4.12,10.07,4.2,13.7,3.76v2.4A8.581,8.581,0,0,1,8509,7156.54Zm-21.23-.09v-2.84a9.826,9.826,0,0,0-4.48-8.26,5.55,5.55,0,1,0-10.58,0,9.826,9.826,0,0,0-4.48,8.26v2.84a9.853,9.853,0,0,0,4.22,8.1v2.92a1.494,1.494,0,0,1-.82,1.35l-4.56,2.3a5.535,5.535,0,0,0-3.07,4.99v11.56a1.315,1.315,0,1,0,2.63,0v-10.98l2.15,2.16a2.921,2.921,0,0,1,.86,2.07v6.75a1.315,1.315,0,1,0,2.63,0v-6.75a5.567,5.567,0,0,0-1.62-3.95l-2.99-3.01-0.04-.04a2.74,2.74,0,0,1,.62-0.43l4.56-2.29a4.327,4.327,0,0,0,.66-0.41l3.22,3.24v13.64a1.32,1.32,0,1,0,2.64,0v-13.64l3.22-3.24a4.765,4.765,0,0,0,.65.41l1.26,0.63a1.249,1.249,0,0,0,.59.14,1.314,1.314,0,0,0,1.18-.73,1.339,1.339,0,0,0-.59-1.79l-1.26-.63a1.494,1.494,0,0,1-.82-1.35v-2.92A9.853,9.853,0,0,0,8487.77,7156.45Zm-9.77-15.7a2.93,2.93,0,0,1,2.91,2.93,3.168,3.168,0,0,1-.05.53,9.3,9.3,0,0,0-2.86-.44,9.708,9.708,0,0,0-2.86.43,2.957,2.957,0,0,1-.05-0.52A2.923,2.923,0,0,1,8478,7140.75Zm0,5.68a7.172,7.172,0,0,1,7.14,7.18v0.49a8.258,8.258,0,0,1-8.9-2.7,1.322,1.322,0,0,0-.96-0.53,1.279,1.279,0,0,0-1.03.39,8.753,8.753,0,0,1-3.38,2.17A7.166,7.166,0,0,1,8478,7146.43Zm0,25.17-3.05-3.06a4.3,4.3,0,0,0,.14-1.07v-1.62a9.843,9.843,0,0,0,5.82,0v1.62a4.3,4.3,0,0,0,.14,1.07Zm0-7.96a7.174,7.174,0,0,1-7.14-7.19v-0.27a10.593,10.593,0,0,0,4.24-2.13,11.693,11.693,0,0,0,2.45,1.79,10.368,10.368,0,0,0,5.03,1.31,11.184,11.184,0,0,0,2.55-.3A7.176,7.176,0,0,1,8478,7163.64Zm72.93,4.64-7.37-3.72a1.492,1.492,0,0,1-.83-1.35v-1.88a8.434,8.434,0,0,0,2.81-6.3v-1.51h0.1a1.327,1.327,0,0,0,1.32-1.33v-2.83a8.412,8.412,0,0,0-8.37-8.43h-2.82a8.4,8.4,0,0,0-8.36,8.43v2.83a1.321,1.321,0,0,0,1.32,1.33h0.09v1.51a8.407,8.407,0,0,0,2.82,6.3v1.88a1.492,1.492,0,0,1-.83,1.35,1.33,1.33,0,0,0-.59,1.79,1.314,1.314,0,0,0,1.18.73,1.38,1.38,0,0,0,.59-0.14,4.765,4.765,0,0,0,.65-0.41l3.22,3.24v17.9a1.32,1.32,0,1,0,2.64,0v-17.9l3.22-3.24a4.878,4.878,0,0,0,.66.41l7.14,3.59-2.17,2.19a5.527,5.527,0,0,0-1.62,3.94v11.01a1.315,1.315,0,1,0,2.63,0v-11.01a2.972,2.972,0,0,1,.85-2.07l2.06-2.06a3.081,3.081,0,0,1,.09.75v14.39a1.32,1.32,0,1,0,2.64,0v-14.39A5.539,5.539,0,0,0,8550.93,7168.28Zm-20.88-17.69v-1.23h0a5.749,5.749,0,0,1,5.72-5.77h2.82a5.757,5.757,0,0,1,5.73,5.77v1.47a19.891,19.891,0,0,1-9.22-2.58,1.324,1.324,0,0,0-.73-0.22,1.308,1.308,0,0,0-.94.39A8.586,8.586,0,0,1,8530.05,7150.59Zm7.13,16.76-3.04-3.07a4.183,4.183,0,0,0,.13-1.07v-0.28a8.254,8.254,0,0,0,5.82,0v0.28a4.185,4.185,0,0,0,.14,1.07Zm0-6.55a5.757,5.757,0,0,1-5.73-5.77v-2.14h0a11.079,11.079,0,0,0,3.1-1.9,23.259,23.259,0,0,0,8.36,2.4v1.64A5.757,5.757,0,0,1,8537.18,7160.8Z"
          transform="translate(-8464 -7131)"/>
</svg>
