<svg xmlns="http://www.w3.org/2000/svg" width="63" height="63" viewBox="0 0 63 63">
    <metadata><?xpacket begin="﻿" id="W5M0MpCehiHzreSzNTczkc9d"?>
        <x:xmpmeta xmlns:x="adobe:ns:meta/" x:xmptk="Adobe XMP Core 5.6-c138 79.159824, 2016/09/14-01:09:01        ">
            <rdf:RDF xmlns:rdf="http://www.w3.org/1999/02/22-rdf-syntax-ns#">
                <rdf:Description rdf:about=""/>
            </rdf:RDF>
        </x:xmpmeta>


        <?xpacket end="w"?>
    </metadata>
    <defs>
        <style>
            .cls-1 {
            fill: #36ffb1;
            fill-rule: evenodd;
            }
        </style>
    </defs>
    <path id="Forma_1" data-name="Forma 1" class="cls-1"
          d="M8819.28,7141.55l-1.53-.47a4.612,4.612,0,0,0-1.24-.19,4.1,4.1,0,0,0-3.82,2.76l-0.86,2.58v-2a1.153,1.153,0,0,0-.39-0.77l-15.66-15.17a1.046,1.046,0,0,0-.67-0.29h-30.67a0.9,0.9,0,0,0-.95.95v2.96h-3.53a0.908,0.908,0,0,0-.96.96v57.18a0.9,0.9,0,0,0,.96.95h46.42a0.9,0.9,0,0,0,.96-0.95v-2.96h3.53a0.913,0.913,0,0,0,.96-0.96v-12.88l2.67-3.63,0.1-.29,7.16-22.81A3.808,3.808,0,0,0,8819.28,7141.55Zm-23.22-10.3,12.52,12.02h-12.52v-12.02Zm9.37,57.84h-44.52v-55.27h2.58v52.31a0.905,0.905,0,0,0,.95.96h40.99v2h0Zm4.58-3.91H8765.4v-55.27h28.76v14.32a0.9,0.9,0,0,0,.95.95h14.9v7.16l-4.49,14.13v0.28l0.19,12.13a0.928,0.928,0,0,0,.67.86,0.907,0.907,0,0,0,1.05-.39l2.58-3.43v9.26h0Zm-2.48-9.26-0.19-7.92,4.77,1.52Zm12.51-29.97-6.88,21.86-5.53-1.82,6.87-21.76a2.081,2.081,0,0,1,2.58-1.34l1.53,0.48A2.008,2.008,0,0,1,8820.04,7145.95Zm-48.14-.77h13.75a0.9,0.9,0,0,0,.96-0.95v-9.74a0.9,0.9,0,0,0-.96-0.95H8771.9a0.9,0.9,0,0,0-.96.95v9.74A1.023,1.023,0,0,0,8771.9,7145.18Zm0.95-9.74h11.85v7.83h-11.85v-7.83Zm-2.86,18.72h29.04a0.955,0.955,0,0,0,0-1.91h-29.04A0.955,0.955,0,1,0,8769.99,7154.16Zm0,6.96h29.04a0.955,0.955,0,0,0,0-1.91h-29.04A0.955,0.955,0,1,0,8769.99,7161.12Zm0,6.97h29.04a0.955,0.955,0,0,0,0-1.91h-29.04A0.955,0.955,0,1,0,8769.99,7168.09Zm29.9,6.01a0.9,0.9,0,0,0-.96-0.95h-28.94a0.955,0.955,0,1,0,0,1.91h29.04A0.944,0.944,0,0,0,8799.89,7174.1Zm3.15,6.02h-14.42a0.955,0.955,0,1,0,0,1.91h14.32a0.9,0.9,0,0,0,.96-0.96A0.878,0.878,0,0,0,8803.04,7180.12Z"
          transform="translate(-8759 -7128)"/>
</svg>
