<svg xmlns="http://www.w3.org/2000/svg" width="62" height="62" viewBox="0 0 62 62">
    <metadata><?xpacket begin="﻿" id="W5M0MpCehiHzreSzNTczkc9d"?>
        <x:xmpmeta xmlns:x="adobe:ns:meta/" x:xmptk="Adobe XMP Core 5.6-c138 79.159824, 2016/09/14-01:09:01        ">
            <rdf:RDF xmlns:rdf="http://www.w3.org/1999/02/22-rdf-syntax-ns#">
                <rdf:Description rdf:about=""/>
            </rdf:RDF>
        </x:xmpmeta>


        <?xpacket end="w"?>
    </metadata>
    <defs>
        <style>
            .cls-1 {
            fill: #36ffb1;
            fill-rule: evenodd;
            }
        </style>
    </defs>
    <path id="Forma_1" data-name="Forma 1" class="cls-1"
          d="M9112.78,7147.87a4.045,4.045,0,1,0,4.05,4.04A4.042,4.042,0,0,0,9112.78,7147.87Zm0,5.39a1.35,1.35,0,1,1,1.35-1.35A1.351,1.351,0,0,1,9112.78,7153.26Zm-21.56,2.7a4.045,4.045,0,1,0-4.05-4.05A4.05,4.05,0,0,0,9091.22,7155.96Zm0-5.4a1.35,1.35,0,1,1-1.35,1.35A1.349,1.349,0,0,1,9091.22,7150.56ZM9102,7129a31,31,0,1,0,31,31A31.04,31.04,0,0,0,9102,7129Zm0,59.31a28.305,28.305,0,1,1,28.3-28.31A28.334,28.334,0,0,1,9102,7188.31Zm13.48-24.27h-26.96a1.357,1.357,0,0,0-1.35,1.35,14.83,14.83,0,0,0,29.66,0A1.357,1.357,0,0,0,9115.48,7164.04ZM9102,7177.52a12.138,12.138,0,0,1-12.05-10.78h24.1A12.138,12.138,0,0,1,9102,7177.52Z"
          transform="translate(-9071 -7129)"/>
</svg>
