<svg xmlns="http://www.w3.org/2000/svg" xmlns:xlink="http://www.w3.org/1999/xlink" width="14.3" height="14"
     viewBox="0 0 14.3 14">
    <metadata><?xpacket begin="﻿" id="W5M0MpCehiHzreSzNTczkc9d"?>
        <x:xmpmeta xmlns:x="adobe:ns:meta/" x:xmptk="Adobe XMP Core 5.6-c138 79.159824, 2016/09/14-01:09:01        ">
            <rdf:RDF xmlns:rdf="http://www.w3.org/1999/02/22-rdf-syntax-ns#">
                <rdf:Description rdf:about=""/>
            </rdf:RDF>
        </x:xmpmeta>


        <?xpacket end="w"?>
    </metadata>
    <defs>
        <style>
            .cls-1 {
            fill-rule: evenodd;
            filter: url(#filter);
            }
        </style>
        <filter id="filter" x="12717.4" y="5290" width="14.3" height="14" filterUnits="userSpaceOnUse">
            <feFlood result="flood" flood-color="#f6be58"/>
            <feComposite result="composite" operator="in" in2="SourceGraphic"/>
            <feBlend result="blend" in2="SourceGraphic"/>
        </filter>
    </defs>
    <path id="_-e-star3" data-name="-e-star3" class="cls-1"
          d="M12731.4,5296.34a0.87,0.87,0,0,0,.2-1.07,0.963,0.963,0,0,0-.8-0.72l-3.5-.51a0.557,0.557,0,0,1-.3-0.25l-1.5-3.21a1.159,1.159,0,0,0-1-.58,1.007,1.007,0,0,0-.9.58l-1.5,3.21a0.508,0.508,0,0,1-.4.25l-3.4.51a1.251,1.251,0,0,0-.9.72,1.076,1.076,0,0,0,.3,1.07l2.5,2.5a0.329,0.329,0,0,1,.1.41l-0.6,3.52a1.268,1.268,0,0,0,.4,1.03,1.056,1.056,0,0,0,1.1.08l3.1-1.67a0.4,0.4,0,0,1,.4,0l3.1,1.67a1.583,1.583,0,0,0,.5.12,1.1,1.1,0,0,0,.6-0.2,1.025,1.025,0,0,0,.4-1.03l-0.6-3.52a0.666,0.666,0,0,1,.2-0.41Zm-3.2,3.01,0.6,3.52a0.674,0.674,0,0,1-.2.45,0.478,0.478,0,0,1-.5.04l-3.1-1.67a0.884,0.884,0,0,0-.5-0.11,0.757,0.757,0,0,0-.4.11l-3.1,1.67a0.456,0.456,0,0,1-.5-0.04,0.416,0.416,0,0,1-.2-0.45l0.6-3.52a1.066,1.066,0,0,0-.3-0.93l-2.5-2.5a0.5,0.5,0,0,1,.2-0.79l3.5-.51a1.24,1.24,0,0,0,.8-0.57l1.5-3.21a0.581,0.581,0,0,1,.4-0.26,0.354,0.354,0,0,1,.4.26l1.6,3.21a0.9,0.9,0,0,0,.8.57l3.4,0.51a0.541,0.541,0,0,1,.4.32,0.73,0.73,0,0,1-.1.47l-2.5,2.5A0.851,0.851,0,0,0,12728.2,5299.35Z"
          transform="translate(-12717.4 -5290)"/>
</svg>
