<svg xmlns="http://www.w3.org/2000/svg" width="16" height="19" viewBox="0 0 16 19">
    <metadata><?xpacket begin="﻿" id="W5M0MpCehiHzreSzNTczkc9d"?>
        <x:xmpmeta xmlns:x="adobe:ns:meta/" x:xmptk="Adobe XMP Core 5.6-c138 79.159824, 2016/09/14-01:09:01        ">
            <rdf:RDF xmlns:rdf="http://www.w3.org/1999/02/22-rdf-syntax-ns#">
                <rdf:Description rdf:about=""/>
            </rdf:RDF>
        </x:xmpmeta>


        <?xpacket end="w"?>
    </metadata>
    <defs>
        <style>
            .cls-1 {
            fill: #029bbf;
            fill-rule: evenodd;
            }
        </style>
    </defs>
    <path id="_-e-tag" data-name="-e-tag" class="cls-1"
          d="M12013.2,3852a0.977,0.977,0,0,1-.6-0.25l-6.6-7.35-6.6,7.35a0.937,0.937,0,0,1-.9.2,0.7,0.7,0,0,1-.5-0.66v-17.58a0.726,0.726,0,0,1,.8-0.71h14.4a0.726,0.726,0,0,1,.8.71v17.58a0.712,0.712,0,0,1-.5.66A0.789,0.789,0,0,1,12013.2,3852Zm-7.2-9.41a0.977,0.977,0,0,1,.6.25l5.9,6.49v-14.9h-13v14.9l5.9-6.49A0.977,0.977,0,0,1,12006,3842.59Z"
          transform="translate(-11998 -3833)"/>
</svg>
