<svg xmlns="http://www.w3.org/2000/svg" width="135" height="95" viewBox="0 0 135 95">
    <metadata><?xpacket begin="﻿" id="W5M0MpCehiHzreSzNTczkc9d"?>
        <x:xmpmeta xmlns:x="adobe:ns:meta/" x:xmptk="Adobe XMP Core 5.6-c138 79.159824, 2016/09/14-01:09:01        ">
            <rdf:RDF xmlns:rdf="http://www.w3.org/1999/02/22-rdf-syntax-ns#">
                <rdf:Description rdf:about=""/>
            </rdf:RDF>
        </x:xmpmeta>


        <?xpacket end="w"?>
    </metadata>
    <defs>
        <style>
            .cls-1 {
            fill: #fff;
            fill-rule: evenodd;
            }
        </style>
    </defs>
    <path id="_-e-video" data-name="-e-video" class="cls-1"
          d="M12434.7,4934.15c-4.8-5.79-13.8-8.15-31-8.15h-62.4c-17.6,0-26.7,2.52-31.6,8.68-4.7,6.01-4.7,14.88-4.7,27.13v23.38c0,23.75,5.6,35.81,36.3,35.81h62.4c14.9,0,23.1-2.09,28.5-7.2,5.5-5.24,7.8-13.8,7.8-28.61v-23.38C12440,4948.88,12439.6,4939.97,12434.7,4934.15Zm-43,42.58-28.4,14.8a4.235,4.235,0,0,1-4.2-.14,4.359,4.359,0,0,1-2.1-3.72v-29.51a4.359,4.359,0,0,1,2.1-3.72,4.207,4.207,0,0,1,4.2-.14l28.4,14.7A4.4,4.4,0,0,1,12391.7,4976.73Z"
          transform="translate(-12305 -4926)"/>
</svg>
