<?xml version="1.0" encoding="UTF-8"?>
<svg xmlns="http://www.w3.org/2000/svg" xmlns:xlink="http://www.w3.org/1999/xlink" width="20pt" height="20pt" viewBox="0 0 20 20" version="1.1">
<g id="surface1">
<path style=" stroke:none;fill-rule:nonzero;fill:rgb(0%,0%,0%);fill-opacity:1;" d="M 19.773438 8.121094 L 10.300781 1.183594 C 10.121094 1.054688 9.871094 1.054688 9.6875 1.183594 L 0.210938 8.121094 C -0.0195312 8.289062 -0.0664062 8.617188 0.101562 8.847656 C 0.269531 9.078125 0.59375 9.128906 0.828125 8.960938 L 9.996094 2.25 L 19.160156 8.960938 C 19.253906 9.027344 19.359375 9.058594 19.46875 9.058594 C 19.628906 9.058594 19.785156 8.988281 19.886719 8.847656 C 20.054688 8.617188 20.007812 8.289062 19.773438 8.121094 Z M 19.773438 8.121094 "/>
<path style=" stroke:none;fill-rule:nonzero;fill:rgb(0%,0%,0%);fill-opacity:1;" d="M 17.265625 9.078125 C 16.976562 9.078125 16.746094 9.3125 16.746094 9.597656 L 16.746094 17.863281 L 12.589844 17.863281 L 12.589844 13.351562 C 12.589844 11.921875 11.421875 10.753906 9.996094 10.753906 C 8.5625 10.753906 7.398438 11.921875 7.398438 13.351562 L 7.398438 17.863281 L 3.242188 17.863281 L 3.242188 9.597656 C 3.242188 9.3125 3.011719 9.078125 2.722656 9.078125 C 2.433594 9.078125 2.207031 9.3125 2.207031 9.597656 L 2.207031 18.382812 C 2.207031 18.667969 2.433594 18.90625 2.722656 18.90625 L 7.917969 18.90625 C 8.191406 18.90625 8.410156 18.691406 8.433594 18.421875 C 8.433594 18.410156 8.433594 18.394531 8.433594 18.382812 L 8.433594 13.351562 C 8.433594 12.492188 9.136719 11.792969 9.996094 11.792969 C 10.851562 11.792969 11.554688 12.492188 11.554688 13.351562 L 11.554688 18.382812 C 11.554688 18.394531 11.554688 18.410156 11.554688 18.421875 C 11.574219 18.691406 11.800781 18.90625 12.070312 18.90625 L 17.265625 18.90625 C 17.550781 18.90625 17.785156 18.667969 17.785156 18.382812 L 17.785156 9.597656 C 17.785156 9.3125 17.550781 9.078125 17.265625 9.078125 Z M 17.265625 9.078125 "/>
</g>
</svg>
