<svg xmlns="http://www.w3.org/2000/svg" width="60" height="58" viewBox="0 0 60 58">
    <metadata><?xpacket begin="﻿" id="W5M0MpCehiHzreSzNTczkc9d"?>
        <x:xmpmeta xmlns:x="adobe:ns:meta/" x:xmptk="Adobe XMP Core 5.6-c138 79.159824, 2016/09/14-01:09:01        ">
            <rdf:RDF xmlns:rdf="http://www.w3.org/1999/02/22-rdf-syntax-ns#">
                <rdf:Description rdf:about=""/>
            </rdf:RDF>
        </x:xmpmeta>


        <?xpacket end="w"?>
    </metadata>
    <defs>
        <style>
            .cls-1 {
            fill: #36ffb1;
            fill-rule: evenodd;
            }
        </style>
    </defs>
    <path id="Forma_1" data-name="Forma 1" class="cls-1"
          d="M12809,5998.14h14v-9.94h-14v9.94Zm2-1.99v-2.98h10v2.98h-10Zm10-5.96v1h-10v-1h10Zm-12,11.93v11.93h14v-11.93h-14Zm6,1.99v2.98h-4v-2.98h4Zm-4,4.97h4v2.98h-4v-2.98Zm6,2.98v-2.98h4v2.98h-4Zm4-4.97h-4v-2.98h4v2.98Zm6-8.95h14v-9.94h-14v9.94Zm2-1.99v-0.99h10v0.99h-10Zm10-5.96v2.98h-10v-2.98h10Zm15,19.88a0.97,0.97,0,0,0-1,.99v1h-1v-1a1,1,0,0,0-2,0v1h-1v-20.08a4.035,4.035,0,0,0,1.6.36,3.916,3.916,0,0,0,4-4.3,3.952,3.952,0,0,0-1.5-2.82l-25.4-19.72-2.7-2.51-2.7,2.46-25.4,19.77a3.952,3.952,0,0,0-1.5,2.82,3.939,3.939,0,0,0,5.6,3.94v20.08h-1v-0.99a1,1,0,0,0-2,0v0.99h-1v-0.99a1,1,0,0,0-2,0v8.94a1,1,0,1,0,2,0v-0.99h1v0.99a1,1,0,1,0,2,0v-0.99h1v1.99h48v-1.99h1v0.99a1,1,0,1,0,2,0v-0.99h1v0.99a1,1,0,1,0,2,0v-8.94A0.972,0.972,0,0,0,12854,6010.07Zm-56.1-20.36a1.714,1.714,0,0,1-.5-1.51,1.914,1.914,0,0,1,.7-1.41l25.5-19.83,1.4-1.26,1.4,1.32,25.5,19.77a1.914,1.914,0,0,1,.7,1.41,1.714,1.714,0,0,1-.5,1.51,2.027,2.027,0,0,1-2.7.22l-0.4-.31h0l-24-18.39-23.6,18.09h0l-0.8.61A2.027,2.027,0,0,1,12797.9,5989.71Zm-0.9,27.32v-2.98h1v2.98h-1Zm3,0v-2.98h1v2.98h-1Zm29,1.99v-14.91h10v14.91h-10Zm18,0h-6v-16.9h-14v16.9h-24V5990.6l22-16.86,22,16.86v28.42Zm2-1.99v-2.98h1v2.98h-1Zm3,0v-2.98h1v2.98h-1Z"
          transform="translate(-12795 -5963)"/>
</svg>
