<svg xmlns="http://www.w3.org/2000/svg" width="67" height="54" viewBox="0 0 67 54">
    <metadata><?xpacket begin="﻿" id="W5M0MpCehiHzreSzNTczkc9d"?>
        <x:xmpmeta xmlns:x="adobe:ns:meta/" x:xmptk="Adobe XMP Core 5.6-c138 79.159824, 2016/09/14-01:09:01        ">
            <rdf:RDF xmlns:rdf="http://www.w3.org/1999/02/22-rdf-syntax-ns#">
                <rdf:Description rdf:about=""/>
            </rdf:RDF>
        </x:xmpmeta>


        <?xpacket end="w"?>
    </metadata>
    <defs>
        <style>
            .cls-1 {
            fill: #36ffb1;
            fill-rule: evenodd;
            }
        </style>
    </defs>
    <path class="cls-1"
          d="M12206.4,6361.73a2.246,2.246,0,1,1,0,4.49A2.245,2.245,0,0,1,12206.4,6361.73Zm51.2-9.86a5.084,5.084,0,0,0-.9-2.97,5.22,5.22,0,0,0,2.3-4.33,5.3,5.3,0,0,0-5.3-5.26h-14l0.9-1.97a21.873,21.873,0,0,0,2-9.07v-3.86a5.485,5.485,0,0,0-5.5-5.41,5.356,5.356,0,0,0-5,3.38c-0.1.09-1.3,3.8-1.3,3.8a19.682,19.682,0,0,1-5.9,8.47l-6.5,5.36h-3.7v-1.69a3.283,3.283,0,0,0-3.3-3.23h-16.1a3.283,3.283,0,0,0-3.3,3.23v31.45a3.283,3.283,0,0,0,3.3,3.23h16.1a3.283,3.283,0,0,0,3.3-3.23v-2.52h2l2,0.97a36.212,36.212,0,0,0,15.5,3.51h15.4a5.3,5.3,0,0,0,5.3-5.26,5.062,5.062,0,0,0-.9-2.97,5.22,5.22,0,0,0,2.3-4.33,5.9,5.9,0,0,0-.9-2.97A5.393,5.393,0,0,0,12257.6,6351.87Zm-46.2,17.9h-16.1v-31.45h16.1v31.45h0Zm42.3-23.16h-2.3a1.612,1.612,0,1,0,0,3.22h0.9a2.041,2.041,0,1,1,0,4.08h-2.3a1.61,1.61,0,0,0,0,3.22h1a2.04,2.04,0,0,1,0,4.08h-2.3a1.612,1.612,0,1,0,0,3.22h0.9a2.041,2.041,0,1,1,0,4.08h-15.4a33.164,33.164,0,0,1-14.1-3.2l-2.3-1.13a1.622,1.622,0,0,0-.7-0.16h-2.4v-20.78h4.3a1.507,1.507,0,0,0,1-.37l7-5.75a22.322,22.322,0,0,0,6.8-9.89s1.3-3.73,1.3-3.76a2.315,2.315,0,0,1,2-1.24,2.2,2.2,0,0,1,2.2,2.18v3.85a18.941,18.941,0,0,1-1.7,7.77l-1.9,4.21a2.166,2.166,0,0,0,0,1.13,1.554,1.554,0,0,0,1.5,1.17h16.5A2.035,2.035,0,0,1,12253.7,6346.61Z"
          transform="translate(-12192 -6319)"/>
</svg>
