<svg xmlns="http://www.w3.org/2000/svg" width="66.9" height="66" viewBox="0 0 66.9 66">
    <metadata><?xpacket begin="﻿" id="W5M0MpCehiHzreSzNTczkc9d"?>
        <x:xmpmeta xmlns:x="adobe:ns:meta/" x:xmptk="Adobe XMP Core 5.6-c138 79.159824, 2016/09/14-01:09:01        ">
            <rdf:RDF xmlns:rdf="http://www.w3.org/1999/02/22-rdf-syntax-ns#">
                <rdf:Description rdf:about=""/>
            </rdf:RDF>
        </x:xmpmeta>


        <?xpacket end="w"?>
    </metadata>
    <defs>
        <style>
            .cls-1 {
            fill: #36ffb1;
            fill-rule: evenodd;
            }
        </style>
    </defs>
    <path id="_-e-greatcustomer" data-name="-e-greatcustomer" class="cls-1"
          d="M12815.5,6367.65l-3.1-.72a2.121,2.121,0,0,1-1.6-2.03v-0.96a8.526,8.526,0,0,0,3.9-7.1v-6.14a1.084,1.084,0,0,0-.2-0.52,0.922,0.922,0,0,0-1.3-.28,9.8,9.8,0,0,1-3.9.87,11.877,11.877,0,0,1-7.3-2.62l-2.4-2.59a8.181,8.181,0,0,1,6.9-3.67,7.893,7.893,0,0,1,5.1,2.45,12,12,0,0,1,3.2,5.81,1.017,1.017,0,0,0,1.2.7,0.9,0.9,0,0,0,.7-1.21,13.638,13.638,0,0,0-3.7-6.71,9.859,9.859,0,0,0-6.4-3.01,10.651,10.651,0,0,0-4.4.95,7.692,7.692,0,1,0-4.5,14.51v1.46a8.459,8.459,0,0,0,4.2,7.28v0.78a2.106,2.106,0,0,1-1.7,2.03l-3.1.72a6.556,6.556,0,0,0-5.1,6.4v3.97a1.026,1.026,0,0,0,1,.98h26.6a0.962,0.962,0,0,0,1-.98v-3.97A6.556,6.556,0,0,0,12815.5,6367.65Zm-17.8-14.26a5.64,5.64,0,0,1-4.6-5.6,5.747,5.747,0,0,1,5.7-5.72,6.121,6.121,0,0,1,1.2.13,0.391,0.391,0,0,1-.2.17,14.186,14.186,0,0,0-2.3,2.78h0v0.02h0a11.9,11.9,0,0,0-1.3,3.17,10.466,10.466,0,0,0-.1,3.06,0.953,0.953,0,0,0,.4.69,1.158,1.158,0,0,0,.6.18s0.1-.01.2-0.03a2.476,2.476,0,0,1,.4-0.09v1.24Zm0.7-3.62a1.348,1.348,0,0,0-.3.14,0.418,0.418,0,0,1-.1.04,5.1,5.1,0,0,1,.2-1.21,5.343,5.343,0,0,1,.3-1.24c0.4,0.49.9,0.95,1.3,1.38a6.174,6.174,0,0,1-1.1.74Zm1.2,7.07v-5.49h0a12.094,12.094,0,0,0,1.8-1.2,13.708,13.708,0,0,0,7.9,2.59,13.258,13.258,0,0,0,3.4-.53v4.63a6.491,6.491,0,0,1-6.5,6.49A6.577,6.577,0,0,1,12799.6,6356.84Zm19,20.2H12794v-2.99a4.635,4.635,0,0,1,3.6-4.49l0.3-.06a9.815,9.815,0,0,0,4,3.69,1.275,1.275,0,0,0,.5.1,0.862,0.862,0,0,0,.8-0.54,0.914,0.914,0,0,0-.4-1.32,8.789,8.789,0,0,1-2.9-2.41l0.8-.18a3.988,3.988,0,0,0,3.1-3.87,9.442,9.442,0,0,0,2.4.33,8.236,8.236,0,0,0,2.6-.42v0.02a4.034,4.034,0,0,0,3.2,3.94l0.7,0.18a7.882,7.882,0,0,1-6.4,3.23,0.98,0.98,0,1,0,0,1.96,9.952,9.952,0,0,0,8.5-4.71l0.3,0.06a4.546,4.546,0,0,1,3.5,4.49v2.99h0Zm-15.4-24.23a0.831,0.831,0,1,1-.8.83A0.779,0.779,0,0,1,12803.2,6352.81Zm5.7,0a0.831,0.831,0,0,1,0,1.66A0.833,0.833,0,1,1,12808.9,6352.81Zm-1.9,6.08a1.182,1.182,0,0,1-1.7,0,1,1,0,0,0-1.4,0,0.943,0.943,0,0,0,0,1.38,3.051,3.051,0,0,0,2.2.93,3.114,3.114,0,0,0,2.3-.93,0.944,0.944,0,0,0,0-1.38A1,1,0,0,0,12807,6358.89Zm34.1,2.31a3.051,3.051,0,0,0,2.2-.93,0.943,0.943,0,0,0,0-1.38,0.884,0.884,0,0,0-1.3,0,1.3,1.3,0,0,1-1.8,0,1,1,0,0,0-1.4,0,0.944,0.944,0,0,0,0,1.38A3.114,3.114,0,0,0,12841.1,6361.2Zm13.3,7.3a0.975,0.975,0,0,0-.9,1.73,4.384,4.384,0,0,1,2.5,3.82v2.99h-4v-1.16a1.028,1.028,0,0,0-1-.99,0.964,0.964,0,0,0-1,.99v1.16h-17.8v-1.16a0.964,0.964,0,0,0-1-.99,1.028,1.028,0,0,0-1,.99v1.16h-4v-2.99c0-2.13,1.8-3.97,4.4-4.48l3.7-.72a4.577,4.577,0,0,0,1.2-.41,9.483,9.483,0,0,0,11.2,0,6.308,6.308,0,0,0,1.2.41l2.5,0.49,0.2,0.02a1,1,0,0,0,1-.79,0.96,0.96,0,0,0-.8-1.16l-2.5-.49a2.343,2.343,0,0,1-2.1-2.02v-1.44a8.379,8.379,0,0,0,3.3-6.62v-6.14a1.084,1.084,0,0,0-.2-0.52,1.031,1.031,0,0,0-1.4-.28,8.977,8.977,0,0,1-3.8.87,11.714,11.714,0,0,1-7.3-2.61l-2.4-2.6a6.267,6.267,0,0,1,1.5-1.7,8.559,8.559,0,0,1,5.4-1.97,7.893,7.893,0,0,1,5.1,2.45,12,12,0,0,1,3.2,5.81,0.971,0.971,0,0,0,1.2.7,1.051,1.051,0,0,0,.7-1.21,14.467,14.467,0,0,0-3.7-6.71,9.859,9.859,0,0,0-6.4-3.01,10.594,10.594,0,0,0-6.8,2.45,11.374,11.374,0,0,0-2.3,2.78h0v0.02h0a9.325,9.325,0,0,0-1.3,3.17,7.884,7.884,0,0,0-.1,3.06,0.722,0.722,0,0,0,.4.69,0.666,0.666,0,0,0,.5.18,1.526,1.526,0,0,0,.3-0.03l0.3-.09v4.69a8.321,8.321,0,0,0,3.6,6.84v1.22a2.343,2.343,0,0,1-2.1,2.02l-3.7.73c-3.5.68-6,3.32-6,6.4v3.97a1.026,1.026,0,0,0,1,.98h31.8a0.962,0.962,0,0,0,1-.98v-3.97A6.3,6.3,0,0,0,12854.4,6368.5Zm-13.3-.19a7,7,0,0,1-3.9-1.15,3.6,3.6,0,0,0,.7-2.26v-0.16a8.96,8.96,0,0,0,3.1.56,8.647,8.647,0,0,0,3.3-.67v0.27a3.683,3.683,0,0,0,.8,2.26A7.586,7.586,0,0,1,12841.1,6368.31Zm-7.9-18.54a1.348,1.348,0,0,0-.3.14c-0.1.02-.1,0.03-0.1,0.04,0-.4.1-0.81,0.1-1.21,0.1-.42.3-0.84,0.4-1.24,0.4,0.49.9,0.95,1.3,1.38a6.174,6.174,0,0,1-1.1.74Zm1.2,7.07v-5.49h0a12.094,12.094,0,0,0,1.8-1.2,12.645,12.645,0,0,0,11.3,2.06v4.63a6.491,6.491,0,0,1-6.5,6.49A6.577,6.577,0,0,1,12834.4,6356.84Zm3.6-4.03a0.831,0.831,0,0,1,0,1.66A0.833,0.833,0,1,1,12838,6352.81Zm5.6,0a0.833,0.833,0,1,1,0,1.66A0.831,0.831,0,0,1,12843.6,6352.81Zm-6.5-18.77a12.066,12.066,0,0,0-8.1-21.04h-0.1a12.021,12.021,0,0,0-8.6,3.64,12.6,12.6,0,0,0-2.6,3.88h-5.3a0.984,0.984,0,0,0,0,1.96h4.7a12.638,12.638,0,0,0-.2,1.96h-4.8a0.98,0.98,0,1,0,0,1.96h4.8a12.848,12.848,0,0,0,.4,1.96h-4.9a0.984,0.984,0,0,0,0,1.96h5.7a11.506,11.506,0,0,0,2.3,3.2c0.2,0.25.5,0.49,0.7,0.71a9.912,9.912,0,0,1-6.4.64,1.155,1.155,0,0,0-1,.26,8.189,8.189,0,0,1-3.6,2.01c-0.1.04-.3,0.07-0.4,0.11a10.99,10.99,0,0,0,1.3-3.39,1.145,1.145,0,0,0-.4-0.95,10.071,10.071,0,0,1,6.4-17.95h0a10.963,10.963,0,0,1,1.8.17,1.062,1.062,0,0,0,1.2-.79,1.014,1.014,0,0,0-.8-1.14,11.759,11.759,0,0,0-2.2-.2h0a12.006,12.006,0,0,0-8.1,21.04,7.754,7.754,0,0,1-1.4,2.94,1.474,1.474,0,0,0-.2,1.67,1.573,1.573,0,0,0,1.3.77c0.1,0,.2-0.01.2-0.01a10.634,10.634,0,0,0,1.9-.39,10.754,10.754,0,0,0,4-2.13,12,12,0,0,0,2.6.2,12.458,12.458,0,0,0,5.7-1.58,11.811,11.811,0,0,0,5.7,1.58,11.106,11.106,0,0,0,2.5-.2,10.274,10.274,0,0,0,4.1,2.13,11.587,11.587,0,0,0,1.8.39c0.1,0,.1.01,0.2,0.01a1.347,1.347,0,0,0,1.3-.77,1.46,1.46,0,0,0-.1-1.67A6.507,6.507,0,0,1,12837.1,6334.04Zm-1.3,3.1a9.4,9.4,0,0,1-3.6-2.01,0.965,0.965,0,0,0-.7-0.28,0.68,0.68,0,0,0-.2.02,10.437,10.437,0,0,1-2.6.26,10.066,10.066,0,0,1-5.1-1.55,1.76,1.76,0,0,0-.2-0.09,9.381,9.381,0,0,1-1.6-1.35,10.578,10.578,0,0,1-2.2-3.16v-0.05a11.491,11.491,0,0,1-.8-3.69,10.157,10.157,0,0,1,10.1-10.28h0.1a10.1,10.1,0,0,1,10.1,10.01,9.9,9.9,0,0,1-3.8,7.94,1.078,1.078,0,0,0-.3.95,10.93,10.93,0,0,0,1.2,3.39A2.1,2.1,0,0,0,12835.8,6337.14Zm-1-16.79h-11.2a0.98,0.98,0,1,0,0,1.96h11.2A0.98,0.98,0,1,0,12834.8,6320.35Zm0,3.92h-11.2a0.98,0.98,0,1,0,0,1.96h11.2A0.98,0.98,0,1,0,12834.8,6324.27Zm-5.4,3.92h-5.8a0.98,0.98,0,1,0,0,1.96h5.8A0.98,0.98,0,1,0,12829.4,6328.19Z"
          transform="translate(-12791.1 -6313)"/>
</svg>
